<font horiz-adv-x="1000">
<!-- Source is a trademark of Adobe Systems Incorporated in the United States and/or other countries. -->
<font-face font-family="SourceSerifPro-Regular" units-per-em="1000" underline-position="-100" underline-thickness="50"/>
<missing-glyph horiz-adv-x="636" d="M348,330l148,235l0,-470 z M172,50l146,232l146,-232 z M140,565l148,-235l-148,-235 z M464,610l-146,-232l-146,232 z M556,660l-476,0l0,-660l476,0z"/>
<glyph unicode=" " horiz-adv-x="233"/>
<glyph unicode="A" horiz-adv-x="664" d="M210,265l100,289l98,-289 z M579,50l-215,619l-60,0l-214,-615l-85,-13l0,-41l230,0l0,41l-97,13l56,164l230,0l56,-165l-98,-12l0,-41l272,0l0,41z"/>
<glyph unicode="B" horiz-adv-x="629" d="M234,47C232,134 232,224 232,323l56,0C427,323 486,276 486,183C486,96 426,47 295,47 z M305,622C406,622 458,590 458,499C458,408 406,369 285,369l-53,0C232,454 232,539 234,622 z M44,669l0,-41l92,-11C138,531 138,445 138,359l0,-49C138,223 138,136 136,52l-92,-11l0,-41l273,0C512,0 585,92 585,183C585,263 531,329 399,348C508,371 552,434 552,505C552,601 473,669 334,669z"/>
<glyph unicode="C" horiz-adv-x="631" d="M529,178l-20,-116C469,43 428,35 390,35C253,35 155,140 155,334C155,529 263,633 397,633C432,633 465,626 499,609l20,-119l63,0l-4,146C510,675 440,684 386,684C190,684 47,537 47,334C47,129 183,-15 386,-15C456,-15 525,-1 588,33l4,145z"/>
<glyph unicode="D" horiz-adv-x="709" d="M234,47C232,135 232,224 232,322l0,37C232,448 232,536 234,622l88,0C461,622 553,522 553,334C553,147 461,47 323,47 z M44,669l0,-41l92,-11C138,531 138,445 138,359l0,-37C138,225 138,137 136,52l-92,-11l0,-41l276,0C508,0 662,118 662,335C662,551 524,669 340,669z"/>
<glyph unicode="E" horiz-adv-x="604" d="M512,178l-22,-128l-256,0C232,136 232,223 232,318l150,0l13,-94l45,0l0,237l-45,0l-14,-96l-149,0C232,450 232,535 234,618l236,0l22,-127l57,0l-7,178l-498,0l0,-41l92,-11C138,531 138,445 138,359l0,-49C138,223 138,136 136,52l-92,-11l0,-41l518,0l7,178z"/>
<glyph unicode="F" horiz-adv-x="579" d="M470,618l22,-127l57,0l-7,178l-498,0l0,-41l92,-11C138,531 138,445 138,359l0,-49C138,223 138,136 136,52l-92,-11l0,-41l283,0l0,41l-93,11C232,137 232,224 232,318l156,0l14,-104l46,0l0,247l-46,0l-14,-96l-156,0C232,450 232,535 234,618z"/>
<glyph unicode="G" horiz-adv-x="681" d="M666,317l-262,0l0,-40l103,-9C508,209 509,148 509,88l0,-32C474,42 442,36 403,36C249,36 155,145 155,334C155,525 257,633 396,633C437,633 474,626 510,607l20,-116l63,0l-4,145C531,669 469,684 388,684C184,684 47,535 47,334C47,134 183,-15 383,-15C466,-15 534,8 603,44l0,44C603,150 604,211 605,271l61,6z"/>
<glyph unicode="H" horiz-adv-x="790" d="M746,628l0,41l-282,0l0,-41l92,-11C558,534 558,450 558,366l-326,0C232,451 232,535 234,617l93,11l0,41l-283,0l0,-41l92,-11C138,531 138,445 138,359l0,-49C138,223 138,136 136,52l-92,-11l0,-41l283,0l0,41l-93,11C232,135 232,221 232,319l326,0C558,220 558,134 556,52l-92,-11l0,-41l282,0l0,41l-92,11C652,138 652,224 652,310l0,49C652,446 652,533 654,617z"/>
<glyph unicode="I" horiz-adv-x="370" d="M327,628l0,41l-283,0l0,-41l92,-11C138,531 138,445 138,359l0,-49C138,223 138,136 136,52l-92,-11l0,-41l283,0l0,41l-93,11C232,138 232,224 232,310l0,49C232,446 232,533 234,617z"/>
<glyph unicode="J" horiz-adv-x="374" d="M340,669l-293,0l0,-41l102,-11C153,169 158,64 158,5C158,-51 145,-87 120,-116l-27,21C65,-73 44,-65 19,-65C-12,-65 -36,-78 -42,-114C-32,-153 9,-163 46,-163C129,-163 213,-114 233,-14C243,37 246,90 246,201l0,158C246,446 246,533 248,617l92,11z"/>
<glyph unicode="K" horiz-adv-x="668" d="M585,51l-206,359l170,205l98,13l0,41l-230,0l0,-41l73,-11l-260,-319l0,61C230,446 230,533 232,617l95,11l0,41l-283,0l0,-41l92,-11C138,531 138,445 138,359l0,-49C138,223 138,136 136,52l-92,-11l0,-41l283,0l0,41l-95,11C230,115 230,177 230,232l94,112l162,-293l-81,-10l0,-41l258,0l0,41z"/>
<glyph unicode="L" horiz-adv-x="596" d="M491,188l-29,-138l-228,0C232,135 232,222 232,310l0,49C232,445 232,531 234,617l93,11l0,41l-283,0l0,-41l92,-11C138,533 138,446 138,359l0,-49C138,224 138,138 136,52l-92,-11l0,-41l499,0l10,188z"/>
<glyph unicode="M" horiz-adv-x="903" d="M859,628l0,41l-170,0l-240,-537l-232,537l-178,0l0,-41l90,-11l0,-563l-91,-13l0,-41l225,0l0,41l-83,13l0,475l231,-529l31,0l230,522l0,-212C672,223 672,136 670,51l-84,-10l0,-41l273,0l0,41l-92,11C765,138 765,224 765,310l0,49C765,446 765,533 767,617z"/>
<glyph unicode="N" horiz-adv-x="737" d="M698,669l-242,0l0,-41l106,-13l0,-442l-364,496l-154,0l0,-41l71,-9l10,-13l0,-553l-86,-12l0,-41l242,0l0,41l-106,14l0,483l404,-548l34,0l0,625l85,13z"/>
<glyph unicode="O" horiz-adv-x="707" d="M156,334C156,484 215,633 354,633C493,633 552,484 552,334C552,185 493,35 354,35C215,35 156,185 156,334 z M354,684C200,684 47,554 47,334C47,106 199,-15 354,-15C509,-15 660,115 660,334C660,562 508,684 354,684z"/>
<glyph unicode="P" horiz-adv-x="589" d="M295,622C415,622 468,566 468,470C468,375 415,311 280,311l-48,0l0,48C232,448 232,536 234,622 z M265,264C485,264 567,359 567,470C567,587 482,669 313,669l-269,0l0,-41l92,-11C138,531 138,445 138,359l0,-49C138,223 138,136 136,52l-92,-11l0,-41l283,0l0,41l-93,11C232,123 232,194 232,264z"/>
<glyph unicode="Q" horiz-adv-x="707" d="M156,334C156,484 215,633 354,633C493,633 552,484 552,334C552,185 493,35 354,35C215,35 156,185 156,334 z M611,-149C580,-158 554,-161 534,-161C451,-161 398,-109 395,-12C534,8 660,134 660,334C660,562 508,684 354,684C200,684 47,554 47,334C47,132 167,14 302,-10C304,-122 376,-216 499,-216C541,-216 588,-206 623,-184z"/>
<glyph unicode="R" horiz-adv-x="651" d="M232,355C232,452 232,536 234,622l86,0C423,622 468,576 468,497C468,413 417,355 309,355 z M551,51l-43,147C487,271 454,307 404,322C518,343 566,414 566,497C566,604 477,669 324,669l-280,0l0,-41l92,-11C138,531 138,445 138,359l0,-49C138,223 138,136 136,52l-92,-11l0,-41l283,0l0,41l-93,11C232,135 232,219 232,309l44,0C356,309 391,294 410,214l40,-160C462,6 497,-10 562,-10C592,-10 617,-6 636,0l0,41z"/>
<glyph unicode="S" horiz-adv-x="512" d="M250,392C177,420 136,453 136,517C136,594 195,633 272,633C302,633 327,627 353,614l21,-114l62,0l6,131C399,663 345,684 277,684C148,684 52,611 52,495C52,394 122,336 225,295l39,-15C350,247 388,220 388,158C388,80 326,35 232,35C189,35 159,44 127,62l-20,116l-61,0l-6,-140C86,9 160,-15 235,-15C374,-15 473,59 473,178C473,269 423,326 290,377z"/>
<glyph unicode="T" horiz-adv-x="605" d="M505,618l23,-128l57,0l-7,179l-550,0l-8,-179l58,0l22,128l153,0C255,532 255,445 255,359l0,-49C255,223 255,136 253,52l-102,-11l0,-41l303,0l0,41l-102,11C350,138 350,224 350,310l0,49C350,446 350,533 352,618z"/>
<glyph unicode="U" horiz-adv-x="729" d="M695,669l-240,0l0,-41l102,-14l0,-316C557,120 499,56 385,56C283,56 219,110 219,281l0,78C219,446 219,532 221,616l101,12l0,41l-283,0l0,-41l83,-10C124,532 124,445 124,359l0,-107C124,66 223,-15 369,-15C505,-15 608,63 608,274l0,342l87,12z"/>
<glyph unicode="V" horiz-adv-x="673" d="M663,669l-230,0l0,-46l89,-9l-162,-480l-169,481l95,8l0,46l-272,0l0,-41l76,-9l234,-629l41,0l212,626l86,12z"/>
<glyph unicode="W" horiz-adv-x="963" d="M953,669l-227,0l0,-41l93,-13l-128,-462l-149,463l100,12l0,41l-271,0l0,-41l99,-12l-152,-458l-124,459l92,11l0,41l-272,0l0,-41l83,-10l181,-628l40,0l165,523l176,-523l41,0l170,626l83,12z"/>
<glyph unicode="X" horiz-adv-x="648" d="M552,51l-187,312l163,253l90,12l0,41l-230,0l0,-41l84,-13l-132,-211l-127,214l88,10l0,41l-281,0l0,-41l89,-10l175,-293l-178,-272l-95,-12l0,-41l228,0l0,41l-78,11l147,232l139,-232l-91,-11l0,-41l281,0l0,41z"/>
<glyph unicode="Y" horiz-adv-x="631" d="M534,615l87,13l0,41l-228,0l0,-41l90,-12l-143,-301l-139,302l95,11l0,41l-282,0l0,-41l79,-9l177,-359l0,-26C270,191 270,123 268,52l-102,-11l0,-41l302,0l0,41l-102,11C364,124 364,192 364,234l0,31z"/>
<glyph unicode="Z" horiz-adv-x="552" d="M470,178l-27,-128l-312,0l379,583l0,36l-472,0l-8,-179l61,0l27,128l281,0l-379,-583l0,-35l504,0l8,178z"/>
<glyph unicode="a" horiz-adv-x="510" d="M324,105C268,64 248,51 215,51C191,51 170,58 154,74C143,86 135,101 135,127C135,157 145,196 233,230C254,238 289,250 324,259 z M484,65l-5,-6C470,51 458,42 442,42C420,42 409,61 409,101l0,214C409,443 359,491 254,491C152,491 77,441 59,365C62,339 78,322 106,322C133,322 151,339 160,370l20,70C200,444 217,445 231,445C297,445 324,421 324,324l0,-27C284,287 243,275 212,264C76,215 46,168 46,111C46,29 107,-15 180,-15C239,-15 273,12 326,65C335,20 367,-10 423,-10C455,-10 481,1 504,43z"/>
<glyph unicode="b" horiz-adv-x="577" d="M191,376C245,421 284,434 315,434C391,434 442,362 442,234C442,105 381,42 310,42C273,42 232,59 191,98 z M188,579l4,142l-14,8l-153,-45l0,-35l82,-10l0,-429C107,166 106,100 105,50l-75,-14l0,-36l151,-10l6,58l8,0C236,1 281,-15 327,-15C444,-15 532,88 532,242C532,397 448,491 342,491C287,491 235,467 188,414z"/>
<glyph unicode="c" horiz-adv-x="488" d="M433,127C402,77 352,49 295,49C201,49 135,119 135,246C135,374 197,445 283,445C299,445 318,443 337,437l18,-66C361,343 376,323 409,323C435,323 450,335 455,361C443,435 369,491 278,491C158,491 47,394 47,236C47,83 134,-15 271,-15C366,-15 431,31 458,114z"/>
<glyph unicode="d" horiz-adv-x="567" d="M386,99C349,59 316,42 273,42C194,42 135,104 135,236C135,371 199,434 273,434C306,434 341,421 386,382 z M471,49l0,530l4,142l-14,8l-157,-45l0,-35l85,-10l0,-213C348,474 306,491 258,491C135,491 45,386 45,233C45,87 127,-15 249,-15C312,-15 355,11 389,57l7,-67l156,10l0,36z"/>
<glyph unicode="e" horiz-adv-x="510" d="M139,285C150,401 216,445 273,445C334,445 381,394 381,337C381,308 369,285 321,285 z M457,242C461,256 464,275 464,298C464,419 382,491 277,491C151,491 47,385 47,233C47,80 135,-15 270,-15C361,-15 427,30 462,102l-24,19C402,78 363,49 299,49C203,49 139,119 137,242z"/>
<glyph unicode="f" horiz-adv-x="354" d="M35,464l0,-44l82,0l0,-210C117,157 116,103 115,50l-79,-14l0,-36l257,0l0,36l-89,15C203,104 202,157 202,210l0,210l135,0l0,53l-137,0C198,569 213,626 234,661C244,679 256,692 268,701l25,-20C318,661 340,650 365,650C401,650 424,670 426,696C416,734 377,749 329,749C284,749 232,735 189,688C146,642 128,582 118,475z"/>
<glyph unicode="g" horiz-adv-x="518" d="M237,203C176,203 141,253 141,326C141,399 179,450 242,450C304,450 339,401 339,329C339,255 301,203 237,203 z M316,-1C393,-1 415,-32 415,-65C415,-119 357,-164 247,-164C170,-164 117,-138 117,-78C117,-46 132,-22 154,4C169,1 186,-1 205,-1 z M496,478l-15,10l-112,-38C337,477 292,491 241,491C138,491 60,432 60,327C60,259 90,212 137,186C96,157 73,127 73,91C73,61 89,31 127,14C65,-17 34,-53 34,-95C34,-157 99,-209 241,-209C408,-209 491,-124 491,-37C491,33 439,74 330,74l-104,0C168,74 148,92 148,123C148,142 156,159 167,173C189,166 214,163 240,163C343,163 421,222 421,327C421,362 413,391 399,415l97,0z"/>
<glyph unicode="h" horiz-adv-x="602" d="M501,50C500,100 499,164 499,210l0,96C499,437 457,491 371,491C307,491 237,453 188,398l0,181l4,142l-14,8l-153,-45l0,-35l82,-10l0,-429C107,166 106,100 105,50l-75,-14l0,-36l232,0l0,36l-69,14C192,100 191,166 191,210l0,144C244,401 285,420 333,420C392,420 415,389 415,298l0,-88C415,164 414,99 413,50l-74,-14l0,-36l232,0l0,36z"/>
<glyph unicode="i" horiz-adv-x="298" d="M153,598C191,598 220,625 220,663C220,701 191,727 153,727C115,727 86,701 86,663C86,625 115,598 153,598 z M198,50C197,100 196,166 196,210l0,135l3,136l-15,10l-154,-61l0,-35l79,-9C111,346 112,315 112,260l0,-50C112,166 111,100 110,50l-75,-14l0,-36l232,0l0,36z"/>
<glyph unicode="j" horiz-adv-x="278" d="M30,430l0,-35l79,-9C111,346 112,315 112,260l0,-182C112,-97 110,-121 80,-178C77,-184 73,-189 69,-194l-17,13C26,-160 3,-149 -24,-149C-53,-149 -74,-163 -82,-191C-81,-217 -54,-248 16,-248C65,-248 100,-233 132,-198C185,-141 193,-72 193,90l0,255l3,136l-14,10 z M153,727C115,727 86,701 86,663C86,625 115,598 153,598C191,598 220,625 220,663C220,701 191,727 153,727z"/>
<glyph unicode="k" horiz-adv-x="548" d="M482,48l-165,260l109,111l96,13l0,41l-228,0l0,-41l73,-11l-176,-183l0,341l4,142l-14,8l-156,-45l0,-35l82,-10l0,-429C107,158 106,103 105,50l-79,-14l0,-36l246,0l0,36l-79,14C192,93 191,137 191,180l67,68l154,-248l136,0l0,36z"/>
<glyph unicode="l" horiz-adv-x="297" d="M193,50C192,103 191,157 191,210l0,369l4,142l-14,8l-156,-45l0,-35l82,-10l0,-429C107,157 106,104 105,50l-79,-14l0,-36l246,0l0,36z"/>
<glyph unicode="m" horiz-adv-x="902" d="M803,50C802,100 801,164 801,210l0,106C801,440 754,491 673,491C608,491 543,460 491,397C475,463 436,491 373,491C310,491 245,454 197,400l-8,81l-15,10l-139,-61l0,-35l79,-9C116,346 117,316 117,261l0,-51C117,165 116,100 115,50l-74,-14l0,-36l232,0l0,36l-70,14C202,100 201,166 201,210l0,147C251,400 289,420 335,420C393,420 417,389 417,298l0,-88C417,164 416,99 415,50l-74,-14l0,-36l232,0l0,36l-70,14C502,100 501,164 501,210l0,96C501,324 500,340 499,355C550,401 591,420 634,420C691,420 717,392 717,300l0,-90C717,164 716,99 715,50l-74,-14l0,-36l232,0l0,36z"/>
<glyph unicode="n" horiz-adv-x="607" d="M507,50C506,100 505,164 505,210l0,96C505,437 463,491 377,491C313,491 246,454 197,400l-8,81l-15,10l-139,-61l0,-35l79,-9C116,346 117,316 117,261l0,-51C117,165 116,100 115,50l-74,-14l0,-36l232,0l0,36l-70,14C202,100 201,166 201,210l0,147C252,401 292,420 339,420C398,420 421,389 421,298l0,-88C421,164 420,99 419,50l-74,-14l0,-36l232,0l0,36z"/>
<glyph unicode="o" horiz-adv-x="549" d="M275,445C361,445 410,371 410,236C410,102 361,30 275,30C188,30 139,102 139,236C139,371 188,445 275,445 z M275,491C159,491 45,402 45,236C45,71 158,-15 275,-15C391,-15 505,71 505,236C505,402 390,491 275,491z"/>
<glyph unicode="p" horiz-adv-x="583" d="M202,379C253,421 292,434 323,434C396,434 448,362 448,234C448,105 387,42 313,42C276,42 240,58 202,93 z M190,481l-15,10l-139,-61l0,-35l78,-9C116,346 117,316 117,261l0,-289C117,-81 116,-135 115,-189l-80,-14l0,-35l257,0l0,35l-91,15C200,-135 199,-80 199,-28l0,78C241,1 286,-15 332,-15C450,-15 538,88 538,242C538,397 454,491 347,491C293,491 243,467 196,416z"/>
<glyph unicode="q" horiz-adv-x="557" d="M390,104C351,61 317,42 273,42C194,42 135,104 135,236C135,371 199,434 273,434C307,434 343,420 390,378 z M476,-189C475,-135 474,-82 474,-28l0,374l3,135l-16,10l-72,-65C346,474 302,491 254,491C135,491 45,386 45,233C45,87 127,-15 249,-15C308,-15 354,10 393,63l0,-91C393,-81 392,-134 391,-188l-92,-15l0,-35l257,0l0,35z"/>
<glyph unicode="r" horiz-adv-x="423" d="M189,481l-15,10l-139,-61l0,-35l79,-9C116,346 117,316 117,261l0,-51C117,165 116,99 115,49l-72,-13l0,-36l242,0l0,36l-82,15C202,101 201,166 201,210l0,79C220,348 247,390 288,420l7,-7C313,396 331,388 352,388C386,388 412,409 412,442C406,477 373,491 344,491C290,491 235,444 200,364z"/>
<glyph unicode="s" horiz-adv-x="435" d="M228,288C159,313 135,332 135,372C135,417 167,445 228,445C252,445 275,439 298,428l15,-80l52,0l4,102C325,476 283,491 229,491C122,491 54,423 54,346C54,282 102,240 175,213l46,-17C285,172 316,150 316,108C316,62 279,31 203,31C172,31 146,36 122,47l-19,86l-55,0l3,-109C101,-2 144,-15 201,-15C330,-15 395,54 395,129C395,191 359,240 258,277z"/>
<glyph unicode="t" horiz-adv-x="326" d="M299,70C274,51 253,42 232,42C198,42 177,64 177,116l0,304l136,0l0,53l-134,0l5,138l-61,0l-25,-136l-89,-11l0,-44l83,0l0,-231C92,150 91,129 91,104C91,26 135,-10 205,-10C256,-10 298,10 323,43z"/>
<glyph unicode="u" horiz-adv-x="584" d="M481,51l0,280l3,140l-10,10l-145,-14l0,-35l71,-15l-3,-296C351,78 303,56 257,56C203,56 177,87 177,176l0,155l5,140l-10,10l-147,-14l0,-35l71,-15l-3,-252C92,33 142,-15 223,-15C284,-15 346,13 400,79l11,-89l139,10l0,36z"/>
<glyph unicode="v" horiz-adv-x="506" d="M496,473l-189,0l0,-41l81,-12l-112,-321l-122,322l88,11l0,41l-242,0l0,-41l55,-8l181,-434l42,0l164,431l54,11z"/>
<glyph unicode="w" horiz-adv-x="766" d="M756,473l-184,0l0,-41l75,-12l-95,-304l-114,304l75,12l0,41l-221,0l0,-41l74,-11l-112,-307l-104,307l78,11l0,41l-228,0l0,-41l57,-9l161,-433l37,0l128,348l134,-348l37,0l147,430l55,12z"/>
<glyph unicode="x" horiz-adv-x="507" d="M430,48l-140,202l134,172l55,10l0,41l-177,0l0,-41l64,-11l-100,-136l-92,138l55,9l0,41l-214,0l0,-41l62,-9l135,-194l-138,-181l-64,-12l0,-36l193,0l0,36l-72,13l105,144l95,-144l-69,-13l0,-36l235,0l0,36z"/>
<glyph unicode="y" horiz-adv-x="508" d="M498,473l-195,0l0,-41l86,-12l-113,-332l-124,333l87,10l0,42l-241,0l0,-41l58,-9l180,-450C211,-92 184,-145 141,-181l-3,3C108,-149 88,-139 62,-139C32,-139 3,-153 -4,-181C-4,-221 38,-248 88,-248C170,-248 228,-173 292,4l150,416l56,12z"/>
<glyph unicode="z" horiz-adv-x="457" d="M380,163l-30,-121l-218,0l285,395l0,36l-373,0l-8,-150l51,-4l27,111l202,0l-286,-395l0,-35l392,0l10,163z"/>
<glyph unicode="&#xC0;" horiz-adv-x="664" d="M392,720l18,25l-94,94C288,867 271,877 253,877C233,877 216,863 216,843C216,825 228,808 266,788 z M210,265l100,289l98,-289 z M579,50l-215,619l-60,0l-214,-615l-85,-13l0,-41l230,0l0,41l-97,13l56,164l230,0l56,-165l-98,-12l0,-41l272,0l0,41z"/>
<glyph unicode="&#xC1;" horiz-adv-x="664" d="M398,788C436,808 449,825 449,843C449,863 431,877 411,877C393,877 376,867 348,839l-94,-94l18,-25 z M210,265l100,289l98,-289 z M579,50l-215,619l-60,0l-214,-615l-85,-13l0,-41l230,0l0,41l-97,13l56,164l230,0l56,-165l-98,-12l0,-41l272,0l0,41z"/>
<glyph unicode="&#xC2;" horiz-adv-x="664" d="M332,779l119,-72l19,25l-121,115l-34,0l-121,-115l19,-25 z M210,265l100,289l98,-289 z M579,50l-215,619l-60,0l-214,-615l-85,-13l0,-41l230,0l0,41l-97,13l56,164l230,0l56,-165l-98,-12l0,-41l272,0l0,41z"/>
<glyph unicode="&#xC3;" horiz-adv-x="664" d="M201,732C201,778 223,796 249,796C270,796 286,785 313,762C343,736 367,722 402,722C460,722 495,759 495,822C495,830 494,836 493,842l-34,0C459,797 438,779 411,779C390,779 373,790 347,813C318,840 291,852 256,852C199,852 165,818 165,756C165,746 166,738 167,732 z M210,265l100,289l98,-289 z M579,50l-215,619l-60,0l-214,-615l-85,-13l0,-41l230,0l0,41l-97,13l56,164l230,0l56,-165l-98,-12l0,-41l272,0l0,41z"/>
<glyph unicode="&#xC4;" horiz-adv-x="664" d="M444,737C475,737 502,761 502,792C502,824 475,847 444,847C412,847 387,824 387,792C387,761 412,737 444,737 z M221,737C253,737 278,761 278,792C278,824 253,847 221,847C190,847 163,824 163,792C163,761 190,737 221,737 z M210,265l100,289l98,-289 z M579,50l-215,619l-60,0l-214,-615l-85,-13l0,-41l230,0l0,41l-97,13l56,164l230,0l56,-165l-98,-12l0,-41l272,0l0,41z"/>
<glyph unicode="&#x100;" horiz-adv-x="664" d="M482,811l-301,0l0,-62l301,0 z M210,265l100,289l98,-289 z M579,50l-215,619l-60,0l-214,-615l-85,-13l0,-41l230,0l0,41l-97,13l56,164l230,0l56,-165l-98,-12l0,-41l272,0l0,41z"/>
<glyph unicode="&#x102;" horiz-adv-x="664" d="M450,859C435,814 396,781 336,781C276,781 240,814 223,860l-31,-11C201,790 244,721 336,721C428,721 471,790 480,849 z M210,265l100,289l98,-289 z M579,50l-215,619l-60,0l-214,-615l-85,-13l0,-41l230,0l0,41l-97,13l56,164l230,0l56,-165l-98,-12l0,-41l272,0l0,41z"/>
<glyph unicode="&#xC5;" horiz-adv-x="664" d="M332,870C366,870 384,843 384,814C384,786 365,757 332,757C298,757 280,786 280,814C280,843 299,870 332,870 z M332,721C381,721 429,757 429,814C429,875 381,908 332,908C283,908 235,873 235,814C235,755 283,721 332,721 z M210,265l100,289l98,-289 z M579,50l-215,619l-60,0l-214,-615l-85,-13l0,-41l230,0l0,41l-97,13l56,164l230,0l56,-165l-98,-12l0,-41l272,0l0,41z"/>
<glyph unicode="&#x104;" horiz-adv-x="664" d="M210,265l100,289l98,-289 z M654,0l0,41l-75,9l-215,619l-60,0l-214,-615l-85,-13l0,-41l230,0l0,41l-97,13l56,164l230,0l56,-165l-98,-12l0,-41l146,0C484,-30 449,-79 449,-132C449,-187 488,-221 544,-221C579,-221 623,-207 646,-175l-13,25C613,-161 594,-164 580,-164C542,-164 513,-139 513,-96C513,-62 531,-27 561,0z"/>
<glyph unicode="&#xC6;" horiz-adv-x="921" d="M449,613l7,0l0,-318l-179,0 z M830,178l-22,-128l-256,0C550,136 550,223 550,318l150,0l13,-94l46,0l0,237l-46,0l-14,-96l-149,0C550,450 550,535 552,618l236,0l22,-127l57,0l-7,178l-541,0l0,-41l77,-9l-308,-567l-83,-11l0,-41l230,0l0,41l-88,13l105,194l204,0C456,178 455,113 454,51l-86,-10l0,-41l512,0l7,178z"/>
<glyph unicode="&#xC7;" horiz-adv-x="631" d="M592,178l-63,0l-20,-116C469,43 428,35 390,35C253,35 155,140 155,334C155,529 263,633 397,633C432,633 465,626 499,609l20,-119l63,0l-4,146C510,675 440,684 386,684C190,684 47,537 47,334C47,141 168,2 352,-14l-11,-73C389,-93 412,-107 412,-138C412,-166 393,-184 355,-184C336,-184 322,-183 306,-181l-7,-31C312,-216 334,-221 362,-221C435,-221 474,-187 474,-140C474,-92 434,-66 383,-58l5,43C457,-15 526,-1 588,33z"/>
<glyph unicode="&#x106;" horiz-adv-x="631" d="M451,788C489,808 502,825 502,843C502,863 484,877 464,877C446,877 429,867 401,839l-94,-94l18,-25 z M529,178l-20,-116C469,43 428,35 390,35C253,35 155,140 155,334C155,529 263,633 397,633C432,633 465,626 499,609l20,-119l63,0l-4,146C510,675 440,684 386,684C190,684 47,537 47,334C47,129 183,-15 386,-15C456,-15 525,-1 588,33l4,145z"/>
<glyph unicode="&#x10C;" horiz-adv-x="631" d="M413,728l101,118l-24,21l-114,-85l-114,85l-24,-21l101,-118 z M529,178l-20,-116C469,43 428,35 390,35C253,35 155,140 155,334C155,529 263,633 397,633C432,633 465,626 499,609l20,-119l63,0l-4,146C510,675 440,684 386,684C190,684 47,537 47,334C47,129 183,-15 386,-15C456,-15 525,-1 588,33l4,145z"/>
<glyph unicode="&#x10E;" horiz-adv-x="709" d="M391,728l101,118l-24,21l-114,-85l-114,85l-24,-21l101,-118 z M234,47C232,135 232,224 232,322l0,37C232,448 232,536 234,622l88,0C461,622 553,522 553,334C553,147 461,47 323,47 z M44,669l0,-41l92,-11C138,531 138,445 138,359l0,-37C138,225 138,137 136,52l-92,-11l0,-41l276,0C508,0 662,118 662,335C662,551 524,669 340,669z"/>
<glyph unicode="&#x110;" horiz-adv-x="709" d="M234,47C232,134 232,223 232,319l154,0l0,47l-154,0C232,452 232,538 234,622l88,0C461,622 553,522 553,334C553,147 461,47 323,47 z M44,669l0,-41l92,-11C138,534 138,450 138,366l-94,0l0,-47l94,0C138,223 138,136 136,52l-92,-11l0,-41l276,0C508,0 662,118 662,335C662,551 524,669 340,669z"/>
<glyph unicode="&#xC8;" horiz-adv-x="604" d="M362,720l18,25l-94,94C258,867 241,877 223,877C203,877 186,863 186,843C186,825 198,808 236,788 z M512,178l-22,-128l-256,0C232,136 232,223 232,318l150,0l13,-94l45,0l0,237l-45,0l-14,-96l-149,0C232,450 232,535 234,618l236,0l22,-127l57,0l-7,178l-498,0l0,-41l92,-11C138,531 138,445 138,359l0,-49C138,223 138,136 136,52l-92,-11l0,-41l518,0l7,178z"/>
<glyph unicode="&#xC9;" horiz-adv-x="604" d="M408,788C446,808 459,825 459,843C459,863 441,877 421,877C403,877 386,867 358,839l-94,-94l18,-25 z M512,178l-22,-128l-256,0C232,136 232,223 232,318l150,0l13,-94l45,0l0,237l-45,0l-14,-96l-149,0C232,450 232,535 234,618l236,0l22,-127l57,0l-7,178l-498,0l0,-41l92,-11C138,531 138,445 138,359l0,-49C138,223 138,136 136,52l-92,-11l0,-41l518,0l7,178z"/>
<glyph unicode="&#xCA;" horiz-adv-x="604" d="M341,799l119,-72l19,25l-121,115l-34,0l-121,-115l19,-25 z M512,178l-22,-128l-256,0C232,136 232,223 232,318l150,0l13,-94l45,0l0,237l-45,0l-14,-96l-149,0C232,450 232,535 234,618l236,0l22,-127l57,0l-7,178l-498,0l0,-41l92,-11C138,531 138,445 138,359l0,-49C138,223 138,136 136,52l-92,-11l0,-41l518,0l7,178z"/>
<glyph unicode="&#x11A;" horiz-adv-x="604" d="M378,728l101,118l-24,21l-114,-85l-114,85l-24,-21l101,-118 z M512,178l-22,-128l-256,0C232,136 232,223 232,318l150,0l13,-94l45,0l0,237l-45,0l-14,-96l-149,0C232,450 232,535 234,618l236,0l22,-127l57,0l-7,178l-498,0l0,-41l92,-11C138,531 138,445 138,359l0,-49C138,223 138,136 136,52l-92,-11l0,-41l518,0l7,178z"/>
<glyph unicode="&#xCB;" horiz-adv-x="604" d="M436,737C467,737 494,761 494,792C494,824 467,847 436,847C404,847 379,824 379,792C379,761 404,737 436,737 z M213,737C245,737 270,761 270,792C270,824 245,847 213,847C182,847 155,824 155,792C155,761 182,737 213,737 z M512,178l-22,-128l-256,0C232,136 232,223 232,318l150,0l13,-94l45,0l0,237l-45,0l-14,-96l-149,0C232,450 232,535 234,618l236,0l22,-127l57,0l-7,178l-498,0l0,-41l92,-11C138,531 138,445 138,359l0,-49C138,223 138,136 136,52l-92,-11l0,-41l518,0l7,178z"/>
<glyph unicode="&#x112;" horiz-adv-x="604" d="M491,811l-301,0l0,-62l301,0 z M512,178l-22,-128l-256,0C232,136 232,223 232,318l150,0l13,-94l45,0l0,237l-45,0l-14,-96l-149,0C232,450 232,535 234,618l236,0l22,-127l57,0l-7,178l-498,0l0,-41l92,-11C138,531 138,445 138,359l0,-49C138,223 138,136 136,52l-92,-11l0,-41l518,0l7,178z"/>
<glyph unicode="&#x116;" horiz-adv-x="604" d="M303,736C341,736 370,763 370,800C370,838 341,864 303,864C265,864 236,838 236,800C236,763 265,736 303,736 z M512,178l-22,-128l-256,0C232,136 232,223 232,318l150,0l13,-94l45,0l0,237l-45,0l-14,-96l-149,0C232,450 232,535 234,618l236,0l22,-127l57,0l-7,178l-498,0l0,-41l92,-11C138,531 138,445 138,359l0,-49C138,223 138,136 136,52l-92,-11l0,-41l518,0l7,178z"/>
<glyph unicode="&#x118;" horiz-adv-x="604" d="M562,0l7,178l-57,0l-22,-128l-256,0C232,136 232,223 232,318l150,0l13,-94l45,0l0,237l-45,0l-14,-96l-149,0C232,450 232,535 234,618l236,0l22,-127l57,0l-7,178l-498,0l0,-41l92,-11C138,531 138,445 138,359l0,-49C138,223 138,136 136,52l-92,-11l0,-41l407,0C407,-30 372,-79 372,-132C372,-187 411,-221 467,-221C502,-221 546,-207 569,-175l-13,25C536,-161 517,-164 503,-164C465,-164 436,-139 436,-96C436,-62 454,-27 484,0z"/>
<glyph unicode="&#x11E;" horiz-adv-x="681" d="M504,869C489,824 450,791 390,791C330,791 294,824 277,870l-31,-11C255,800 298,731 390,731C482,731 525,800 534,859 z M666,317l-262,0l0,-40l103,-9C508,209 509,148 509,88l0,-32C474,42 442,36 403,36C249,36 155,145 155,334C155,525 257,633 396,633C437,633 474,626 510,607l20,-116l63,0l-4,145C531,669 469,684 388,684C184,684 47,535 47,334C47,134 183,-15 383,-15C466,-15 534,8 603,44l0,44C603,150 604,211 605,271l61,6z"/>
<glyph unicode="&#x120;" horiz-adv-x="681" d="M393,736C431,736 460,763 460,800C460,838 431,864 393,864C355,864 326,838 326,800C326,763 355,736 393,736 z M666,317l-262,0l0,-40l103,-9C508,209 509,148 509,88l0,-32C474,42 442,36 403,36C249,36 155,145 155,334C155,525 257,633 396,633C437,633 474,626 510,607l20,-116l63,0l-4,145C531,669 469,684 388,684C184,684 47,535 47,334C47,134 183,-15 383,-15C466,-15 534,8 603,44l0,44C603,150 604,211 605,271l61,6z"/>
<glyph unicode="&#x122;" horiz-adv-x="681" d="M313,-252C384,-228 447,-188 447,-117C447,-104 445,-92 438,-71C424,-57 408,-51 394,-51C368,-51 346,-70 346,-97C346,-123 366,-145 393,-157C371,-190 343,-208 303,-223 z M666,317l-262,0l0,-40l103,-9C508,209 509,148 509,88l0,-32C474,42 442,36 403,36C249,36 155,145 155,334C155,525 257,633 396,633C437,633 474,626 510,607l20,-116l63,0l-4,145C531,669 469,684 388,684C184,684 47,535 47,334C47,134 183,-15 383,-15C466,-15 534,8 603,44l0,44C603,150 604,211 605,271l61,6z"/>
<glyph unicode="&#xCC;" horiz-adv-x="370" d="M245,720l18,25l-94,94C141,867 124,877 106,877C86,877 69,863 69,843C69,825 81,808 119,788 z M327,628l0,41l-283,0l0,-41l92,-11C138,531 138,445 138,359l0,-49C138,223 138,136 136,52l-92,-11l0,-41l283,0l0,41l-93,11C232,138 232,224 232,310l0,49C232,446 232,533 234,617z"/>
<glyph unicode="&#xCD;" horiz-adv-x="370" d="M272,788C310,808 323,825 323,843C323,863 305,877 285,877C267,877 250,867 222,839l-94,-94l18,-25 z M327,628l0,41l-283,0l0,-41l92,-11C138,531 138,445 138,359l0,-49C138,223 138,136 136,52l-92,-11l0,-41l283,0l0,41l-93,11C232,138 232,224 232,310l0,49C232,446 232,533 234,617z"/>
<glyph unicode="&#xCE;" horiz-adv-x="370" d="M185,799l119,-72l19,25l-121,115l-34,0l-121,-115l19,-25 z M327,628l0,41l-283,0l0,-41l92,-11C138,531 138,445 138,359l0,-49C138,223 138,136 136,52l-92,-11l0,-41l283,0l0,41l-93,11C232,138 232,224 232,310l0,49C232,446 232,533 234,617z"/>
<glyph unicode="&#xCF;" horiz-adv-x="370" d="M130,792C130,824 105,847 73,847C42,847 15,824 15,792C15,761 42,737 73,737C105,737 130,761 130,792 z M327,669l-283,0l0,-41l92,-11C138,531 138,445 138,359l0,-49C138,223 138,136 136,52l-92,-11l0,-41l283,0l0,41l-93,11C232,138 232,224 232,310l0,49C232,446 232,533 234,617l93,11 z M296,847C264,847 239,824 239,792C239,761 264,737 296,737C327,737 354,761 354,792C354,824 327,847 296,847z"/>
<glyph unicode="&#x12A;" horiz-adv-x="370" d="M327,669l-283,0l0,-41l92,-11C138,531 138,445 138,359l0,-49C138,223 138,136 136,52l-92,-11l0,-41l283,0l0,41l-93,11C232,138 232,224 232,310l0,49C232,446 232,533 234,617l93,11 z M35,811l0,-62l301,0l0,62z"/>
<glyph unicode="&#x130;" horiz-adv-x="370" d="M185,736C223,736 252,763 252,800C252,838 223,864 185,864C147,864 118,838 118,800C118,763 147,736 185,736 z M327,628l0,41l-283,0l0,-41l92,-11C138,531 138,445 138,359l0,-49C138,223 138,136 136,52l-92,-11l0,-41l283,0l0,41l-93,11C232,138 232,224 232,310l0,49C232,446 232,533 234,617z"/>
<glyph unicode="&#x12E;" horiz-adv-x="370" d="M327,628l0,41l-283,0l0,-41l92,-11C138,531 138,445 138,359l0,-49C138,223 138,136 136,52l-92,-11l0,-41l144,0C144,-30 109,-79 109,-132C109,-187 148,-221 204,-221C239,-221 283,-207 306,-175l-13,25C273,-161 254,-164 240,-164C202,-164 173,-139 173,-96C173,-62 191,-27 221,0l106,0l0,41l-93,11C232,138 232,224 232,310l0,49C232,446 232,533 234,617z"/>
<glyph unicode="&#x136;" horiz-adv-x="668" d="M280,-252C351,-228 414,-188 414,-117C414,-104 412,-92 405,-71C391,-57 375,-51 361,-51C335,-51 313,-70 313,-97C313,-123 333,-145 360,-157C338,-190 310,-208 270,-223 z M585,51l-206,359l170,205l98,13l0,41l-230,0l0,-41l73,-11l-260,-319l0,61C230,446 230,533 232,617l95,11l0,41l-283,0l0,-41l92,-11C138,531 138,445 138,359l0,-49C138,223 138,136 136,52l-92,-11l0,-41l283,0l0,41l-95,11C230,115 230,177 230,232l94,112l162,-293l-81,-10l0,-41l258,0l0,41z"/>
<glyph unicode="&#x139;" horiz-adv-x="596" d="M323,788C361,808 374,825 374,843C374,863 356,877 336,877C318,877 301,867 273,839l-94,-94l18,-25 z M491,188l-29,-138l-228,0C232,135 232,222 232,310l0,49C232,445 232,531 234,617l93,11l0,41l-283,0l0,-41l92,-11C138,533 138,446 138,359l0,-49C138,224 138,138 136,52l-92,-11l0,-41l499,0l10,188z"/>
<glyph unicode="&#x13D;" horiz-adv-x="596" d="M483,574C499,621 516,674 516,703C516,725 506,740 480,740C465,740 450,736 434,727l-3,-209l32,0 z M491,188l-29,-138l-228,0C232,135 232,222 232,310l0,49C232,445 232,531 234,617l93,11l0,41l-283,0l0,-41l92,-11C138,533 138,446 138,359l0,-49C138,224 138,138 136,52l-92,-11l0,-41l499,0l10,188z"/>
<glyph unicode="&#x13F;" horiz-adv-x="596" d="M469,309C509,309 540,341 540,380C540,420 509,452 469,452C429,452 398,420 398,380C398,341 429,309 469,309 z M491,188l-29,-138l-228,0C232,135 232,222 232,310l0,49C232,445 232,531 234,617l93,11l0,41l-283,0l0,-41l92,-11C138,533 138,446 138,359l0,-49C138,224 138,138 136,52l-92,-11l0,-41l499,0l10,188z"/>
<glyph unicode="&#x141;" horiz-adv-x="596" d="M491,188l-29,-138l-228,0C232,134 232,220 232,306l164,94l0,57l-164,-94C232,447 232,533 234,617l93,11l0,41l-283,0l0,-41l92,-11C138,533 138,446 138,359l0,-44l-94,-54l0,-56l94,53C138,189 138,120 136,52l-92,-11l0,-41l499,0l10,188z"/>
<glyph unicode="&#x143;" horiz-adv-x="737" d="M454,773C492,793 505,810 505,828C505,848 487,862 467,862C449,862 432,852 404,824l-94,-94l18,-25 z M698,669l-242,0l0,-41l106,-13l0,-442l-364,496l-154,0l0,-41l71,-9l10,-13l0,-553l-86,-12l0,-41l242,0l0,41l-106,14l0,483l404,-548l34,0l0,625l85,13z"/>
<glyph unicode="&#x147;" horiz-adv-x="737" d="M401,718l101,118l-24,21l-114,-85l-114,85l-24,-21l101,-118 z M698,669l-242,0l0,-41l106,-13l0,-442l-364,496l-154,0l0,-41l71,-9l10,-13l0,-553l-86,-12l0,-41l242,0l0,41l-106,14l0,483l404,-548l34,0l0,625l85,13z"/>
<glyph unicode="&#xD1;" horiz-adv-x="737" d="M246,723C246,769 268,787 294,787C315,787 331,776 358,753C388,727 412,713 447,713C505,713 540,750 540,813C540,821 539,827 538,833l-34,0C504,788 483,770 456,770C435,770 418,781 392,804C363,831 336,843 301,843C244,843 210,809 210,747C210,737 211,729 212,723 z M698,669l-242,0l0,-41l106,-13l0,-442l-364,496l-154,0l0,-41l71,-9l10,-13l0,-553l-86,-12l0,-41l242,0l0,41l-106,14l0,483l404,-548l34,0l0,625l85,13z"/>
<glyph unicode="&#x145;" horiz-adv-x="737" d="M323,-242C394,-218 457,-178 457,-107C457,-94 455,-82 448,-61C434,-47 418,-41 404,-41C378,-41 356,-60 356,-87C356,-113 376,-135 403,-147C381,-180 353,-198 313,-213 z M698,669l-242,0l0,-41l106,-13l0,-442l-364,496l-154,0l0,-41l71,-9l10,-13l0,-553l-86,-12l0,-41l242,0l0,41l-106,14l0,483l404,-548l34,0l0,625l85,13z"/>
<glyph unicode="&#x1E44;" horiz-adv-x="737" d="M368,717C406,717 435,744 435,781C435,819 406,845 368,845C330,845 301,819 301,781C301,744 330,717 368,717 z M698,669l-242,0l0,-41l106,-13l0,-442l-364,496l-154,0l0,-41l71,-9l10,-13l0,-553l-86,-12l0,-41l242,0l0,41l-106,14l0,483l404,-548l34,0l0,625l85,13z"/>
<glyph unicode="&#xD2;" horiz-adv-x="707" d="M431,745l-94,94C309,867 292,877 274,877C254,877 237,863 237,843C237,825 249,808 287,788l126,-68 z M156,334C156,484 215,633 354,633C493,633 552,484 552,334C552,185 493,35 354,35C215,35 156,185 156,334 z M354,684C200,684 47,554 47,334C47,106 199,-15 354,-15C509,-15 660,115 660,334C660,562 508,684 354,684z"/>
<glyph unicode="&#xD3;" horiz-adv-x="707" d="M295,745l18,-25l126,68C477,808 490,825 490,843C490,863 472,877 452,877C434,877 417,867 389,839 z M156,334C156,484 215,633 354,633C493,633 552,484 552,334C552,185 493,35 354,35C215,35 156,185 156,334 z M354,684C200,684 47,554 47,334C47,106 199,-15 354,-15C509,-15 660,115 660,334C660,562 508,684 354,684z"/>
<glyph unicode="&#xD4;" horiz-adv-x="707" d="M353,799l119,-72l19,25l-121,115l-34,0l-121,-115l19,-25 z M354,35C215,35 156,185 156,334C156,484 215,633 354,633C493,633 552,484 552,334C552,185 493,35 354,35 z M354,684C200,684 47,554 47,334C47,106 199,-15 354,-15C509,-15 660,115 660,334C660,562 508,684 354,684z"/>
<glyph unicode="&#xD5;" horiz-adv-x="707" d="M156,334C156,484 215,633 354,633C493,633 552,484 552,334C552,185 493,35 354,35C215,35 156,185 156,334 z M354,684C200,684 47,554 47,334C47,106 199,-15 354,-15C509,-15 660,115 660,334C660,562 508,684 354,684 z M423,723C481,723 516,760 516,823C516,831 515,837 514,843l-34,0C480,798 459,780 432,780C411,780 394,791 368,814C339,841 312,853 277,853C220,853 186,819 186,757C186,747 187,739 188,733l34,0C222,779 244,797 270,797C291,797 307,786 334,763C364,737 388,723 423,723z"/>
<glyph unicode="&#xD6;" horiz-adv-x="707" d="M241,737C273,737 298,761 298,792C298,824 273,847 241,847C210,847 183,824 183,792C183,761 210,737 241,737 z M464,737C495,737 522,761 522,792C522,824 495,847 464,847C432,847 407,824 407,792C407,761 432,737 464,737 z M156,334C156,484 215,633 354,633C493,633 552,484 552,334C552,185 493,35 354,35C215,35 156,185 156,334 z M354,684C200,684 47,554 47,334C47,106 199,-15 354,-15C509,-15 660,115 660,334C660,562 508,684 354,684z"/>
<glyph unicode="&#x14C;" horiz-adv-x="707" d="M156,334C156,484 215,633 354,633C493,633 552,484 552,334C552,185 493,35 354,35C215,35 156,185 156,334 z M354,684C200,684 47,554 47,334C47,106 199,-15 354,-15C509,-15 660,115 660,334C660,562 508,684 354,684 z M202,749l301,0l0,62l-301,0z"/>
<glyph unicode="&#x150;" horiz-adv-x="707" d="M241,729l26,-18l96,99C380,827 386,842 386,854C386,874 369,887 350,887C334,887 313,877 298,846 z M394,729l26,-18l96,99C532,827 538,842 538,854C538,874 522,887 502,887C486,887 465,877 450,846 z M156,334C156,484 215,633 354,633C493,633 552,484 552,334C552,185 493,35 354,35C215,35 156,185 156,334 z M354,684C200,684 47,554 47,334C47,106 199,-15 354,-15C509,-15 660,115 660,334C660,562 508,684 354,684z"/>
<glyph unicode="&#xD8;" horiz-adv-x="707" d="M523,503C543,453 552,394 552,334C552,185 493,35 354,35C288,35 240,69 208,120 z M182,174C164,222 156,278 156,334C156,484 215,633 354,633C417,633 463,603 495,556 z M646,654l-43,34l-60,-73C489,660 422,684 354,684C200,684 47,554 47,334C47,235 76,156 121,99l-70,-85l43,-34l64,79C214,10 284,-15 354,-15C509,-15 660,115 660,334C660,436 629,517 582,575z"/>
<glyph unicode="&#x152;" horiz-adv-x="938" d="M472,310C472,223 472,136 470,52C437,41 406,35 375,35C218,35 155,181 155,334C155,487 218,633 375,633C406,633 437,628 470,617C472,531 472,445 472,359 z M846,178l-22,-128l-255,0C567,136 567,223 567,318l148,0l13,-94l46,0l0,237l-46,0l-14,-96l-147,0C567,450 567,535 569,618l235,0l22,-127l57,0l-7,178l-357,0C463,680 416,684 381,684C201,684 47,557 47,334C47,111 201,-15 381,-15C416,-15 463,-11 519,0l377,0l7,178z"/>
<glyph unicode="&#x154;" horiz-adv-x="651" d="M416,788C454,808 467,825 467,843C467,863 449,877 429,877C411,877 394,867 366,839l-94,-94l18,-25 z M232,355C232,452 232,536 234,622l86,0C423,622 468,576 468,497C468,413 417,355 309,355 z M551,51l-43,147C487,271 454,307 404,322C518,343 566,414 566,497C566,604 477,669 324,669l-280,0l0,-41l92,-11C138,531 138,445 138,359l0,-49C138,223 138,136 136,52l-92,-11l0,-41l283,0l0,41l-93,11C232,135 232,219 232,309l44,0C356,309 391,294 410,214l40,-160C462,6 497,-10 562,-10C592,-10 617,-6 636,0l0,41z"/>
<glyph unicode="&#x158;" horiz-adv-x="651" d="M357,728l101,118l-24,21l-114,-85l-114,85l-24,-21l101,-118 z M232,355C232,452 232,536 234,622l86,0C423,622 468,576 468,497C468,413 417,355 309,355 z M551,51l-43,147C487,271 454,307 404,322C518,343 566,414 566,497C566,604 477,669 324,669l-280,0l0,-41l92,-11C138,531 138,445 138,359l0,-49C138,223 138,136 136,52l-92,-11l0,-41l283,0l0,41l-93,11C232,135 232,219 232,309l44,0C356,309 391,294 410,214l40,-160C462,6 497,-10 562,-10C592,-10 617,-6 636,0l0,41z"/>
<glyph unicode="&#x156;" horiz-adv-x="651" d="M278,-243C349,-219 412,-179 412,-108C412,-95 410,-83 403,-62C389,-48 373,-42 359,-42C333,-42 311,-61 311,-88C311,-114 331,-136 358,-148C336,-181 308,-199 268,-214 z M232,355C232,452 232,536 234,622l86,0C423,622 468,576 468,497C468,413 417,355 309,355 z M551,51l-43,147C487,271 454,307 404,322C518,343 566,414 566,497C566,604 477,669 324,669l-280,0l0,-41l92,-11C138,531 138,445 138,359l0,-49C138,223 138,136 136,52l-92,-11l0,-41l283,0l0,41l-93,11C232,135 232,219 232,309l44,0C356,309 391,294 410,214l40,-160C462,6 497,-10 562,-10C592,-10 617,-6 636,0l0,41z"/>
<glyph unicode="&#x15A;" horiz-adv-x="512" d="M352,788C390,808 403,825 403,843C403,863 385,877 365,877C347,877 330,867 302,839l-94,-94l18,-25 z M250,392C177,420 136,453 136,517C136,594 195,633 272,633C302,633 327,627 353,614l21,-114l62,0l6,131C399,663 345,684 277,684C148,684 52,611 52,495C52,394 122,336 225,295l39,-15C350,247 388,220 388,158C388,80 326,35 232,35C189,35 159,44 127,62l-20,116l-61,0l-6,-140C86,9 160,-15 235,-15C374,-15 473,59 473,178C473,269 423,326 290,377z"/>
<glyph unicode="&#x160;" horiz-adv-x="512" d="M310,728l101,118l-24,21l-114,-85l-114,85l-24,-21l101,-118 z M250,392C177,420 136,453 136,517C136,594 195,633 272,633C302,633 327,627 353,614l21,-114l62,0l6,131C399,663 345,684 277,684C148,684 52,611 52,495C52,394 122,336 225,295l39,-15C350,247 388,220 388,158C388,80 326,35 232,35C189,35 159,44 127,62l-20,116l-61,0l-6,-140C86,9 160,-15 235,-15C374,-15 473,59 473,178C473,269 423,326 290,377z"/>
<glyph unicode="&#x15E;" horiz-adv-x="512" d="M250,392C177,420 136,453 136,517C136,594 195,633 272,633C302,633 327,627 353,614l21,-114l62,0l6,131C399,663 345,684 277,684C148,684 52,611 52,495C52,394 122,336 225,295l39,-15C350,247 388,220 388,158C388,80 326,35 232,35C189,35 159,44 127,62l-20,116l-61,0l-6,-140C86,9 159,-15 233,-15l-10,-72C271,-93 294,-107 294,-138C294,-166 275,-184 237,-184C218,-184 204,-183 188,-181l-7,-31C194,-216 216,-221 244,-221C317,-221 356,-187 356,-140C356,-92 316,-66 265,-58l5,45C390,-2 473,69 473,178C473,269 423,326 290,377z"/>
<glyph unicode="&#x218;" horiz-adv-x="512" d="M182,-252C253,-228 316,-188 316,-117C316,-104 314,-92 307,-71C293,-57 277,-51 263,-51C237,-51 215,-70 215,-97C215,-123 235,-145 262,-157C240,-190 212,-208 172,-223 z M250,392C177,420 136,453 136,517C136,594 195,633 272,633C302,633 327,627 353,614l21,-114l62,0l6,131C399,663 345,684 277,684C148,684 52,611 52,495C52,394 122,336 225,295l39,-15C350,247 388,220 388,158C388,80 326,35 232,35C189,35 159,44 127,62l-20,116l-61,0l-6,-140C86,9 160,-15 235,-15C374,-15 473,59 473,178C473,269 423,326 290,377z"/>
<glyph unicode="&#x164;" horiz-adv-x="605" d="M340,728l101,118l-24,21l-114,-85l-114,85l-24,-21l101,-118 z M505,618l23,-128l57,0l-7,179l-550,0l-8,-179l58,0l22,128l153,0C255,532 255,445 255,359l0,-49C255,223 255,136 253,52l-102,-11l0,-41l303,0l0,41l-102,11C350,138 350,224 350,310l0,49C350,446 350,533 352,618z"/>
<glyph unicode="&#x162;" horiz-adv-x="605" d="M505,618l23,-128l57,0l-7,179l-550,0l-8,-179l58,0l22,128l153,0C255,532 255,445 255,359l0,-49C255,223 255,136 253,52l-102,-11l0,-41l132,0l-13,-87C318,-93 341,-107 341,-138C341,-166 322,-184 284,-184C265,-184 251,-183 235,-181l-7,-31C241,-216 263,-221 291,-221C364,-221 403,-187 403,-140C403,-92 363,-66 312,-58l7,58l135,0l0,41l-102,11C350,138 350,224 350,310l0,49C350,446 350,533 352,618z"/>
<glyph unicode="&#x21A;" horiz-adv-x="605" d="M223,-252C294,-228 357,-188 357,-117C357,-104 355,-92 348,-71C334,-57 318,-51 304,-51C278,-51 256,-70 256,-97C256,-123 276,-145 303,-157C281,-190 253,-208 213,-223 z M505,618l23,-128l57,0l-7,179l-550,0l-8,-179l58,0l22,128l153,0C255,532 255,445 255,359l0,-49C255,223 255,136 253,52l-102,-11l0,-41l303,0l0,41l-102,11C350,138 350,224 350,310l0,49C350,446 350,533 352,618z"/>
<glyph unicode="&#xD9;" horiz-adv-x="729" d="M425,711l18,25l-94,94C321,858 304,868 286,868C266,868 249,854 249,834C249,816 261,799 299,779 z M695,669l-240,0l0,-41l102,-14l0,-316C557,120 499,56 385,56C283,56 219,110 219,281l0,78C219,446 219,532 221,616l101,12l0,41l-283,0l0,-41l83,-10C124,532 124,445 124,359l0,-107C124,66 223,-15 369,-15C505,-15 608,63 608,274l0,342l87,12z"/>
<glyph unicode="&#xDA;" horiz-adv-x="729" d="M462,779C500,799 513,816 513,834C513,854 495,868 475,868C457,868 440,858 412,830l-94,-94l18,-25 z M695,669l-240,0l0,-41l102,-14l0,-316C557,120 499,56 385,56C283,56 219,110 219,281l0,78C219,446 219,532 221,616l101,12l0,41l-283,0l0,-41l83,-10C124,532 124,445 124,359l0,-107C124,66 223,-15 369,-15C505,-15 608,63 608,274l0,342l87,12z"/>
<glyph unicode="&#xDB;" horiz-adv-x="729" d="M381,790l119,-72l19,25l-121,115l-34,0l-121,-115l19,-25 z M695,669l-240,0l0,-41l102,-14l0,-316C557,120 499,56 385,56C283,56 219,110 219,281l0,78C219,446 219,532 221,616l101,12l0,41l-283,0l0,-41l83,-10C124,532 124,445 124,359l0,-107C124,66 223,-15 369,-15C505,-15 608,63 608,274l0,342l87,12z"/>
<glyph unicode="&#xDC;" horiz-adv-x="729" d="M497,737C528,737 555,761 555,792C555,824 528,847 497,847C465,847 440,824 440,792C440,761 465,737 497,737 z M274,737C306,737 331,761 331,792C331,824 306,847 274,847C243,847 216,824 216,792C216,761 243,737 274,737 z M695,669l-240,0l0,-41l102,-14l0,-316C557,120 499,56 385,56C283,56 219,110 219,281l0,78C219,446 219,532 221,616l101,12l0,41l-283,0l0,-41l83,-10C124,532 124,445 124,359l0,-107C124,66 223,-15 369,-15C505,-15 608,63 608,274l0,342l87,12z"/>
<glyph unicode="&#x16A;" horiz-adv-x="729" d="M535,811l-301,0l0,-62l301,0 z M695,669l-240,0l0,-41l102,-14l0,-316C557,120 499,56 385,56C283,56 219,110 219,281l0,78C219,446 219,532 221,616l101,12l0,41l-283,0l0,-41l83,-10C124,532 124,445 124,359l0,-107C124,66 223,-15 369,-15C505,-15 608,63 608,274l0,342l87,12z"/>
<glyph unicode="&#x16E;" horiz-adv-x="729" d="M385,870C419,870 437,843 437,814C437,786 418,757 385,757C351,757 333,786 333,814C333,843 352,870 385,870 z M385,721C434,721 482,757 482,814C482,875 434,908 385,908C336,908 288,873 288,814C288,755 336,721 385,721 z M695,669l-240,0l0,-41l102,-14l0,-316C557,120 499,56 385,56C283,56 219,110 219,281l0,78C219,446 219,532 221,616l101,12l0,41l-283,0l0,-41l83,-10C124,532 124,445 124,359l0,-107C124,66 223,-15 369,-15C505,-15 608,63 608,274l0,342l87,12z"/>
<glyph unicode="&#x170;" horiz-adv-x="729" d="M555,810C571,827 577,842 577,854C577,874 561,887 541,887C525,887 504,877 489,846l-56,-117l26,-18 z M402,810C419,827 425,842 425,854C425,874 408,887 389,887C373,887 352,877 337,846l-57,-117l26,-18 z M695,669l-240,0l0,-41l102,-14l0,-316C557,120 499,56 385,56C283,56 219,110 219,281l0,78C219,446 219,532 221,616l101,12l0,41l-283,0l0,-41l83,-10C124,532 124,445 124,359l0,-107C124,66 223,-15 369,-15C505,-15 608,63 608,274l0,342l87,12z"/>
<glyph unicode="&#x172;" horiz-adv-x="729" d="M695,669l-240,0l0,-41l102,-13l0,-317C557,120 499,56 381,56C283,56 219,110 219,281l0,78C219,445 219,531 221,616l101,12l0,41l-283,0l0,-41l83,-10C124,533 124,446 124,359l0,-107C124,66 223,-15 376,-15C391,-15 408,-14 423,-11C387,-41 360,-85 360,-132C360,-187 397,-221 456,-221C495,-221 532,-206 556,-173l-12,23C524,-161 505,-164 492,-164C453,-164 424,-139 424,-96C424,-56 448,-16 500,19C563,62 608,134 608,274l0,341l87,13z"/>
<glyph unicode="&#xDD;" horiz-adv-x="631" d="M422,779C460,799 473,816 473,834C473,854 455,868 435,868C417,868 400,858 372,830l-94,-94l18,-25 z M534,615l87,13l0,41l-228,0l0,-41l90,-12l-143,-301l-139,302l95,11l0,41l-282,0l0,-41l79,-9l177,-359l0,-26C270,191 270,123 268,52l-102,-11l0,-41l302,0l0,41l-102,11C364,124 364,192 364,234l0,31z"/>
<glyph unicode="&#x178;" horiz-adv-x="631" d="M447,737C478,737 505,761 505,792C505,824 478,847 447,847C415,847 390,824 390,792C390,761 415,737 447,737 z M224,737C256,737 281,761 281,792C281,824 256,847 224,847C193,847 166,824 166,792C166,761 193,737 224,737 z M534,615l87,13l0,41l-228,0l0,-41l90,-12l-143,-301l-139,302l95,11l0,41l-282,0l0,-41l79,-9l177,-359l0,-26C270,191 270,123 268,52l-102,-11l0,-41l302,0l0,41l-102,11C364,124 364,192 364,234l0,31z"/>
<glyph unicode="&#x179;" horiz-adv-x="552" d="M372,788C410,808 423,825 423,843C423,863 405,877 385,877C367,877 350,867 322,839l-94,-94l18,-25 z M470,178l-27,-128l-312,0l379,583l0,36l-472,0l-8,-179l61,0l27,128l281,0l-379,-583l0,-35l504,0l8,178z"/>
<glyph unicode="&#x17D;" horiz-adv-x="552" d="M314,728l101,118l-24,21l-114,-85l-114,85l-24,-21l101,-118 z M470,178l-27,-128l-312,0l379,583l0,36l-472,0l-8,-179l61,0l27,128l281,0l-379,-583l0,-35l504,0l8,178z"/>
<glyph unicode="&#x17B;" horiz-adv-x="552" d="M295,736C333,736 362,763 362,800C362,838 333,864 295,864C257,864 228,838 228,800C228,763 257,736 295,736 z M470,178l-27,-128l-312,0l379,583l0,36l-472,0l-8,-179l61,0l27,128l281,0l-379,-583l0,-35l504,0l8,178z"/>
<glyph unicode="&#xD0;" horiz-adv-x="709" d="M234,47C232,134 232,223 232,319l154,0l0,47l-154,0C232,452 232,538 234,622l88,0C461,622 553,522 553,334C553,147 461,47 323,47 z M44,669l0,-41l92,-11C138,534 138,450 138,366l-94,0l0,-47l94,0C138,223 138,136 136,52l-92,-11l0,-41l276,0C508,0 662,118 662,335C662,551 524,669 340,669z"/>
<glyph unicode="&#xDE;" horiz-adv-x="610" d="M232,201l0,287l82,0C434,488 487,438 487,348C487,262 434,201 317,201 z M300,154C530,154 586,250 586,346C586,459 501,535 326,535l-94,0C232,562 233,590 234,617l98,11l0,41l-288,0l0,-41l92,-11C138,531 138,445 138,359l0,-49C138,223 138,136 136,52l-92,-11l0,-41l288,0l0,41l-99,11C233,86 232,120 232,154z"/>
<glyph unicode="&#xE0;" horiz-adv-x="510" d="M297,556l26,20l-86,137C216,746 198,757 180,757C160,757 142,745 142,720C142,706 148,689 177,663 z M324,105C268,64 248,51 215,51C191,51 170,58 154,74C143,86 135,101 135,127C135,157 145,196 233,230C254,238 289,250 324,259 z M484,65l-5,-6C470,51 458,42 442,42C420,42 409,61 409,101l0,214C409,443 359,491 254,491C152,491 77,441 59,365C62,339 78,322 106,322C133,322 151,339 160,370l20,70C200,444 217,445 231,445C297,445 324,421 324,324l0,-27C284,287 243,275 212,264C76,215 46,168 46,111C46,29 107,-15 180,-15C239,-15 273,12 326,65C335,20 367,-10 423,-10C455,-10 481,1 504,43z"/>
<glyph unicode="&#xE1;" horiz-adv-x="510" d="M355,663C384,689 390,706 390,720C390,745 372,757 352,757C334,757 316,746 296,713l-87,-137l26,-20 z M324,105C268,64 248,51 215,51C191,51 170,58 154,74C143,86 135,101 135,127C135,157 145,196 233,230C254,238 289,250 324,259 z M484,65l-5,-6C470,51 458,42 442,42C420,42 409,61 409,101l0,214C409,443 359,491 254,491C152,491 77,441 59,365C62,339 78,322 106,322C133,322 151,339 160,370l20,70C200,444 217,445 231,445C297,445 324,421 324,324l0,-27C284,287 243,275 212,264C76,215 46,168 46,111C46,29 107,-15 180,-15C239,-15 273,12 326,65C335,20 367,-10 423,-10C455,-10 481,1 504,43z"/>
<glyph unicode="&#xE2;" horiz-adv-x="510" d="M257,662l125,-106l24,21l-132,176l-34,0l-132,-176l24,-21 z M324,105C268,64 248,51 215,51C191,51 170,58 154,74C143,86 135,101 135,127C135,157 145,196 233,230C254,238 289,250 324,259 z M484,65l-5,-6C470,51 458,42 442,42C420,42 409,61 409,101l0,214C409,443 359,491 254,491C152,491 77,441 59,365C62,339 78,322 106,322C133,322 151,339 160,370l20,70C200,444 217,445 231,445C297,445 324,421 324,324l0,-27C284,287 243,275 212,264C76,215 46,168 46,111C46,29 107,-15 180,-15C239,-15 273,12 326,65C335,20 367,-10 423,-10C455,-10 481,1 504,43z"/>
<glyph unicode="&#xE3;" horiz-adv-x="510" d="M114,584C114,635 135,655 162,655C183,655 199,642 226,616C255,588 281,573 312,573C365,573 408,614 408,683C408,693 407,700 406,706l-34,0C372,656 351,635 325,635C304,635 286,649 260,675C231,702 205,718 174,718C121,718 78,676 78,608C78,600 79,591 80,584 z M324,105C268,64 248,51 215,51C191,51 170,58 154,74C143,86 135,101 135,127C135,157 145,196 233,230C254,238 289,250 324,259 z M484,65l-5,-6C470,51 458,42 442,42C420,42 409,61 409,101l0,214C409,443 359,491 254,491C152,491 77,441 59,365C62,339 78,322 106,322C133,322 151,339 160,370l20,70C200,444 217,445 231,445C297,445 324,421 324,324l0,-27C284,287 243,275 212,264C76,215 46,168 46,111C46,29 107,-15 180,-15C239,-15 273,12 326,65C335,20 367,-10 423,-10C455,-10 481,1 504,43z"/>
<glyph unicode="&#xE4;" horiz-adv-x="510" d="M351,587C383,587 408,610 408,641C408,673 383,696 351,696C320,696 293,673 293,641C293,610 320,587 351,587 z M149,587C180,587 207,610 207,641C207,673 180,696 149,696C117,696 92,673 92,641C92,610 117,587 149,587 z M324,105C268,64 248,51 215,51C191,51 170,58 154,74C143,86 135,101 135,127C135,157 145,196 233,230C254,238 289,250 324,259 z M484,65l-5,-6C470,51 458,42 442,42C420,42 409,61 409,101l0,214C409,443 359,491 254,491C152,491 77,441 59,365C62,339 78,322 106,322C133,322 151,339 160,370l20,70C200,444 217,445 231,445C297,445 324,421 324,324l0,-27C284,287 243,275 212,264C76,215 46,168 46,111C46,29 107,-15 180,-15C239,-15 273,12 326,65C335,20 367,-10 423,-10C455,-10 481,1 504,43z"/>
<glyph unicode="&#x101;" horiz-adv-x="510" d="M388,666l-262,0l0,-63l262,0 z M324,105C268,64 248,51 215,51C191,51 170,58 154,74C143,86 135,101 135,127C135,157 145,196 233,230C254,238 289,250 324,259 z M484,65l-5,-6C470,51 458,42 442,42C420,42 409,61 409,101l0,214C409,443 359,491 254,491C152,491 77,441 59,365C62,339 78,322 106,322C133,322 151,339 160,370l20,70C200,444 217,445 231,445C297,445 324,421 324,324l0,-27C284,287 243,275 212,264C76,215 46,168 46,111C46,29 107,-15 180,-15C239,-15 273,12 326,65C335,20 367,-10 423,-10C455,-10 481,1 504,43z"/>
<glyph unicode="&#x103;" horiz-adv-x="510" d="M378,735C359,685 319,645 257,645C195,645 155,685 136,735l-30,-12C115,647 165,575 257,575C349,575 399,647 408,723 z M324,105C268,64 248,51 215,51C191,51 170,58 154,74C143,86 135,101 135,127C135,157 145,196 233,230C254,238 289,250 324,259 z M484,65l-5,-6C470,51 458,42 442,42C420,42 409,61 409,101l0,214C409,443 359,491 254,491C152,491 77,441 59,365C62,339 78,322 106,322C133,322 151,339 160,370l20,70C200,444 217,445 231,445C297,445 324,421 324,324l0,-27C284,287 243,275 212,264C76,215 46,168 46,111C46,29 107,-15 180,-15C239,-15 273,12 326,65C335,20 367,-10 423,-10C455,-10 481,1 504,43z"/>
<glyph unicode="&#xE5;" horiz-adv-x="510" d="M256,702C293,702 313,672 313,641C313,610 292,579 256,579C219,579 199,610 199,641C199,672 220,702 256,702 z M256,539C310,539 361,577 361,641C361,706 310,742 256,742C202,742 151,703 151,641C151,575 202,539 256,539 z M324,105C268,64 248,51 215,51C191,51 170,58 154,74C143,86 135,101 135,127C135,157 145,196 233,230C254,238 289,250 324,259 z M484,65l-5,-6C470,51 458,42 442,42C420,42 409,61 409,101l0,214C409,443 359,491 254,491C152,491 77,441 59,365C62,339 78,322 106,322C133,322 151,339 160,370l20,70C200,444 217,445 231,445C297,445 324,421 324,324l0,-27C284,287 243,275 212,264C76,215 46,168 46,111C46,29 107,-15 180,-15C239,-15 273,12 326,65C335,20 367,-10 423,-10C455,-10 481,1 504,43z"/>
<glyph unicode="&#x105;" horiz-adv-x="510" d="M324,105C268,64 248,51 215,51C191,51 170,58 154,74C143,86 135,101 135,127C135,157 145,196 233,230C254,238 289,250 324,259 z M512,-150C492,-161 473,-164 460,-164C421,-164 392,-139 392,-97C392,-62 423,-31 456,-5C477,12 488,21 504,41l-20,24l-5,-6C470,51 458,42 442,42C421,42 409,61 409,101l0,214C409,443 359,491 254,491C152,491 77,441 59,365C62,339 78,322 106,322C133,322 151,339 160,370l20,70C200,444 217,445 231,445C297,445 324,421 324,324l0,-27C284,287 243,275 212,264C76,215 46,168 46,111C46,29 107,-15 180,-15C239,-15 272,12 326,65C334,20 364,-7 416,-11C369,-38 328,-83 328,-132C328,-187 365,-221 419,-221C462,-221 500,-206 524,-173z"/>
<glyph unicode="&#xE6;" horiz-adv-x="784" d="M331,103C277,63 255,51 215,51C191,51 170,58 154,74C143,86 135,101 135,127C135,157 145,196 233,230C254,238 287,249 321,259C320,251 320,244 320,236C320,189 328,147 343,112 z M412,285C424,402 489,445 545,445C607,445 654,395 654,337C654,307 642,285 595,285 z M730,242C734,256 737,275 737,297C737,419 655,491 549,491C487,491 431,462 389,412C366,467 317,491 253,491C152,491 77,441 59,365C62,339 78,322 105,322C134,322 151,339 160,370l20,70C200,444 218,445 234,445C295,445 324,421 324,324l0,-27C284,288 243,275 212,264C76,215 46,168 46,111C46,29 107,-15 181,-15C242,-15 274,6 336,62l22,20C396,20 461,-15 543,-15C635,-15 700,30 735,102l-24,19C676,78 636,49 573,49C475,49 411,120 410,242z"/>
<glyph unicode="&#xE7;" horiz-adv-x="488" d="M433,127C402,77 352,49 295,49C201,49 135,119 135,246C135,374 197,445 283,445C299,445 318,443 337,437l18,-66C361,343 376,323 409,323C435,323 450,335 455,361C443,435 369,491 278,491C158,491 47,394 47,236C47,92 125,-4 249,-14l-11,-73C286,-93 309,-107 309,-138C309,-166 290,-184 252,-184C233,-184 219,-183 203,-181l-7,-31C209,-216 231,-221 259,-221C332,-221 371,-187 371,-140C371,-92 331,-66 280,-58l5,43C372,-10 432,35 458,114z"/>
<glyph unicode="&#x107;" horiz-adv-x="488" d="M370,663C399,689 405,706 405,720C405,745 387,757 367,757C349,757 331,746 311,713l-87,-137l26,-20 z M433,127C402,77 352,49 295,49C201,49 135,119 135,246C135,374 197,445 283,445C299,445 318,443 337,437l18,-66C361,343 376,323 409,323C435,323 450,335 455,361C443,435 369,491 278,491C158,491 47,394 47,236C47,83 134,-15 271,-15C366,-15 431,31 458,114z"/>
<glyph unicode="&#x10D;" horiz-adv-x="488" d="M321,571l102,148l-25,20l-114,-105l-114,105l-25,-20l102,-148 z M433,127C402,77 352,49 295,49C201,49 135,119 135,246C135,374 197,445 283,445C299,445 318,443 337,437l18,-66C361,343 376,323 409,323C435,323 450,335 455,361C443,435 369,491 278,491C158,491 47,394 47,236C47,83 134,-15 271,-15C366,-15 431,31 458,114z"/>
<glyph unicode="&#x10F;" horiz-adv-x="592" d="M386,99C349,59 316,42 273,42C194,42 135,104 135,236C135,371 199,434 273,434C306,434 341,421 386,382 z M471,579l4,142l-14,8l-157,-45l0,-35l85,-10l0,-213C348,474 306,491 258,491C135,491 45,386 45,233C45,87 127,-15 249,-15C312,-15 355,11 389,57l7,-67l156,10l0,36l-81,13 z M550,518l32,0l20,56C618,621 635,674 635,703C635,725 625,740 599,740C584,740 569,736 553,727z"/>
<glyph unicode="&#x111;" horiz-adv-x="567" d="M386,100C349,59 316,42 273,42C194,42 135,101 135,226C135,355 199,414 274,414C306,414 341,401 386,362 z M552,538l0,46l-81,0l4,137l-14,8l-157,-45l0,-35l85,-10l0,-55l-186,0l0,-46l186,0l0,-132C348,454 308,471 254,471C135,471 45,370 45,224C45,83 127,-15 249,-15C307,-15 351,8 389,58l7,-68l156,10l0,36l-81,13l0,489z"/>
<glyph unicode="&#xE8;" horiz-adv-x="510" d="M295,556l26,20l-86,137C214,746 196,757 178,757C158,757 140,745 140,720C140,706 146,689 175,663 z M139,285C150,401 216,445 273,445C334,445 381,394 381,337C381,308 369,285 321,285 z M457,242C461,256 464,275 464,298C464,419 382,491 277,491C151,491 47,385 47,233C47,80 135,-15 270,-15C361,-15 427,30 462,102l-24,19C402,78 363,49 299,49C203,49 139,119 137,242z"/>
<glyph unicode="&#xE9;" horiz-adv-x="510" d="M361,663C390,689 396,706 396,720C396,745 378,757 358,757C340,757 322,746 302,713l-87,-137l26,-20 z M139,285C150,401 216,445 273,445C334,445 381,394 381,337C381,308 369,285 321,285 z M457,242C461,256 464,275 464,298C464,419 382,491 277,491C151,491 47,385 47,233C47,80 135,-15 270,-15C361,-15 427,30 462,102l-24,19C402,78 363,49 299,49C203,49 139,119 137,242z"/>
<glyph unicode="&#xEA;" horiz-adv-x="510" d="M266,662l125,-106l24,21l-132,176l-34,0l-132,-176l24,-21 z M139,285C150,401 216,445 273,445C334,445 381,394 381,337C381,308 369,285 321,285 z M457,242C461,256 464,275 464,298C464,419 382,491 277,491C151,491 47,385 47,233C47,80 135,-15 270,-15C361,-15 427,30 462,102l-24,19C402,78 363,49 299,49C203,49 139,119 137,242z"/>
<glyph unicode="&#x11B;" horiz-adv-x="510" d="M303,571l102,148l-25,20l-114,-105l-114,105l-25,-20l102,-148 z M139,285C150,401 216,445 273,445C334,445 381,394 381,337C381,308 369,285 321,285 z M457,242C461,256 464,275 464,298C464,419 382,491 277,491C151,491 47,385 47,233C47,80 135,-15 270,-15C361,-15 427,30 462,102l-24,19C402,78 363,49 299,49C203,49 139,119 137,242z"/>
<glyph unicode="&#xEB;" horiz-adv-x="510" d="M370,587C402,587 427,610 427,641C427,673 402,696 370,696C339,696 312,673 312,641C312,610 339,587 370,587 z M168,587C199,587 226,610 226,641C226,673 199,696 168,696C136,696 111,673 111,641C111,610 136,587 168,587 z M139,285C150,401 216,445 273,445C334,445 381,394 381,337C381,308 369,285 321,285 z M457,242C461,256 464,275 464,298C464,419 382,491 277,491C151,491 47,385 47,233C47,80 135,-15 270,-15C361,-15 427,30 462,102l-24,19C402,78 363,49 299,49C203,49 139,119 137,242z"/>
<glyph unicode="&#x113;" horiz-adv-x="510" d="M397,666l-262,0l0,-63l262,0 z M139,285C150,401 216,445 273,445C334,445 381,394 381,337C381,308 369,285 321,285 z M457,242C461,256 464,275 464,298C464,419 382,491 277,491C151,491 47,385 47,233C47,80 135,-15 270,-15C361,-15 427,30 462,102l-24,19C402,78 363,49 299,49C203,49 139,119 137,242z"/>
<glyph unicode="&#x117;" horiz-adv-x="510" d="M270,598C308,598 337,625 337,663C337,701 308,727 270,727C232,727 203,701 203,663C203,625 232,598 270,598 z M139,285C150,401 216,445 273,445C334,445 381,394 381,337C381,308 369,285 321,285 z M457,242C461,256 464,275 464,298C464,419 382,491 277,491C151,491 47,385 47,233C47,80 135,-15 270,-15C361,-15 427,30 462,102l-24,19C402,78 363,49 299,49C203,49 139,119 137,242z"/>
<glyph unicode="&#x119;" horiz-adv-x="510" d="M139,285C151,402 216,445 272,445C334,445 381,394 381,337C381,303 369,285 321,285 z M438,121C402,78 363,49 300,49C202,49 138,120 137,242l320,0C461,256 464,275 464,297C464,419 382,491 276,491C151,491 47,385 47,236C47,79 135,-15 270,-15C286,-15 302,-14 319,-11C282,-41 255,-85 255,-132C255,-187 293,-221 347,-221C390,-221 427,-206 451,-173l-12,23C419,-161 401,-164 387,-164C348,-164 319,-139 319,-96C319,-56 346,-19 386,14C423,43 443,64 462,102z"/>
<glyph unicode="&#x11F;" horiz-adv-x="518" d="M373,735C354,685 314,645 252,645C190,645 150,685 131,735l-30,-12C110,647 160,575 252,575C344,575 394,647 403,723 z M237,203C176,203 141,253 141,326C141,399 179,450 242,450C304,450 339,401 339,329C339,255 301,203 237,203 z M316,-1C393,-1 415,-32 415,-65C415,-119 357,-164 247,-164C170,-164 117,-138 117,-78C117,-46 132,-22 154,4C169,1 186,-1 205,-1 z M496,478l-15,10l-112,-38C337,477 292,491 241,491C138,491 60,432 60,327C60,259 90,212 137,186C96,157 73,127 73,91C73,61 89,31 127,14C65,-17 34,-53 34,-95C34,-157 99,-209 241,-209C408,-209 491,-124 491,-37C491,33 439,74 330,74l-104,0C168,74 148,92 148,123C148,142 156,159 167,173C189,166 214,163 240,163C343,163 421,222 421,327C421,362 413,391 399,415l97,0z"/>
<glyph unicode="&#x121;" horiz-adv-x="518" d="M246,598C284,598 313,625 313,663C313,701 284,727 246,727C208,727 179,701 179,663C179,625 208,598 246,598 z M237,203C176,203 141,253 141,326C141,399 179,450 242,450C304,450 339,401 339,329C339,255 301,203 237,203 z M316,-1C393,-1 415,-32 415,-65C415,-119 357,-164 247,-164C170,-164 117,-138 117,-78C117,-46 132,-22 154,4C169,1 186,-1 205,-1 z M496,478l-15,10l-112,-38C337,477 292,491 241,491C138,491 60,432 60,327C60,259 90,212 137,186C96,157 73,127 73,91C73,61 89,31 127,14C65,-17 34,-53 34,-95C34,-157 99,-209 241,-209C408,-209 491,-124 491,-37C491,33 439,74 330,74l-104,0C168,74 148,92 148,123C148,142 156,159 167,173C189,166 214,163 240,163C343,163 421,222 421,327C421,362 413,391 399,415l97,0z"/>
<glyph unicode="&#x123;" horiz-adv-x="518" d="M331,772C260,748 197,708 197,637C197,624 199,612 206,591C220,577 236,571 250,571C276,571 298,590 298,617C298,643 278,665 251,677C273,710 301,728 341,743 z M237,203C176,203 141,253 141,326C141,399 179,450 242,450C304,450 339,401 339,329C339,255 301,203 237,203 z M316,-1C393,-1 415,-32 415,-65C415,-119 357,-164 247,-164C170,-164 117,-138 117,-78C117,-46 132,-22 154,4C169,1 186,-1 205,-1 z M496,478l-15,10l-112,-38C337,477 292,491 241,491C138,491 60,432 60,327C60,259 90,212 137,186C96,157 73,127 73,91C73,61 89,31 127,14C65,-17 34,-53 34,-95C34,-157 99,-209 241,-209C408,-209 491,-124 491,-37C491,33 439,74 330,74l-104,0C168,74 148,92 148,123C148,142 156,159 167,173C189,166 214,163 240,163C343,163 421,222 421,327C421,362 413,391 399,415l97,0z"/>
<glyph unicode="&#xEC;" horiz-adv-x="298" d="M180,556l26,20l-86,137C99,746 81,757 63,757C43,757 25,745 25,720C25,706 31,689 60,663 z M198,50C197,100 196,166 196,210l0,135l3,136l-15,10l-154,-61l0,-35l79,-9C111,346 112,315 112,260l0,-50C112,166 111,100 110,50l-75,-14l0,-36l232,0l0,36z"/>
<glyph unicode="&#xED;" horiz-adv-x="298" d="M243,663C272,689 278,706 278,720C278,745 260,757 240,757C222,757 204,746 184,713l-87,-137l26,-20 z M196,345l3,136l-15,10l-154,-61l0,-35l79,-9C111,346 112,315 112,260l0,-50C112,166 111,100 110,50l-75,-14l0,-36l232,0l0,36l-69,14C197,100 196,166 196,210z"/>
<glyph unicode="&#xEE;" horiz-adv-x="298" d="M196,345l3,136l-15,10l-154,-61l0,-35l79,-9C111,346 112,315 112,260l0,-50C112,166 111,100 110,50l-75,-14l0,-36l232,0l0,36l-69,14C197,100 196,166 196,210 z M170,753l-34,0l-132,-176l24,-21l125,106l125,-106l24,21z"/>
<glyph unicode="&#xEF;" horiz-adv-x="298" d="M100,641C100,673 73,696 42,696C10,696 -15,673 -15,641C-15,610 10,587 42,587C73,587 100,610 100,641 z M196,345l3,136l-15,10l-154,-61l0,-35l79,-9C111,346 112,315 112,260l0,-50C112,166 111,100 110,50l-75,-14l0,-36l232,0l0,36l-69,14C197,100 196,166 196,210 z M244,696C213,696 186,673 186,641C186,610 213,587 244,587C276,587 301,610 301,641C301,673 276,696 244,696z"/>
<glyph unicode="&#x12B;" horiz-adv-x="298" d="M196,345l3,136l-15,10l-154,-61l0,-35l79,-9C111,346 112,315 112,260l0,-50C112,166 111,100 110,50l-75,-14l0,-36l232,0l0,36l-69,14C197,100 196,166 196,210 z M11,666l0,-63l262,0l0,63z"/>
<glyph unicode="&#x12F;" horiz-adv-x="298" d="M153,598C191,598 220,625 220,663C220,701 191,727 153,727C115,727 86,701 86,663C86,625 115,598 153,598 z M265,-150C245,-161 226,-164 212,-164C174,-164 145,-139 145,-96C145,-62 163,-27 193,0l74,0l0,36l-69,14C197,100 196,166 196,210l0,135l3,136l-15,10l-154,-61l0,-35l79,-9C111,346 112,315 112,260l0,-50C112,166 111,100 110,50l-75,-14l0,-36l125,0C116,-30 81,-79 81,-132C81,-187 120,-221 176,-221C211,-221 255,-207 278,-175z"/>
<glyph unicode="&#xE000;" horiz-adv-x="298" d="M153,598C191,598 220,625 220,663C220,701 191,727 153,727C115,727 86,701 86,663C86,625 115,598 153,598 z M198,50C197,100 196,166 196,210l0,135l3,136l-15,10l-154,-61l0,-35l79,-9C111,346 112,315 112,260l0,-50C112,166 111,100 110,50l-75,-14l0,-36l232,0l0,36z"/>
<glyph unicode="&#x131;" horiz-adv-x="298" d="M198,50C197,100 196,166 196,210l0,135l3,136l-15,10l-154,-61l0,-35l79,-9C111,346 112,315 112,260l0,-50C112,166 111,100 110,50l-75,-14l0,-36l232,0l0,36z"/>
<glyph unicode="&#x137;" horiz-adv-x="548" d="M211,-252C282,-228 345,-188 345,-117C345,-104 343,-92 336,-71C322,-57 306,-51 292,-51C266,-51 244,-70 244,-97C244,-123 264,-145 291,-157C269,-190 241,-208 201,-223 z M482,48l-165,260l109,111l96,13l0,41l-228,0l0,-41l73,-11l-176,-183l0,341l4,142l-14,8l-156,-45l0,-35l82,-10l0,-429C107,158 106,103 105,50l-79,-14l0,-36l246,0l0,36l-79,14C192,93 191,137 191,180l67,68l154,-248l136,0l0,36z"/>
<glyph unicode="&#x13A;" horiz-adv-x="297" d="M214,829C252,849 265,866 265,884C265,904 247,918 227,918C209,918 192,908 164,880l-94,-94l18,-25 z M193,50C192,103 191,157 191,210l0,369l4,142l-14,8l-156,-45l0,-35l82,-10l0,-429C107,157 106,104 105,50l-79,-14l0,-36l246,0l0,36z"/>
<glyph unicode="&#x13E;" horiz-adv-x="322" d="M191,579l4,142l-14,8l-156,-45l0,-35l82,-10l0,-429C107,157 106,104 105,50l-79,-14l0,-36l246,0l0,36l-79,14C192,103 191,157 191,210 z M280,518l32,0l20,56C348,621 365,674 365,703C365,725 355,740 329,740C314,740 299,736 283,727z"/>
<glyph unicode="&#x140;" horiz-adv-x="364" d="M191,579l4,142l-14,8l-156,-45l0,-35l82,-10l0,-429C107,157 106,104 105,50l-79,-14l0,-36l246,0l0,36l-79,14C192,103 191,157 191,210 z M331,391C293,391 264,365 264,327C264,289 293,262 331,262C369,262 398,289 398,327C398,365 369,391 331,391z"/>
<glyph unicode="&#x142;" horiz-adv-x="297" d="M191,376l83,43l0,57l-83,-43l0,146l4,142l-14,8l-156,-45l0,-35l82,-10l0,-244l-82,-43l0,-56l82,43l0,-129C107,157 106,104 105,50l-79,-14l0,-36l246,0l0,36l-79,14C192,103 191,157 191,210z"/>
<glyph unicode="&#x144;" horiz-adv-x="607" d="M418,663C447,689 453,706 453,720C453,745 435,757 415,757C397,757 379,746 359,713l-87,-137l26,-20 z M507,50C506,100 505,164 505,210l0,96C505,437 463,491 377,491C313,491 246,454 197,400l-8,81l-15,10l-139,-61l0,-35l79,-9C116,346 117,316 117,261l0,-51C117,165 116,100 115,50l-74,-14l0,-36l232,0l0,36l-70,14C202,100 201,166 201,210l0,147C252,401 292,420 339,420C398,420 421,389 421,298l0,-88C421,164 420,99 419,50l-74,-14l0,-36l232,0l0,36z"/>
<glyph unicode="&#x148;" horiz-adv-x="607" d="M350,571l102,148l-25,20l-114,-105l-114,105l-25,-20l102,-148 z M507,50C506,100 505,164 505,210l0,96C505,437 463,491 377,491C313,491 246,454 197,400l-8,81l-15,10l-139,-61l0,-35l79,-9C116,346 117,316 117,261l0,-51C117,165 116,100 115,50l-74,-14l0,-36l232,0l0,36l-70,14C202,100 201,166 201,210l0,147C252,401 292,420 339,420C398,420 421,389 421,298l0,-88C421,164 420,99 419,50l-74,-14l0,-36l232,0l0,36z"/>
<glyph unicode="&#xF1;" horiz-adv-x="607" d="M174,584C174,635 195,655 222,655C243,655 259,642 286,616C315,588 341,573 372,573C425,573 468,614 468,683C468,693 467,700 466,706l-34,0C432,656 411,635 385,635C364,635 346,649 320,675C291,702 265,718 234,718C181,718 138,676 138,608C138,600 139,591 140,584 z M507,50C506,100 505,164 505,210l0,96C505,437 463,491 377,491C313,491 246,454 197,400l-8,81l-15,10l-139,-61l0,-35l79,-9C116,346 117,316 117,261l0,-51C117,165 116,100 115,50l-74,-14l0,-36l232,0l0,36l-70,14C202,100 201,166 201,210l0,147C252,401 292,420 339,420C398,420 421,389 421,298l0,-88C421,164 420,99 419,50l-74,-14l0,-36l232,0l0,36z"/>
<glyph unicode="&#x146;" horiz-adv-x="607" d="M250,-252C321,-228 384,-188 384,-117C384,-104 382,-92 375,-71C361,-57 345,-51 331,-51C305,-51 283,-70 283,-97C283,-123 303,-145 330,-157C308,-190 280,-208 240,-223 z M507,50C506,100 505,164 505,210l0,96C505,437 463,491 377,491C313,491 246,454 197,400l-8,81l-15,10l-139,-61l0,-35l79,-9C116,346 117,316 117,261l0,-51C117,165 116,100 115,50l-74,-14l0,-36l232,0l0,36l-70,14C202,100 201,166 201,210l0,147C252,401 292,420 339,420C398,420 421,389 421,298l0,-88C421,164 420,99 419,50l-74,-14l0,-36l232,0l0,36z"/>
<glyph unicode="&#x1E45;" horiz-adv-x="607" d="M322,598C360,598 389,625 389,663C389,701 360,727 322,727C284,727 255,701 255,663C255,625 284,598 322,598 z M507,50C506,100 505,164 505,210l0,96C505,437 463,491 377,491C313,491 246,454 197,400l-8,81l-15,10l-139,-61l0,-35l79,-9C116,346 117,316 117,261l0,-51C117,165 116,100 115,50l-74,-14l0,-36l232,0l0,36l-70,14C202,100 201,166 201,210l0,147C252,401 292,420 339,420C398,420 421,389 421,298l0,-88C421,164 420,99 419,50l-74,-14l0,-36l232,0l0,36z"/>
<glyph unicode="&#xF2;" horiz-adv-x="549" d="M329,576l-86,137C222,746 204,757 186,757C166,757 148,745 148,720C148,706 154,689 183,663l120,-107 z M275,445C361,445 410,371 410,236C410,102 361,30 275,30C188,30 139,102 139,236C139,371 188,445 275,445 z M275,491C159,491 45,402 45,236C45,71 158,-15 275,-15C391,-15 505,71 505,236C505,402 390,491 275,491z"/>
<glyph unicode="&#xF3;" horiz-adv-x="549" d="M224,576l26,-20l120,107C399,689 405,706 405,720C405,745 387,757 367,757C349,757 331,746 311,713 z M275,445C361,445 410,371 410,236C410,102 361,30 275,30C188,30 139,102 139,236C139,371 188,445 275,445 z M275,491C159,491 45,402 45,236C45,71 158,-15 275,-15C391,-15 505,71 505,236C505,402 390,491 275,491z"/>
<glyph unicode="&#xF4;" horiz-adv-x="549" d="M275,662l125,-106l24,21l-132,176l-34,0l-132,-176l24,-21 z M275,30C188,30 139,102 139,236C139,371 188,445 275,445C361,445 410,371 410,236C410,102 361,30 275,30 z M275,491C159,491 45,402 45,236C45,71 158,-15 275,-15C391,-15 505,71 505,236C505,402 390,491 275,491z"/>
<glyph unicode="&#xF5;" horiz-adv-x="549" d="M344,573C397,573 440,614 440,683C440,693 439,700 438,706l-34,0C404,656 383,635 357,635C336,635 318,649 292,675C263,702 237,718 206,718C153,718 110,676 110,608C110,600 111,591 112,584l34,0C146,635 167,655 194,655C215,655 231,642 258,616C287,588 313,573 344,573 z M275,445C361,445 410,371 410,236C410,102 361,30 275,30C188,30 139,102 139,236C139,371 188,445 275,445 z M275,491C159,491 45,402 45,236C45,71 158,-15 275,-15C391,-15 505,71 505,236C505,402 390,491 275,491z"/>
<glyph unicode="&#xF6;" horiz-adv-x="549" d="M376,587C408,587 433,610 433,641C433,673 408,696 376,696C345,696 318,673 318,641C318,610 345,587 376,587 z M174,587C205,587 232,610 232,641C232,673 205,696 174,696C142,696 117,673 117,641C117,610 142,587 174,587 z M275,445C361,445 410,371 410,236C410,102 361,30 275,30C188,30 139,102 139,236C139,371 188,445 275,445 z M275,491C159,491 45,402 45,236C45,71 158,-15 275,-15C391,-15 505,71 505,236C505,402 390,491 275,491z"/>
<glyph unicode="&#x14D;" horiz-adv-x="549" d="M144,603l262,0l0,63l-262,0 z M275,445C361,445 410,371 410,236C410,102 361,30 275,30C188,30 139,102 139,236C139,371 188,445 275,445 z M275,491C159,491 45,402 45,236C45,71 158,-15 275,-15C391,-15 505,71 505,236C505,402 390,491 275,491z"/>
<glyph unicode="&#x151;" horiz-adv-x="549" d="M173,567l28,-16l93,117C314,692 317,708 317,719C317,741 301,755 282,755C264,755 242,744 229,709 z M315,567l28,-16l93,117C456,692 459,708 459,719C459,741 443,755 424,755C406,755 384,744 371,709 z M275,445C361,445 410,371 410,236C410,102 361,30 275,30C188,30 139,102 139,236C139,371 188,445 275,445 z M275,491C159,491 45,402 45,236C45,71 158,-15 275,-15C391,-15 505,71 505,236C505,402 390,491 275,491z"/>
<glyph unicode="&#xF8;" horiz-adv-x="549" d="M391,358C404,325 410,285 410,236C410,102 361,30 275,30C230,30 195,49 172,86 z M153,129C144,158 139,194 139,236C139,371 188,445 275,445C315,445 347,429 370,398 z M486,475l-33,25l-43,-54C370,476 323,491 275,491C159,491 45,402 45,236C45,163 67,106 101,65l-47,-59l33,-26l44,55C172,2 223,-15 275,-15C391,-15 505,71 505,236C505,314 479,376 440,418z"/>
<glyph unicode="&#x153;" horiz-adv-x="869" d="M497,285C509,401 574,445 630,445C694,445 739,395 739,337C739,305 726,285 680,285 z M275,30C188,30 139,102 139,236C139,371 188,445 275,445C361,445 410,371 410,236C410,102 361,30 275,30 z M815,242C819,256 822,275 822,297C822,419 740,491 634,491C565,491 496,453 456,393C415,456 341,491 275,491C159,491 45,402 45,236C45,71 158,-15 274,-15C339,-15 409,17 452,78C488,19 549,-15 628,-15C717,-15 783,26 820,102l-24,19C766,81 721,49 658,49C560,49 496,120 495,242z"/>
<glyph unicode="&#x155;" horiz-adv-x="423" d="M346,663C375,689 381,706 381,720C381,745 363,757 343,757C325,757 307,746 287,713l-87,-137l26,-20 z M189,481l-15,10l-139,-61l0,-35l79,-9C116,346 117,316 117,261l0,-51C117,165 116,99 115,49l-72,-13l0,-36l242,0l0,36l-82,15C202,101 201,166 201,210l0,79C220,348 247,390 288,420l7,-7C313,396 331,388 352,388C386,388 412,409 412,442C406,477 373,491 344,491C290,491 235,444 200,364z"/>
<glyph unicode="&#x157;" horiz-adv-x="423" d="M89,-252C160,-228 223,-188 223,-117C223,-104 221,-92 214,-71C200,-57 184,-51 170,-51C144,-51 122,-70 122,-97C122,-123 142,-145 169,-157C147,-190 119,-208 79,-223 z M189,481l-15,10l-139,-61l0,-35l79,-9C116,346 117,316 117,261l0,-51C117,165 116,99 115,49l-72,-13l0,-36l242,0l0,36l-82,15C202,101 201,166 201,210l0,79C220,348 247,390 288,420l7,-7C313,396 331,388 352,388C386,388 412,409 412,442C406,477 373,491 344,491C290,491 235,444 200,364z"/>
<glyph unicode="&#x159;" horiz-adv-x="423" d="M269,571l102,148l-25,20l-114,-105l-114,105l-25,-20l102,-148 z M189,481l-15,10l-139,-61l0,-35l79,-9C116,346 117,316 117,261l0,-51C117,165 116,99 115,49l-72,-13l0,-36l242,0l0,36l-82,15C202,101 201,166 201,210l0,79C220,348 247,390 288,420l7,-7C313,396 331,388 352,388C386,388 412,409 412,442C406,477 373,491 344,491C290,491 235,444 200,364z"/>
<glyph unicode="&#xDF;" horiz-adv-x="591" d="M106,210C106,157 105,103 104,50l-79,-14l0,-36l169,0C192,70 191,140 191,210l0,221C191,532 191,575 202,615C220,672 257,704 323,704C396,704 428,664 428,600C428,553 410,524 365,486C318,447 297,407 297,357C297,288 337,258 403,218C476,174 489,147 489,112C489,61 462,31 397,31C377,31 355,34 329,44l-23,89l-49,0l3,-119C307,-4 351,-15 401,-15C515,-15 569,41 569,130C569,193 544,229 448,289C391,325 370,340 370,381C370,413 383,443 426,474C479,514 511,559 511,613C511,692 440,749 338,749C247,749 172,700 139,624C121,585 106,520 106,418z"/>
<glyph unicode="&#x17F;" horiz-adv-x="343" d="M106,210C106,157 105,103 104,50l-79,-14l0,-36l258,0l0,36l-90,15C192,104 191,157 191,210l0,222C191,554 201,620 223,660C232,677 243,690 257,701l25,-20C308,659 330,650 355,650C391,650 413,670 415,696C405,732 367,749 319,749C274,749 222,735 179,688C133,638 106,562 106,422z"/>
<glyph unicode="&#x15B;" horiz-adv-x="435" d="M323,663C352,689 358,706 358,720C358,745 340,757 320,757C302,757 284,746 264,713l-87,-137l26,-20 z M228,288C159,313 135,332 135,372C135,417 167,445 228,445C252,445 275,439 298,428l15,-80l52,0l4,102C325,476 283,491 229,491C122,491 54,423 54,346C54,282 102,240 175,213l46,-17C285,172 316,150 316,108C316,62 279,31 203,31C172,31 146,36 122,47l-19,86l-55,0l3,-109C101,-2 144,-15 201,-15C330,-15 395,54 395,129C395,191 359,240 258,277z"/>
<glyph unicode="&#x161;" horiz-adv-x="435" d="M265,571l102,148l-25,20l-114,-105l-114,105l-25,-20l102,-148 z M228,288C159,313 135,332 135,372C135,417 167,445 228,445C252,445 275,439 298,428l15,-80l52,0l4,102C325,476 283,491 229,491C122,491 54,423 54,346C54,282 102,240 175,213l46,-17C285,172 316,150 316,108C316,62 279,31 203,31C172,31 146,36 122,47l-19,86l-55,0l3,-109C101,-2 144,-15 201,-15C330,-15 395,54 395,129C395,191 359,240 258,277z"/>
<glyph unicode="&#x15F;" horiz-adv-x="435" d="M228,288C159,313 135,332 135,372C135,417 167,445 228,445C252,445 275,439 298,428l15,-80l52,0l4,102C325,476 283,491 229,491C122,491 54,423 54,346C54,282 102,240 175,213l46,-17C285,172 316,150 316,108C316,62 279,31 203,31C172,31 146,36 122,47l-19,86l-55,0l3,-109C99,-1 141,-14 194,-15l-10,-72C232,-93 255,-107 255,-138C255,-166 236,-184 198,-184C179,-184 165,-183 149,-181l-7,-31C155,-216 177,-221 205,-221C278,-221 317,-187 317,-140C317,-92 277,-66 226,-58l5,44C340,-4 395,60 395,129C395,191 359,240 258,277z"/>
<glyph unicode="&#x219;" horiz-adv-x="435" d="M134,-252C205,-228 268,-188 268,-117C268,-104 266,-92 259,-71C245,-57 229,-51 215,-51C189,-51 167,-70 167,-97C167,-123 187,-145 214,-157C192,-190 164,-208 124,-223 z M228,288C159,313 135,332 135,372C135,417 167,445 228,445C252,445 275,439 298,428l15,-80l52,0l4,102C325,476 283,491 229,491C122,491 54,423 54,346C54,282 102,240 175,213l46,-17C285,172 316,150 316,108C316,62 279,31 203,31C172,31 146,36 122,47l-19,86l-55,0l3,-109C101,-2 144,-15 201,-15C330,-15 395,54 395,129C395,191 359,240 258,277z"/>
<glyph unicode="&#x165;" horiz-adv-x="326" d="M304,574C320,621 337,674 337,703C337,725 327,740 301,740C286,740 271,736 255,727l-3,-209l32,0 z M177,420l136,0l0,53l-134,0l5,138l-61,0l-25,-136l-89,-11l0,-44l83,0l0,-231C92,150 91,129 91,104C91,26 135,-10 205,-10C256,-10 298,10 323,43l-24,27C274,51 253,42 232,42C198,42 177,64 177,116z"/>
<glyph unicode="&#x163;" horiz-adv-x="326" d="M205,-10C256,-10 298,10 323,43l-24,27C274,51 253,42 232,42C198,42 177,64 177,116l0,304l136,0l0,53l-134,0l5,138l-61,0l-25,-136l-89,-11l0,-44l83,0l0,-231C92,150 91,129 91,104C91,41 120,5 169,-6l-12,-81C205,-93 228,-107 228,-138C228,-166 209,-184 171,-184C152,-184 138,-183 122,-181l-7,-31C128,-216 150,-221 178,-221C251,-221 290,-187 290,-140C290,-92 250,-66 199,-58z"/>
<glyph unicode="&#x21B;" horiz-adv-x="326" d="M110,-252C181,-228 244,-188 244,-117C244,-104 242,-92 235,-71C221,-57 205,-51 191,-51C165,-51 143,-70 143,-97C143,-123 163,-145 190,-157C168,-190 140,-208 100,-223 z M299,70C274,51 253,42 232,42C198,42 177,64 177,116l0,304l136,0l0,53l-134,0l5,138l-61,0l-25,-136l-89,-11l0,-44l83,0l0,-231C92,150 91,129 91,104C91,26 135,-10 205,-10C256,-10 298,10 323,43z"/>
<glyph unicode="&#xF9;" horiz-adv-x="584" d="M306,556l26,20l-86,137C225,746 207,757 189,757C169,757 151,745 151,720C151,706 157,689 186,663 z M481,51l0,280l3,140l-10,10l-145,-14l0,-35l71,-15l-3,-296C351,78 303,56 257,56C203,56 177,87 177,176l0,155l5,140l-10,10l-147,-14l0,-35l71,-15l-3,-252C92,33 142,-15 223,-15C284,-15 346,13 400,79l11,-89l139,10l0,36z"/>
<glyph unicode="&#xFA;" horiz-adv-x="584" d="M372,663C401,689 407,706 407,720C407,745 389,757 369,757C351,757 333,746 313,713l-87,-137l26,-20 z M481,51l0,280l3,140l-10,10l-145,-14l0,-35l71,-15l-3,-296C351,78 303,56 257,56C203,56 177,87 177,176l0,155l5,140l-10,10l-147,-14l0,-35l71,-15l-3,-252C92,33 142,-15 223,-15C284,-15 346,13 400,79l11,-89l139,10l0,36z"/>
<glyph unicode="&#xFB;" horiz-adv-x="584" d="M283,662l125,-106l24,21l-132,176l-34,0l-132,-176l24,-21 z M481,51l0,280l3,140l-10,10l-145,-14l0,-35l71,-15l-3,-296C351,78 303,56 257,56C203,56 177,87 177,176l0,155l5,140l-10,10l-147,-14l0,-35l71,-15l-3,-252C92,33 142,-15 223,-15C284,-15 346,13 400,79l11,-89l139,10l0,36z"/>
<glyph unicode="&#xFC;" horiz-adv-x="584" d="M392,587C424,587 449,610 449,641C449,673 424,696 392,696C361,696 334,673 334,641C334,610 361,587 392,587 z M190,587C221,587 248,610 248,641C248,673 221,696 190,696C158,696 133,673 133,641C133,610 158,587 190,587 z M481,51l0,280l3,140l-10,10l-145,-14l0,-35l71,-15l-3,-296C351,78 303,56 257,56C203,56 177,87 177,176l0,155l5,140l-10,10l-147,-14l0,-35l71,-15l-3,-252C92,33 142,-15 223,-15C284,-15 346,13 400,79l11,-89l139,10l0,36z"/>
<glyph unicode="&#x16B;" horiz-adv-x="584" d="M420,666l-262,0l0,-63l262,0 z M481,51l0,280l3,140l-10,10l-145,-14l0,-35l71,-15l-3,-296C351,78 303,56 257,56C203,56 177,87 177,176l0,155l5,140l-10,10l-147,-14l0,-35l71,-15l-3,-252C92,33 142,-15 223,-15C284,-15 346,13 400,79l11,-89l139,10l0,36z"/>
<glyph unicode="&#x16F;" horiz-adv-x="584" d="M287,702C324,702 344,672 344,641C344,610 323,579 287,579C250,579 230,610 230,641C230,672 251,702 287,702 z M287,539C341,539 392,577 392,641C392,706 341,742 287,742C233,742 182,703 182,641C182,575 233,539 287,539 z M481,51l0,280l3,140l-10,10l-145,-14l0,-35l71,-15l-3,-296C351,78 303,56 257,56C203,56 177,87 177,176l0,155l5,140l-10,10l-147,-14l0,-35l71,-15l-3,-252C92,33 142,-15 223,-15C284,-15 346,13 400,79l11,-89l139,10l0,36z"/>
<glyph unicode="&#x171;" horiz-adv-x="584" d="M349,551l93,117C462,692 465,708 465,719C465,741 449,755 430,755C412,755 390,744 377,709l-56,-142 z M300,668C320,692 323,708 323,719C323,741 307,755 288,755C270,755 248,744 235,709l-56,-142l28,-16 z M481,51l0,280l3,140l-10,10l-145,-14l0,-35l71,-15l-3,-296C351,78 303,56 257,56C203,56 177,87 177,176l0,155l5,140l-10,10l-147,-14l0,-35l71,-15l-3,-252C92,33 142,-15 223,-15C284,-15 346,13 400,79l11,-89l139,10l0,36z"/>
<glyph unicode="&#x173;" horiz-adv-x="584" d="M568,-150C548,-161 529,-164 516,-164C477,-164 447,-140 447,-96C447,-63 471,-29 509,-3l41,3l0,36l-69,15l0,280l3,140l-10,10l-145,-14l0,-35l71,-15l-3,-296C351,78 303,56 257,56C203,56 177,87 177,176l0,155l5,140l-10,10l-147,-14l0,-35l71,-15l-3,-252C92,33 142,-15 223,-15C284,-15 346,13 400,79l11,-89l62,4C424,-33 384,-81 384,-132C384,-187 421,-221 475,-221C518,-221 555,-206 580,-173z"/>
<glyph unicode="&#xFD;" horiz-adv-x="508" d="M350,663C379,689 385,706 385,720C385,745 367,757 347,757C329,757 311,746 291,713l-87,-137l26,-20 z M498,473l-195,0l0,-41l86,-12l-113,-332l-124,333l87,10l0,42l-241,0l0,-41l58,-9l180,-450C211,-92 184,-145 141,-181l-3,3C108,-149 88,-139 62,-139C32,-139 3,-153 -4,-181C-4,-221 38,-248 88,-248C170,-248 228,-173 292,4l150,416l56,12z"/>
<glyph unicode="&#xFF;" horiz-adv-x="508" d="M375,587C407,587 432,610 432,641C432,673 407,696 375,696C344,696 317,673 317,641C317,610 344,587 375,587 z M173,587C204,587 231,610 231,641C231,673 204,696 173,696C141,696 116,673 116,641C116,610 141,587 173,587 z M498,473l-195,0l0,-41l86,-12l-113,-332l-124,333l87,10l0,42l-241,0l0,-41l58,-9l180,-450C211,-92 184,-145 141,-181l-3,3C108,-149 88,-139 62,-139C32,-139 3,-153 -4,-181C-4,-221 38,-248 88,-248C170,-248 228,-173 292,4l150,416l56,12z"/>
<glyph unicode="&#x17A;" horiz-adv-x="457" d="M334,663C363,689 369,706 369,720C369,745 351,757 331,757C313,757 295,746 275,713l-87,-137l26,-20 z M380,163l-30,-121l-218,0l285,395l0,36l-373,0l-8,-150l51,-4l27,111l202,0l-286,-395l0,-35l392,0l10,163z"/>
<glyph unicode="&#x17E;" horiz-adv-x="457" d="M275,571l102,148l-25,20l-114,-105l-114,105l-25,-20l102,-148 z M380,163l-30,-121l-218,0l285,395l0,36l-373,0l-8,-150l51,-4l27,111l202,0l-286,-395l0,-35l392,0l10,163z"/>
<glyph unicode="&#x17C;" horiz-adv-x="457" d="M235,598C273,598 302,625 302,663C302,701 273,727 235,727C197,727 168,701 168,663C168,625 197,598 235,598 z M380,163l-30,-121l-218,0l285,395l0,36l-373,0l-8,-150l51,-4l27,111l202,0l-286,-395l0,-35l392,0l10,163z"/>
<glyph unicode="&#xF0;" horiz-adv-x="545" d="M271,30C188,30 139,99 139,227C139,356 184,427 271,427C353,427 404,363 404,231C404,104 361,30 271,30 z M491,695l-19,38l-151,-78C277,692 226,723 171,749l-20,-33C197,686 236,658 268,628l-129,-66l19,-38l141,72C342,548 371,493 393,422C363,456 318,473 266,473C155,473 45,387 45,232C45,71 151,-15 262,-15C409,-15 494,96 494,278C494,424 440,538 354,625z"/>
<glyph unicode="&#xFE;" horiz-adv-x="553" d="M173,381C224,422 261,434 292,434C367,434 419,362 419,234C419,105 358,42 286,42C251,42 212,58 173,93 z M170,579l4,142l-14,8l-154,-45l0,-35l82,-10l0,-667C88,-81 87,-135 86,-189l-80,-14l0,-35l257,0l0,35l-91,15C171,-135 170,-80 170,-28l0,77C211,1 256,-15 303,-15C420,-15 508,88 508,242C508,397 424,491 318,491C266,491 216,469 170,420z"/>
<glyph unicode="&#xE001;" horiz-adv-x="617" d="M517,50C516,100 515,166 515,210l0,135l3,136l-15,10l-103,-18l-200,0C198,569 213,624 248,660C275,688 313,705 361,708l42,-57C422,625 442,610 467,610C495,610 513,628 518,650C517,710 449,749 362,749C305,749 246,735 198,691C145,643 128,582 118,475l-83,-11l0,-44l82,0l0,-210C117,157 116,103 115,50l-79,-14l0,-36l257,0l0,36l-89,15C203,104 202,157 202,210l0,210l226,0C430,369 431,330 431,261l0,-51C431,166 430,100 429,50l-75,-14l0,-36l232,0l0,36z"/>
<glyph unicode="&#xE002;" horiz-adv-x="612" d="M508,50C507,103 506,157 506,210l0,369l4,142l-14,8l-28,-14C445,737 400,749 355,749C309,749 254,738 203,695C146,646 128,584 118,475l-83,-11l0,-44l82,0l0,-210C117,157 116,103 115,50l-79,-14l0,-36l257,0l0,36l-89,15C203,104 202,157 202,210l0,210l135,0l0,53l-137,0C197,564 211,621 250,663C267,682 285,694 309,704l6,-5C351,669 389,651 421,649l0,-439C421,157 420,103 419,50l-79,-14l0,-36l247,0l0,36z"/>
<glyph unicode="&#xE003;" horiz-adv-x="645" d="M619,70C593,51 578,42 554,42C518,42 496,64 496,116l0,304l136,0l0,53l-134,0l5,138l-61,0l-25,-138l-217,0C198,569 213,626 234,661C244,679 256,692 268,701l25,-20C318,661 340,650 365,650C401,650 424,670 426,696C416,734 377,749 329,749C284,749 232,735 189,688C146,642 128,582 118,475l-83,-11l0,-44l82,0l0,-210C117,157 116,103 115,50l-79,-14l0,-36l257,0l0,36l-89,15C203,104 202,157 202,210l0,210l210,0l0,-231C412,150 411,129 411,104C411,26 454,-10 529,-10C576,-10 617,10 642,43z"/>
<glyph unicode="&amp;" horiz-adv-x="722" d="M260,49C168,49 114,125 114,202C114,252 136,311 214,353C245,319 274,285 306,250C348,204 382,163 417,121C378,82 323,49 260,49 z M222,455C183,496 166,529 166,563C166,613 206,648 258,648C308,648 345,612 345,553C345,499 312,454 260,415 z M698,432l0,41l-215,0l0,-41l98,-14C552,335 517,256 470,185C430,232 390,278 360,310l-74,78C374,439 411,490 411,556C411,631 358,684 262,684C167,684 95,630 95,544C95,484 130,441 179,390l9,-9C83,327 26,264 26,175C26,71 114,-15 241,-15C337,-15 401,32 446,87C457,75 468,63 479,50C511,12 543,-10 611,-10C639,-10 663,-6 684,0l0,36l-108,21C552,86 524,119 496,154C551,236 594,324 629,421z"/>
<glyph unicode="0" horiz-adv-x="499" d="M134,322C134,558 189,614 251,614C311,614 367,557 367,322C367,88 311,30 251,30C189,30 134,87 134,322 z M251,659C144,659 41,570 41,322C41,74 144,-15 251,-15C356,-15 460,74 460,322C460,570 356,659 251,659z"/>
<glyph unicode="1" horiz-adv-x="499" d="M303,60C302,110 301,161 301,211l0,291l4,143l-14,9l-205,-52l0,-41l130,11l0,-361C216,161 215,110 214,60l-140,-24l0,-36l370,0l0,36z"/>
<glyph unicode="2" horiz-adv-x="499" d="M126,83l121,116C386,332 430,401 430,490C430,588 375,659 245,659C144,659 54,610 44,505C55,484 72,472 95,472C123,472 139,491 152,540l18,69C190,613 207,614 220,614C293,614 340,562 340,480C340,402 296,319 203,224l-154,-158l0,-66l410,0l0,83z"/>
<glyph unicode="3" horiz-adv-x="499" d="M185,610C202,613 217,614 230,614C308,614 353,572 353,499C353,414 300,366 210,366l-40,0l0,-51l49,0C321,315 371,262 371,176C371,86 321,30 222,30C207,30 188,32 167,37l-14,52C141,139 128,160 95,160C73,160 56,150 44,127C61,27 137,-15 235,-15C372,-15 460,70 460,178C460,262 411,321 310,341C391,370 439,429 439,502C439,595 364,659 247,659C156,659 80,617 62,530C71,503 90,493 112,493C147,493 159,514 171,558z"/>
<glyph unicode="4" horiz-adv-x="499" d="M85,257l212,293l0,-293 z M484,257l-104,0l0,397l-58,0l-299,-408l0,-52l274,0l0,-194l83,0l0,194l104,0z"/>
<glyph unicode="5" horiz-adv-x="499" d="M157,561l282,0l0,83l-327,0l-21,-301l28,-8C150,342 184,346 212,346C309,346 368,291 368,192C368,95 316,30 219,30C201,30 182,32 161,38l-15,54C133,145 119,160 89,160C65,160 47,149 38,126C58,33 123,-15 225,-15C365,-15 458,73 458,202C458,335 368,407 238,407C205,407 175,403 145,395z"/>
<glyph unicode="6" horiz-adv-x="499" d="M258,30C180,30 131,110 129,287C168,323 212,337 255,337C325,337 372,293 372,187C372,83 327,30 258,30 z M420,660C169,638 39,465 39,271C39,91 121,-15 255,-15C373,-15 461,59 461,202C461,322 386,397 277,397C222,397 172,373 130,327C140,476 227,580 426,628z"/>
<glyph unicode="7" horiz-adv-x="499" d="M51,644l0,-83l344,0l-262,-551l10,-10l82,0l238,593l0,51z"/>
<glyph unicode="8" horiz-adv-x="499" d="M253,29C179,29 126,81 126,154C126,221 156,262 219,300C335,244 370,207 370,149C370,82 324,29 253,29 z M250,614C314,614 349,564 349,503C349,448 330,409 271,364C170,414 145,462 145,514C145,575 194,614 250,614 z M311,345C399,398 424,458 424,505C424,595 356,659 252,659C150,659 66,597 66,493C66,425 100,366 181,320C92,275 43,225 43,148C43,40 131,-15 244,-15C366,-15 455,55 455,156C455,244 407,296 311,345z"/>
<glyph unicode="9" horiz-adv-x="499" d="M250,317C176,317 118,359 118,462C118,563 173,614 238,614C311,614 360,543 360,382C360,373 360,365 359,356C328,329 293,317 250,317 z M88,-19C344,39 451,206 451,398C451,558 373,659 242,659C116,659 29,576 29,452C29,330 117,256 224,256C276,256 320,272 355,304C336,167 259,77 78,18z"/>
<glyph unicode="&#xE004;" horiz-adv-x="499" d="M344,525C358,480 367,415 367,322C367,88 311,30 251,30C224,30 199,41 179,71 z M158,116C143,161 134,227 134,322C134,558 189,614 251,614C278,614 303,603 324,570 z M251,659C144,659 41,570 41,322C41,74 144,-15 251,-15C356,-15 460,74 460,322C460,570 356,659 251,659z"/>
<glyph unicode="&#xE005;" horiz-adv-x="503" d="M135,322C135,558 191,614 252,614C312,614 367,557 367,322C367,88 312,30 252,30C191,30 135,87 135,322 z M252,659C145,659 40,570 40,322C40,74 145,-15 252,-15C359,-15 463,74 463,322C463,570 359,659 252,659z"/>
<glyph unicode="&#xE006;" horiz-adv-x="426" d="M272,58C271,109 270,160 270,211l0,291l4,142l-14,10l-196,-52l0,-40l121,10l0,-361C185,160 184,109 183,58l-121,-22l0,-36l331,0l0,36z"/>
<glyph unicode="&#xE007;" horiz-adv-x="507" d="M133,83l121,116C393,332 437,401 437,490C437,588 382,659 252,659C151,659 61,610 51,505C62,484 79,472 102,472C130,472 146,491 159,540l18,69C197,613 214,614 227,614C300,614 347,562 347,480C347,402 303,319 210,224l-154,-158l0,-66l410,0l0,83z"/>
<glyph unicode="&#xE008;" horiz-adv-x="502" d="M177,610C194,613 209,614 222,614C300,614 345,572 345,499C345,414 292,366 202,366l-40,0l0,-51l49,0C313,315 363,262 363,176C363,86 313,30 214,30C199,30 180,32 159,37l-14,52C133,139 120,160 87,160C65,160 48,150 36,127C53,27 129,-15 227,-15C364,-15 452,70 452,178C452,262 403,321 302,341C383,370 431,429 431,502C431,595 356,659 239,659C148,659 72,617 54,530C63,503 82,493 104,493C139,493 151,514 163,558z"/>
<glyph unicode="&#xE009;" horiz-adv-x="497" d="M90,257l212,293l0,-293 z M489,257l-104,0l0,397l-58,0l-299,-408l0,-52l274,0l0,-194l83,0l0,194l104,0z"/>
<glyph unicode="&#xE00A;" horiz-adv-x="506" d="M160,561l282,0l0,83l-327,0l-21,-301l28,-8C153,342 187,346 215,346C312,346 371,291 371,192C371,95 319,30 222,30C204,30 185,32 164,38l-15,54C136,145 122,160 92,160C68,160 50,149 41,126C61,33 126,-15 228,-15C368,-15 461,73 461,202C461,335 371,407 241,407C208,407 178,403 148,395z"/>
<glyph unicode="&#xE00B;" horiz-adv-x="510" d="M270,30C192,30 143,110 141,287C180,323 224,337 267,337C337,337 384,293 384,187C384,83 339,30 270,30 z M432,660C181,638 51,465 51,271C51,91 133,-15 267,-15C385,-15 473,59 473,202C473,322 398,397 289,397C234,397 184,373 142,327C152,476 239,580 438,628z"/>
<glyph unicode="&#xE00C;" horiz-adv-x="475" d="M27,644l0,-83l344,0l-262,-551l10,-10l82,0l238,593l0,51z"/>
<glyph unicode="&#xE00D;" horiz-adv-x="508" d="M258,29C184,29 131,81 131,154C131,221 161,262 224,300C340,244 375,207 375,149C375,82 329,29 258,29 z M255,614C319,614 354,564 354,503C354,448 335,409 276,364C175,414 150,462 150,514C150,575 199,614 255,614 z M316,345C404,398 429,458 429,505C429,595 361,659 257,659C155,659 71,597 71,493C71,425 105,366 186,320C97,275 48,225 48,148C48,40 136,-15 249,-15C371,-15 460,55 460,156C460,244 412,296 316,345z"/>
<glyph unicode="&#xE00E;" horiz-adv-x="519" d="M266,317C192,317 134,359 134,462C134,563 189,614 254,614C327,614 376,543 376,382C376,373 376,365 375,356C344,329 309,317 266,317 z M104,-19C360,39 467,206 467,398C467,558 389,659 258,659C132,659 45,576 45,452C45,330 133,256 240,256C292,256 336,272 371,304C352,167 275,77 94,18z"/>
<glyph unicode="&#xE00F;" horiz-adv-x="503" d="M344,525C358,480 367,415 367,322C367,88 312,30 252,30C225,30 200,41 179,73 z M159,116C144,161 135,227 135,322C135,558 191,614 252,614C279,614 304,603 325,570 z M252,659C145,659 40,570 40,322C40,74 145,-15 252,-15C359,-15 463,74 463,322C463,570 359,659 252,659z"/>
<glyph unicode="&#xE010;" horiz-adv-x="499" d="M251,539C139,539 33,453 33,262C33,71 139,-15 251,-15C363,-15 468,71 468,262C468,453 363,539 251,539 z M126,262C126,442 185,494 251,494C314,494 375,441 375,262C375,83 314,30 251,30C185,30 126,82 126,262z"/>
<glyph unicode="&#xE011;" horiz-adv-x="499" d="M303,60C302,110 301,161 301,211l0,171l3,143l-14,9l-215,-54l0,-40l141,12l0,-241C216,161 215,110 214,60l-140,-24l0,-36l369,0l0,36z"/>
<glyph unicode="&#xE012;" horiz-adv-x="499" d="M137,83l110,87C377,273 424,314 424,390C424,474 368,539 247,539C150,539 54,491 43,385C54,364 72,352 94,352C123,352 139,373 152,420l18,68C191,492 211,494 227,494C289,494 333,457 333,386C333,323 294,276 204,198l-158,-132l0,-66l410,0l0,83z"/>
<glyph unicode="&#xE013;" horiz-adv-x="499" d="M185,490C202,493 217,494 230,494C308,494 353,452 353,379C353,294 300,246 210,246l-40,0l0,-51l49,0C321,195 371,142 371,56C371,-34 321,-90 222,-90C207,-90 188,-88 167,-83l-14,52C141,19 128,40 95,40C73,40 56,30 44,7C61,-93 137,-135 235,-135C372,-135 460,-50 460,58C460,142 411,201 310,221C391,250 439,309 439,382C439,475 364,539 247,539C156,539 80,497 62,410C71,383 90,373 112,373C147,373 159,394 171,438z"/>
<glyph unicode="&#xE014;" horiz-adv-x="499" d="M85,127l212,293l0,-293 z M484,127l-104,0l0,397l-58,0l-299,-408l0,-52l274,0l0,-194l83,0l0,194l104,0z"/>
<glyph unicode="&#xE015;" horiz-adv-x="499" d="M157,441l282,0l0,83l-327,0l-21,-301l28,-8C150,222 184,226 212,226C309,226 368,171 368,72C368,-25 316,-90 219,-90C201,-90 182,-88 161,-82l-15,54C133,25 119,40 89,40C65,40 47,29 38,6C58,-87 123,-135 225,-135C365,-135 458,-47 458,82C458,215 368,287 238,287C205,287 175,283 145,275z"/>
<glyph unicode="&#xE016;" horiz-adv-x="499" d="M258,30C180,30 131,110 129,287C168,323 212,337 255,337C325,337 372,293 372,187C372,83 327,30 258,30 z M420,660C169,638 39,465 39,271C39,91 121,-15 255,-15C373,-15 461,59 461,202C461,322 386,397 277,397C222,397 172,373 130,327C140,476 227,580 426,628z"/>
<glyph unicode="&#xE017;" horiz-adv-x="499" d="M46,524l0,-83l344,0l-262,-551l10,-10l82,0l238,593l0,51z"/>
<glyph unicode="&#xE018;" horiz-adv-x="499" d="M254,29C180,29 127,81 127,154C127,221 157,262 220,300C336,244 371,207 371,149C371,82 325,29 254,29 z M251,614C315,614 350,564 350,503C350,448 331,409 272,364C171,414 146,462 146,514C146,575 195,614 251,614 z M312,345C400,398 425,458 425,505C425,595 357,659 253,659C151,659 67,597 67,493C67,425 101,366 182,320C93,275 44,225 44,148C44,40 132,-15 245,-15C367,-15 456,55 456,156C456,244 408,296 312,345z"/>
<glyph unicode="&#xE019;" horiz-adv-x="499" d="M255,197C181,197 123,239 123,342C123,443 178,494 243,494C316,494 365,423 365,262C365,253 365,245 364,236C333,209 298,197 255,197 z M93,-139C349,-81 456,86 456,278C456,438 378,539 247,539C121,539 34,456 34,332C34,210 122,136 229,136C281,136 325,152 360,184C341,47 264,-43 83,-102z"/>
<glyph unicode="&#xE01A;" horiz-adv-x="551" d="M277,539C153,539 35,453 35,262C35,71 153,-15 277,-15C401,-15 516,71 516,262C516,453 401,539 277,539 z M131,262C131,442 201,494 277,494C350,494 420,441 420,262C420,83 350,30 277,30C201,30 131,82 131,262z"/>
<glyph unicode="&#xE01B;" horiz-adv-x="436" d="M282,58C281,109 280,160 280,211l0,171l3,143l-14,9l-204,-51l0,-41l130,10l0,-241C195,160 194,109 193,58l-121,-22l0,-36l331,0l0,36z"/>
<glyph unicode="&#xE01C;" horiz-adv-x="507" d="M146,83l110,87C386,273 433,314 433,390C433,474 377,539 256,539C159,539 63,491 52,385C63,364 81,352 103,352C132,352 148,373 161,420l18,68C200,492 220,494 236,494C298,494 342,457 342,386C342,323 303,276 213,198l-158,-132l0,-66l410,0l0,83z"/>
<glyph unicode="&#xE01D;" horiz-adv-x="502" d="M177,490C194,493 209,494 222,494C300,494 345,452 345,379C345,294 292,246 202,246l-40,0l0,-51l49,0C313,195 363,142 363,56C363,-34 313,-90 214,-90C199,-90 180,-88 159,-83l-14,52C133,19 120,40 87,40C65,40 48,30 36,7C53,-93 129,-135 227,-135C364,-135 452,-50 452,58C452,142 403,201 302,221C383,250 431,309 431,382C431,475 356,539 239,539C148,539 72,497 54,410C63,383 82,373 104,373C139,373 151,394 163,438z"/>
<glyph unicode="&#xE01E;" horiz-adv-x="497" d="M90,127l212,293l0,-293 z M489,127l-104,0l0,397l-58,0l-299,-408l0,-52l274,0l0,-194l83,0l0,194l104,0z"/>
<glyph unicode="&#xE01F;" horiz-adv-x="506" d="M160,441l282,0l0,83l-327,0l-21,-301l28,-8C153,222 187,226 215,226C312,226 371,171 371,72C371,-25 319,-90 222,-90C204,-90 185,-88 164,-82l-15,54C136,25 122,40 92,40C68,40 50,29 41,6C61,-87 126,-135 228,-135C368,-135 461,-47 461,82C461,215 371,287 241,287C208,287 178,283 148,275z"/>
<glyph unicode="&#xE020;" horiz-adv-x="510" d="M270,30C192,30 143,110 141,287C180,323 224,337 267,337C337,337 384,293 384,187C384,83 339,30 270,30 z M432,660C181,638 51,465 51,271C51,91 133,-15 267,-15C385,-15 473,59 473,202C473,322 398,397 289,397C234,397 184,373 142,327C152,476 239,580 438,628z"/>
<glyph unicode="&#xE021;" horiz-adv-x="475" d="M27,524l0,-83l344,0l-262,-551l10,-10l82,0l238,593l0,51z"/>
<glyph unicode="&#xE022;" horiz-adv-x="508" d="M258,29C184,29 131,81 131,154C131,221 161,262 224,300C340,244 375,207 375,149C375,82 329,29 258,29 z M255,614C319,614 354,564 354,503C354,448 335,409 276,364C175,414 150,462 150,514C150,575 199,614 255,614 z M316,345C404,398 429,458 429,505C429,595 361,659 257,659C155,659 71,597 71,493C71,425 105,366 186,320C97,275 48,225 48,148C48,40 136,-15 249,-15C371,-15 460,55 460,156C460,244 412,296 316,345z"/>
<glyph unicode="&#xE023;" horiz-adv-x="519" d="M266,197C192,197 134,239 134,342C134,443 189,494 254,494C327,494 376,423 376,262C376,253 376,245 375,236C344,209 309,197 266,197 z M104,-139C360,-81 467,86 467,278C467,438 389,539 258,539C132,539 45,456 45,332C45,210 133,136 240,136C292,136 336,152 371,184C352,47 275,-43 94,-102z"/>
<glyph unicode="." horiz-adv-x="300" d="M150,-15C190,-15 221,17 221,56C221,96 190,128 150,128C110,128 79,96 79,56C79,17 110,-15 150,-15z"/>
<glyph unicode="," horiz-adv-x="300" d="M153,-36C129,-111 75,-158 6,-192l14,-33C116,-190 214,-94 214,26C214,51 210,74 203,99C178,122 158,128 140,128C99,128 78,99 78,65C78,40 89,14 116,-8z"/>
<glyph unicode=":" horiz-adv-x="300" d="M150,347C190,347 221,379 221,418C221,458 190,490 150,490C110,490 79,458 79,418C79,379 110,347 150,347 z M150,-15C190,-15 221,17 221,56C221,96 190,128 150,128C110,128 79,96 79,56C79,17 110,-15 150,-15z"/>
<glyph unicode=";" horiz-adv-x="300" d="M150,347C190,347 221,379 221,418C221,458 190,490 150,490C110,490 79,458 79,418C79,379 110,347 150,347 z M153,-36C129,-111 75,-158 6,-192l14,-33C116,-190 214,-94 214,26C214,51 210,74 203,99C178,122 158,128 140,128C99,128 78,99 78,65C78,40 89,14 116,-8z"/>
<glyph unicode="&#x2026;" horiz-adv-x="960" d="M150,-15C190,-15 221,17 221,56C221,96 190,128 150,128C110,128 79,96 79,56C79,17 110,-15 150,-15 z M480,-15C520,-15 551,17 551,56C551,96 520,128 480,128C440,128 409,96 409,56C409,17 440,-15 480,-15 z M810,-15C850,-15 881,17 881,56C881,96 850,128 810,128C770,128 739,96 739,56C739,17 770,-15 810,-15z"/>
<glyph unicode="!" horiz-adv-x="289" d="M145,-15C181,-15 209,15 209,50C209,85 181,115 145,115C109,115 80,85 80,50C80,15 109,-15 145,-15 z M145,684C110,684 87,665 87,621C87,584 99,491 113,352l13,-136l37,0l14,136C191,491 202,584 202,621C202,665 180,684 145,684z"/>
<glyph unicode="&#xA1;" horiz-adv-x="289" d="M144,491C108,491 80,461 80,426C80,391 108,361 144,361C180,361 209,391 209,426C209,461 180,491 144,491 z M144,-208C179,-208 202,-189 202,-145C202,-108 190,-15 176,124l-13,136l-37,0l-14,-136C98,-15 87,-108 87,-145C87,-189 109,-208 144,-208z"/>
<glyph unicode="&#xE024;" horiz-adv-x="289" d="M144,684C108,684 80,654 80,619C80,584 108,554 144,554C180,554 209,584 209,619C209,654 180,684 144,684 z M144,-15C179,-15 202,4 202,48C202,85 190,178 176,317l-13,136l-37,0l-14,-136C98,178 87,85 87,48C87,4 109,-15 144,-15z"/>
<glyph unicode="?" horiz-adv-x="419" d="M149,115C113,115 84,85 84,50C84,15 113,-15 149,-15C185,-15 214,15 214,50C214,85 185,115 149,115 z M182,392C123,373 103,355 103,324C103,312 106,294 117,256l13,-42l37,0l1,54C168,300 173,309 216,323l36,12C319,357 351,399 351,461C351,589 213,674 121,684C85,675 66,659 66,629C66,604 80,585 139,574C141,574 218,561 271,553C286,529 296,504 296,480C296,447 277,424 239,411z"/>
<glyph unicode="&#xBF;" horiz-adv-x="419" d="M270,361C306,361 335,391 335,426C335,461 306,491 270,491C234,491 205,461 205,426C205,391 234,361 270,361 z M237,84C296,103 316,121 316,152C316,164 313,182 302,220l-13,42l-37,0l-1,-54C251,176 246,167 203,153l-36,-12C100,119 68,77 68,15C68,-113 206,-198 298,-208C334,-199 353,-183 353,-153C353,-128 339,-109 280,-98C278,-98 201,-85 148,-77C133,-53 123,-28 123,-4C123,29 142,52 180,65z"/>
<glyph unicode="&#xE025;" horiz-adv-x="419" d="M270,554C306,554 335,584 335,619C335,654 306,684 270,684C234,684 205,654 205,619C205,584 234,554 270,554 z M237,277C296,296 316,314 316,345C316,357 313,375 302,413l-13,42l-37,0l-1,-54C251,369 246,360 203,346l-36,-12C100,312 68,270 68,208C68,80 206,-5 298,-15C334,-6 353,10 353,40C353,65 339,84 280,95C278,95 201,108 148,116C133,140 123,165 123,189C123,222 142,245 180,258z"/>
<glyph unicode="'" horiz-adv-x="183" d="M92,737C60,737 40,718 40,674C40,635 57,533 62,500l11,-71l37,0l11,71C126,533 143,635 143,674C143,718 123,737 92,737z"/>
<glyph unicode="&quot;" horiz-adv-x="356" d="M92,737C60,737 40,718 40,674C40,635 57,533 62,500l11,-71l37,0l11,71C126,533 143,635 143,674C143,718 123,737 92,737 z M265,737C233,737 213,718 213,674C213,635 230,533 235,500l11,-71l37,0l11,71C299,533 316,635 316,674C316,718 296,737 265,737z"/>
<glyph unicode="&#x2018;" horiz-adv-x="212" d="M96,602C118,655 145,684 193,722l-19,27C100,701 37,621 37,534C37,509 43,485 51,463C67,449 85,443 105,443C141,443 164,462 164,502C164,527 155,550 124,576z"/>
<glyph unicode="&#x2019;" horiz-adv-x="212" d="M116,590C94,537 67,508 19,470l19,-27C112,491 175,571 175,658C175,683 169,707 161,729C145,743 127,749 107,749C71,749 48,730 48,690C48,665 57,642 88,616z"/>
<glyph unicode="&#x201C;" horiz-adv-x="415" d="M174,749C100,701 37,621 37,534C37,509 43,485 51,463C67,449 85,443 105,443C141,443 164,462 164,502C164,527 155,550 124,576l-28,26C118,655 145,684 193,722 z M299,602C321,655 348,684 396,722l-19,27C303,701 240,621 240,534C240,509 246,485 254,463C270,449 288,443 308,443C344,443 367,462 367,502C367,527 358,550 327,576z"/>
<glyph unicode="&#x201D;" horiz-adv-x="415" d="M116,590C94,537 67,508 19,470l19,-27C112,491 175,571 175,658C175,683 169,707 161,729C145,743 127,749 107,749C71,749 48,730 48,690C48,665 57,642 88,616 z M319,590C297,537 270,508 222,470l19,-27C315,491 378,571 378,658C378,683 372,707 364,729C348,743 330,749 310,749C274,749 251,730 251,690C251,665 260,642 291,616z"/>
<glyph unicode="&#x201A;" horiz-adv-x="212" d="M116,-10C94,-63 67,-92 19,-130l19,-27C112,-109 175,-29 175,58C175,83 169,107 161,129C145,143 127,149 107,149C71,149 48,130 48,90C48,65 57,42 88,16z"/>
<glyph unicode="&#x201E;" horiz-adv-x="415" d="M116,-10C94,-63 67,-92 19,-130l19,-27C112,-109 175,-29 175,58C175,83 169,107 161,129C145,143 127,149 107,149C71,149 48,130 48,90C48,65 57,42 88,16 z M319,-10C297,-63 270,-92 222,-130l19,-27C315,-109 378,-29 378,58C378,83 372,107 364,129C348,143 330,149 310,149C274,149 251,130 251,90C251,65 260,42 291,16z"/>
<glyph unicode="&#x2039;" horiz-adv-x="282" d="M257,426l-25,28l-202,-174l0,-55l202,-174l25,28l-149,174z"/>
<glyph unicode="&#x203A;" horiz-adv-x="282" d="M50,454l-25,-28l149,-173l-149,-174l25,-28l202,174l0,55z"/>
<glyph unicode="&#xAB;" horiz-adv-x="483" d="M257,426l-25,28l-202,-174l0,-55l202,-174l25,28l-149,174 z M458,426l-25,28l-202,-174l0,-55l202,-174l25,28l-149,174z"/>
<glyph unicode="&#xBB;" horiz-adv-x="483" d="M252,280l-202,174l-25,-28l149,-173l-149,-174l25,-28l202,174 z M251,454l-25,-28l149,-173l-149,-174l25,-28l202,174l0,55z"/>
<glyph unicode="-" horiz-adv-x="312" d="M40,218l232,0l0,66l-232,0z"/>
<glyph unicode="&#xAD;" horiz-adv-x="312" d="M40,218l232,0l0,66l-232,0z"/>
<glyph unicode="&#x2013;" horiz-adv-x="512" d="M40,218l432,0l0,66l-432,0z"/>
<glyph unicode="&#x2014;" horiz-adv-x="812" d="M40,218l732,0l0,66l-732,0z"/>
<glyph unicode="&#x2012;" horiz-adv-x="499" d="M40,218l419,0l0,66l-419,0z"/>
<glyph unicode="&#x2015;" horiz-adv-x="812" d="M40,218l732,0l0,66l-732,0z"/>
<glyph unicode="&#xB7;" horiz-adv-x="300" d="M150,258C190,258 221,290 221,329C221,369 190,401 150,401C110,401 79,369 79,329C79,290 110,258 150,258z"/>
<glyph unicode="&#x2022;" horiz-adv-x="305" d="M153,215C212,215 264,261 264,330C264,398 212,445 153,445C93,445 41,398 41,330C41,261 93,215 153,215z"/>
<glyph unicode="_" horiz-adv-x="512" d="M40,-66l432,0l0,66l-432,0z"/>
<glyph unicode="(" horiz-adv-x="339" d="M160,278C160,436 196,554 314,726l-26,21C147,616 78,460 78,278C78,96 147,-60 288,-191l26,21C196,2 160,120 160,278z"/>
<glyph unicode=")" horiz-adv-x="339" d="M179,278C179,120 143,2 25,-170l26,-21C192,-60 261,96 261,278C261,460 192,616 51,747l-26,-21C143,554 179,436 179,278z"/>
<glyph unicode="[" horiz-adv-x="320" d="M290,674l0,41l-190,0C103,610 103,503 103,398l0,-240C103,51 103,-56 100,-159l190,0l0,41l-111,13C177,-18 177,71 177,158l0,240C177,487 177,575 179,661z"/>
<glyph unicode="]" horiz-adv-x="320" d="M217,398C217,505 217,612 220,715l-190,0l0,-41l111,-13C143,574 143,485 143,398l0,-240C143,69 143,-19 141,-105l-111,-13l0,-41l190,0C217,-54 217,53 217,158z"/>
<glyph unicode="{" horiz-adv-x="344" d="M314,675l0,40l-45,0C174,715 117,673 117,593C117,511 159,444 159,390C159,340 124,308 40,298l0,-40C124,248 159,216 159,166C159,112 117,45 117,-37C117,-117 174,-159 269,-159l45,0l0,40l-27,3C218,-108 200,-92 200,-34C200,43 212,114 212,155C212,218 184,263 121,278C184,293 212,338 212,401C212,442 200,513 200,590C200,648 218,664 287,672z"/>
<glyph unicode="}" horiz-adv-x="344" d="M304,298C220,308 185,340 185,390C185,444 227,511 227,593C227,673 170,715 75,715l-45,0l0,-40l27,-3C126,664 144,648 144,590C144,513 132,442 132,401C132,338 160,293 223,278C160,263 132,218 132,155C132,114 144,43 144,-34C144,-92 126,-108 57,-116l-27,-3l0,-40l45,0C170,-159 227,-117 227,-37C227,45 185,112 185,166C185,216 220,248 304,258z"/>
<glyph unicode="&#xE026;" horiz-adv-x="282" d="M257,471l-25,28l-202,-174l0,-55l202,-174l25,28l-149,174z"/>
<glyph unicode="&#xE027;" horiz-adv-x="282" d="M50,499l-25,-28l149,-173l-149,-174l25,-28l202,174l0,55z"/>
<glyph unicode="&#xE028;" horiz-adv-x="463" d="M257,471l-25,28l-202,-174l0,-55l202,-174l25,28l-149,174 z M458,471l-25,28l-202,-174l0,-55l202,-174l25,28l-149,174z"/>
<glyph unicode="&#xE029;" horiz-adv-x="463" d="M252,325l-202,174l-25,-28l149,-173l-149,-174l25,-28l202,174 z M251,499l-25,-28l149,-173l-149,-174l25,-28l202,174l0,55z"/>
<glyph unicode="&#xE02A;" horiz-adv-x="312" d="M40,273l232,0l0,66l-232,0z"/>
<glyph unicode="&#xE02B;" horiz-adv-x="312" d="M40,273l232,0l0,66l-232,0z"/>
<glyph unicode="&#xE02C;" horiz-adv-x="512" d="M40,273l432,0l0,66l-432,0z"/>
<glyph unicode="&#xE02D;" horiz-adv-x="812" d="M40,273l732,0l0,66l-732,0z"/>
<glyph unicode="&#xE02E;" horiz-adv-x="812" d="M40,273l732,0l0,66l-732,0z"/>
<glyph unicode="&#xE02F;" horiz-adv-x="339" d="M160,313C160,471 196,589 314,761l-26,21C147,651 78,495 78,313C78,131 147,-25 288,-156l26,21C196,37 160,155 160,313z"/>
<glyph unicode="&#xE030;" horiz-adv-x="339" d="M179,313C179,155 143,37 25,-135l26,-21C192,-25 261,131 261,313C261,495 192,651 51,782l-26,-21C143,589 179,471 179,313z"/>
<glyph unicode="&#xE031;" horiz-adv-x="320" d="M290,709l0,41l-190,0C103,645 103,538 103,433l0,-240C103,86 103,-21 100,-124l190,0l0,41l-111,13C177,17 177,106 177,193l0,240C177,522 177,610 179,696z"/>
<glyph unicode="&#xE032;" horiz-adv-x="320" d="M217,433C217,540 217,647 220,750l-190,0l0,-41l111,-13C143,609 143,520 143,433l0,-240C143,104 143,16 141,-70l-111,-13l0,-41l190,0C217,-19 217,88 217,193z"/>
<glyph unicode="&#xE033;" horiz-adv-x="344" d="M314,710l0,40l-45,0C174,750 117,708 117,628C117,546 159,479 159,425C159,375 124,343 40,333l0,-40C124,283 159,251 159,201C159,147 117,80 117,-2C117,-82 174,-124 269,-124l45,0l0,40l-27,3C218,-73 200,-57 200,1C200,78 212,149 212,190C212,253 184,298 121,313C184,328 212,373 212,436C212,477 200,548 200,625C200,683 218,699 287,707z"/>
<glyph unicode="&#xE034;" horiz-adv-x="344" d="M304,333C220,343 185,375 185,425C185,479 227,546 227,628C227,708 170,750 75,750l-45,0l0,-40l27,-3C126,699 144,683 144,625C144,548 132,477 132,436C132,373 160,328 223,313C160,298 132,253 132,190C132,149 144,78 144,1C144,-57 126,-73 57,-81l-27,-3l0,-40l45,0C170,-124 227,-82 227,-2C227,80 185,147 185,201C185,251 220,283 304,293z"/>
<glyph unicode="/" horiz-adv-x="330" d="M2,-160l59,0l267,870l-59,0z"/>
<glyph unicode="|" horiz-adv-x="252" d="M97,-250l58,0l0,1000l-58,0z"/>
<glyph unicode="\" horiz-adv-x="330" d="M61,710l-59,0l267,-870l59,0z"/>
<glyph unicode="&#xA6;" horiz-adv-x="252" d="M97,-250l58,0l0,450l-58,0 z M155,320l0,430l-58,0l0,-430z"/>
<glyph unicode="*" horiz-adv-x="440" d="M220,747C199,747 185,737 185,711C185,692 191,652 198,607l7,-47l-43,21C112,606 76,628 53,628C33,628 20,612 20,592C20,556 68,552 149,540l47,-8l-34,-35C116,450 81,424 81,396C81,376 98,364 115,364C147,364 164,407 198,473l22,42l22,-42C276,407 293,364 324,364C341,364 358,376 358,396C358,424 323,451 277,497l-34,35l48,8C371,552 420,554 420,592C420,612 406,627 387,627C366,627 327,606 277,581l-43,-21l7,47C248,652 256,693 256,711C256,737 240,747 220,747z"/>
<glyph unicode="&#x2020;" horiz-adv-x="512" d="M273,499l10,52C288,579 300,640 300,671C300,705 283,718 256,718C229,718 212,705 212,671C212,640 224,579 229,551l10,-52l-52,11C155,516 114,526 87,526C53,526 39,509 39,482C39,455 53,439 87,439C114,439 155,448 187,455l52,11C224,398 215,364 215,309C215,267 226,139 243,-72l27,0C287,139 297,266 297,309C297,365 288,398 273,466l52,-11C358,448 398,439 425,439C459,439 473,455 473,482C473,509 459,526 425,526C398,526 357,516 325,510z"/>
<glyph unicode="&#x2021;" horiz-adv-x="512" d="M273,161C288,227 297,260 297,314C297,369 288,401 273,466l52,-11C358,448 398,439 425,439C459,439 473,455 473,482C473,509 459,526 425,526C398,526 357,516 325,510l-52,-11l10,52C288,579 300,640 300,671C300,705 283,718 256,718C229,718 212,705 212,671C212,640 224,579 229,551l10,-52l-52,11C155,516 114,526 87,526C53,526 39,509 39,482C39,455 53,439 87,439C114,439 155,448 187,455l52,11C224,401 215,368 215,314C215,261 224,227 239,161l-52,11C155,179 114,188 87,188C53,188 39,172 39,145C39,118 53,101 87,101C114,101 155,111 187,117l52,11l-10,-52C224,48 212,-13 212,-44C212,-78 229,-91 256,-91C283,-91 300,-78 300,-44C300,-13 288,48 283,76l-10,52l52,-11C357,111 398,101 425,101C459,101 473,118 473,145C473,172 459,188 425,188C398,188 358,179 325,172z"/>
<glyph unicode="&#xA7;" horiz-adv-x="490" d="M339,166C310,190 273,209 238,225C178,252 116,282 116,344C116,372 129,400 152,421C176,400 208,381 250,362C322,330 375,306 375,249C375,220 361,189 339,166 z M311,591C329,555 348,538 377,538C398,538 415,548 424,576C421,633 353,684 263,684C147,684 92,612 92,541C92,506 103,475 127,446C73,414 45,371 45,319C45,227 115,188 201,147C277,111 324,86 324,30C324,-16 291,-55 220,-55C214,-55 208,-55 202,-54l-23,47C160,29 142,46 113,46C91,46 75,36 66,8C69,-49 137,-100 227,-100C335,-100 399,-27 399,52C399,87 386,116 365,140C415,172 445,215 445,273C445,357 388,395 290,440C224,470 166,502 166,563C166,603 199,638 269,638C275,638 281,638 288,637z"/>
<glyph unicode="&#xB6;" horiz-adv-x="600" d="M556,628l0,41l-200,0C154,669 25,567 25,412C25,258 136,150 327,149l0,473l58,0l0,-441C385,76 385,-28 382,-129l83,0C462,-26 462,78 462,181l0,178C462,446 462,533 464,617z"/>
<glyph unicode="&#xA9;" horiz-adv-x="755" d="M459,186C437,178 415,175 402,175C323,175 271,232 271,337C271,443 329,499 401,499C417,499 435,496 454,489l11,-72l44,0l-2,95C468,534 436,540 393,540C282,540 199,453 199,337C199,218 278,134 394,134C436,134 476,142 512,161l3,95l-45,0 z M378,25C210,25 81,145 81,336C81,528 210,643 378,643C545,643 674,527 674,336C674,146 545,25 378,25 z M378,684C185,684 30,554 30,336C30,119 185,-15 378,-15C571,-15 725,119 725,336C725,554 571,684 378,684z"/>
<glyph unicode="&#x2117;" horiz-adv-x="755" d="M364,318l0,175l32,0C459,493 488,463 488,406C488,354 459,318 388,318 z M241,531l0,-35l61,-6l0,-308l-61,-6l0,-34l187,0l0,34l-64,7l0,98l16,0C508,281 555,339 555,405C555,482 503,531 408,531 z M378,25C210,25 81,145 81,336C81,528 210,643 378,643C545,643 674,527 674,336C674,146 545,25 378,25 z M378,684C185,684 30,554 30,336C30,119 185,-15 378,-15C571,-15 725,119 725,336C725,554 571,684 378,684z"/>
<glyph unicode="&#xAE;" horiz-adv-x="459" d="M209,603l13,0C249,603 262,590 262,565C262,543 251,525 222,525l-13,0 z M303,478C299,499 282,511 259,516C295,526 308,548 308,569C308,599 280,620 232,620l-95,0l0,-16l29,-3l0,-164l-29,-3l0,-15l100,0l0,15l-28,3l0,71l14,0C241,508 254,501 257,484l9,-43C271,420 281,415 306,415C317,415 323,416 336,419l0,15l-23,3 z M229,348C138,348 69,410 69,516C69,622 138,682 229,682C321,682 390,622 390,516C390,410 321,348 229,348 z M229,712C122,712 30,639 30,516C30,393 122,318 229,318C336,318 429,393 429,516C429,639 336,712 229,712z"/>
<glyph unicode="&#x2122;" horiz-adv-x="722" d="M276,669l-262,0l-2,-85l33,0l8,56l59,0l0,-232l-41,-5l0,-28l147,0l0,28l-41,5l0,232l59,0l8,-56l34,0 z M692,641l0,28l-96,0l-94,-202l-98,202l-89,0l0,-28l34,-3l0,-229l-39,-6l0,-28l107,0l0,28l-39,6l0,178l97,-212l17,0l99,219l0,-187l-37,-4l0,-28l138,0l0,28l-36,4l0,231z"/>
<glyph unicode="&#x2120;" horiz-adv-x="685" d="M134,558C106,570 87,588 87,610C87,634 110,650 140,650C150,650 161,648 172,645l9,-56l37,0l3,63C200,667 170,675 137,675C71,675 31,637 31,586C31,541 61,519 114,495l22,-10C167,470 181,454 181,435C181,411 159,393 123,393C108,393 94,396 80,400l-9,58l-38,0l-3,-67C54,375 91,367 124,367C196,367 241,406 241,459C241,497 220,522 157,548 z M655,641l0,28l-96,0l-94,-202l-98,202l-89,0l0,-28l34,-3l0,-229l-39,-6l0,-28l107,0l0,28l-39,6l0,178l97,-212l17,0l99,219l0,-187l-37,-4l0,-28l138,0l0,28l-36,4l0,231z"/>
<glyph unicode="@" horiz-adv-x="840" d="M477,170C476,164 475,158 474,153C428,114 401,102 373,102C325,102 303,134 303,198C303,269 328,323 358,364C390,407 429,424 460,424C482,424 502,416 521,393 z M603,454l-19,16l-48,-24C514,464 493,471 468,471C414,471 361,440 317,387C270,333 233,258 233,179C233,81 286,42 341,42C391,42 434,74 475,119C482,71 518,42 575,42C676,42 805,129 805,324C805,515 682,648 477,648C227,648 35,454 35,204C35,-35 195,-157 399,-157C459,-157 530,-145 589,-114l-13,30C532,-105 483,-116 420,-116C246,-116 97,-6 97,211C97,420 252,606 470,606C626,606 744,507 744,332C744,159 669,90 599,90C555,90 535,119 545,168z"/>
<glyph unicode="&#xE035;" horiz-adv-x="840" d="M477,244C476,238 475,232 474,227C428,188 401,176 373,176C325,176 303,208 303,272C303,343 328,397 358,438C390,481 429,498 460,498C482,498 502,490 521,467 z M603,528l-19,16l-48,-24C514,538 493,545 468,545C414,545 361,514 317,461C270,407 233,332 233,253C233,155 286,116 341,116C391,116 434,148 475,193C482,145 518,116 575,116C676,116 805,203 805,398C805,589 682,722 477,722C227,722 35,528 35,278C35,39 195,-83 399,-83C459,-83 530,-71 589,-40l-13,30C532,-31 483,-42 420,-42C246,-42 97,68 97,285C97,494 252,680 470,680C626,680 744,581 744,406C744,233 669,164 599,164C555,164 535,193 545,242z"/>
<glyph unicode="#" horiz-adv-x="525" d="M331,261l-156,0l20,130l156,0 z M500,391l0,82l-89,0l27,177l-47,0l-27,-177l-157,0l28,177l-47,0l-28,-177l-104,0l0,-82l92,0l-20,-130l-103,0l0,-82l90,0l-28,-179l47,0l28,179l157,0l-28,-179l47,0l28,179l103,0l0,82l-91,0l20,130z"/>
<glyph unicode="&#xE036;" horiz-adv-x="366" d="M116,623C116,766 150,793 184,793C219,793 250,765 250,623C250,481 219,453 184,453C150,453 116,481 116,623 z M184,827C113,827 43,768 43,623C43,478 113,419 184,419C255,419 323,478 323,623C323,768 255,827 184,827z"/>
<glyph unicode="&#xE037;" horiz-adv-x="339" d="M211,470l0,352l-9,6l-131,-32l0,-34l68,6l0,-298l-74,-15l0,-30l219,0l0,30z"/>
<glyph unicode="&#xE038;" horiz-adv-x="365" d="M126,496l49,46C266,625 305,670 305,727C305,779 271,831 183,831C113,831 51,797 46,729C54,715 66,706 82,706C101,706 113,717 122,756l9,38C141,795 149,796 157,796C204,796 232,769 232,719C232,668 203,621 144,564l-92,-89l0,-50l268,0l0,71z"/>
<glyph unicode="&#xE039;" horiz-adv-x="363" d="M131,794C140,795 148,796 155,796C200,796 228,771 228,724C228,678 201,653 147,653l-26,0l0,-40l31,0C215,613 243,583 243,534C243,481 210,449 152,449C141,449 130,450 119,453l-8,37C104,527 90,537 71,537C57,537 44,531 37,511C46,451 93,416 171,416C246,416 317,449 317,531C317,587 284,623 225,634C269,648 299,686 299,733C299,792 249,831 175,831C111,831 59,801 50,738C58,724 71,717 85,717C103,717 119,728 124,758z"/>
<glyph unicode="&#xE03A;" horiz-adv-x="364" d="M86,583l122,174l0,-174 z M336,583l-63,0l0,245l-48,0l-189,-256l0,-48l172,0l0,-99l65,0l0,99l63,0z"/>
<glyph unicode="&#xE03B;" horiz-adv-x="363" d="M122,750l184,0l0,71l-215,0l-14,-185l18,-13C114,627 136,630 156,630C217,630 246,599 246,544C246,485 213,449 165,449C152,449 139,451 124,455l-7,36C110,528 98,539 80,539C62,539 48,528 43,506C50,456 95,416 172,416C256,416 320,464 320,548C320,633 258,675 175,675C156,675 136,673 116,669z"/>
<glyph unicode="&#xE03C;" horiz-adv-x="370" d="M196,449C149,449 122,495 122,603C145,620 168,628 192,628C233,628 261,605 261,542C261,478 235,449 196,449 z M294,834C132,824 48,700 48,586C48,486 103,416 195,416C271,416 330,463 330,550C330,625 286,671 210,671C178,671 149,661 125,641C137,719 190,784 298,805z"/>
<glyph unicode="&#xE03D;" horiz-adv-x="345" d="M35,821l0,-71l211,0l-165,-319l6,-6l64,0l151,355l0,41z"/>
<glyph unicode="&#xE03E;" horiz-adv-x="370" d="M185,448C143,448 111,474 111,517C111,550 126,582 159,603C235,568 256,547 256,515C256,480 231,448 185,448 z M187,797C225,797 245,775 245,734C245,706 236,682 207,657C140,688 125,716 125,742C125,779 153,797 187,797 z M237,643C289,675 304,705 304,736C304,790 257,831 189,831C122,831 64,792 64,722C64,682 86,645 130,618C78,593 48,560 48,514C48,450 105,416 183,416C265,416 322,460 322,531C322,581 293,614 237,643z"/>
<glyph unicode="&#xE03F;" horiz-adv-x="371" d="M192,623C148,623 114,646 114,709C114,772 146,796 181,796C225,796 251,758 251,665C251,656 251,648 250,640C232,628 212,623 192,623 z M91,416C234,436 325,528 325,657C325,764 272,831 184,831C104,831 44,775 44,700C44,625 99,580 173,580C201,580 225,587 245,600C231,526 186,476 84,446z"/>
<glyph unicode="&#xE040;" horiz-adv-x="250" d="M116,597C116,683 141,759 214,860l-21,19C100,801 52,707 52,597C52,487 100,394 193,316l21,19C141,435 116,512 116,597z"/>
<glyph unicode="&#xE041;" horiz-adv-x="250" d="M134,597C134,512 109,435 37,335l20,-19C151,394 199,487 199,597C199,707 151,801 57,879l-20,-19C109,759 134,683 134,597z"/>
<glyph unicode="&#xE042;" horiz-adv-x="231" d="M116,416C143,416 164,439 164,467C164,494 143,518 116,518C88,518 67,494 67,467C67,439 88,416 116,416z"/>
<glyph unicode="&#xE043;" horiz-adv-x="219" d="M120,402C105,364 70,341 35,331l8,-28C101,318 163,372 163,448C163,465 160,481 155,500C140,514 127,518 115,518C86,518 70,496 70,469C70,450 78,432 97,418z"/>
<glyph unicode="&#xE044;" horiz-adv-x="231" d="M115,630C143,630 164,653 164,682C164,710 143,733 115,733C88,733 67,710 67,682C67,653 88,630 115,630 z M115,416C143,416 164,439 164,467C164,494 143,518 115,518C88,518 67,494 67,467C67,439 88,416 115,416z"/>
<glyph unicode="&#xE045;" horiz-adv-x="244" d="M45,556l153,0l0,49l-153,0z"/>
<glyph unicode="&#xE046;" horiz-adv-x="372" d="M45,556l282,0l0,49l-282,0z"/>
<glyph unicode="&#xE047;" horiz-adv-x="564" d="M45,556l474,0l0,49l-474,0z"/>
<glyph unicode="&#xE048;" horiz-adv-x="366" d="M116,-15C116,128 150,155 184,155C219,155 250,127 250,-15C250,-157 219,-185 184,-185C150,-185 116,-157 116,-15 z M184,189C113,189 43,130 43,-15C43,-160 113,-219 184,-219C255,-219 323,-160 323,-15C323,130 255,189 184,189z"/>
<glyph unicode="&#xE049;" horiz-adv-x="339" d="M211,-168l0,352l-9,6l-131,-32l0,-34l68,6l0,-298l-74,-15l0,-30l219,0l0,30z"/>
<glyph unicode="&#xE04A;" horiz-adv-x="365" d="M126,-142l49,46C266,-13 305,32 305,89C305,141 271,193 183,193C113,193 51,159 46,91C54,77 66,68 82,68C101,68 113,79 122,118l9,38C141,157 149,158 157,158C204,158 232,131 232,81C232,30 203,-17 144,-74l-92,-89l0,-50l268,0l0,71z"/>
<glyph unicode="&#xE04B;" horiz-adv-x="363" d="M131,156C140,157 148,158 155,158C200,158 228,133 228,86C228,40 201,15 147,15l-26,0l0,-40l31,0C215,-25 243,-55 243,-104C243,-157 210,-189 152,-189C141,-189 130,-188 119,-185l-8,37C104,-111 90,-101 71,-101C57,-101 44,-107 37,-127C46,-187 93,-222 171,-222C246,-222 317,-189 317,-107C317,-51 284,-15 225,-4C269,10 299,48 299,95C299,154 249,193 175,193C111,193 59,163 50,100C58,86 71,79 85,79C103,79 119,90 124,120z"/>
<glyph unicode="&#xE04C;" horiz-adv-x="364" d="M86,-55l122,174l0,-174 z M336,-55l-63,0l0,245l-48,0l-189,-256l0,-48l172,0l0,-99l65,0l0,99l63,0z"/>
<glyph unicode="&#xE04D;" horiz-adv-x="363" d="M122,112l184,0l0,71l-215,0l-14,-185l18,-13C114,-11 136,-8 156,-8C217,-8 246,-39 246,-94C246,-153 213,-189 165,-189C152,-189 139,-187 124,-183l-7,36C110,-110 98,-99 80,-99C62,-99 48,-110 43,-132C50,-182 95,-222 172,-222C256,-222 320,-174 320,-90C320,-5 258,37 175,37C156,37 136,35 116,31z"/>
<glyph unicode="&#xE04E;" horiz-adv-x="370" d="M196,-189C149,-189 122,-143 122,-35C145,-18 168,-10 192,-10C233,-10 261,-33 261,-96C261,-160 235,-189 196,-189 z M294,196C132,186 48,62 48,-52C48,-152 103,-222 195,-222C271,-222 330,-175 330,-88C330,-13 286,33 210,33C178,33 149,23 125,3C137,81 190,146 298,167z"/>
<glyph unicode="&#xE04F;" horiz-adv-x="345" d="M35,183l0,-71l211,0l-165,-319l6,-6l64,0l151,355l0,41z"/>
<glyph unicode="&#xE050;" horiz-adv-x="370" d="M185,-190C143,-190 111,-164 111,-121C111,-88 126,-56 159,-35C235,-70 256,-91 256,-123C256,-158 231,-190 185,-190 z M187,159C225,159 245,137 245,96C245,68 236,44 207,19C140,50 125,78 125,104C125,141 153,159 187,159 z M237,5C289,37 304,67 304,98C304,152 257,193 189,193C122,193 64,154 64,84C64,44 86,7 130,-20C78,-45 48,-78 48,-124C48,-188 105,-222 183,-222C265,-222 322,-178 322,-107C322,-57 293,-24 237,5z"/>
<glyph unicode="&#xE051;" horiz-adv-x="371" d="M192,-15C148,-15 114,8 114,71C114,134 146,158 181,158C225,158 251,120 251,27C251,18 251,10 250,2C232,-10 212,-15 192,-15 z M91,-222C234,-202 325,-110 325,19C325,126 272,193 184,193C104,193 44,137 44,62C44,-13 99,-58 173,-58C201,-58 225,-51 245,-38C231,-112 186,-162 84,-192z"/>
<glyph unicode="&#xE052;" horiz-adv-x="250" d="M116,-41C116,45 141,121 214,222l-21,19C100,163 52,69 52,-41C52,-151 100,-244 193,-322l21,19C141,-203 116,-126 116,-41z"/>
<glyph unicode="&#xE053;" horiz-adv-x="250" d="M134,-41C134,-126 109,-203 37,-303l20,-19C151,-244 199,-151 199,-41C199,69 151,163 57,241l-20,-19C109,121 134,45 134,-41z"/>
<glyph unicode="&#xE054;" horiz-adv-x="231" d="M116,-222C143,-222 164,-199 164,-171C164,-144 143,-120 116,-120C88,-120 67,-144 67,-171C67,-199 88,-222 116,-222z"/>
<glyph unicode="&#xE055;" horiz-adv-x="219" d="M120,-236C105,-274 70,-297 35,-307l8,-28C101,-320 163,-266 163,-190C163,-173 160,-157 155,-138C140,-124 127,-120 115,-120C86,-120 70,-142 70,-169C70,-188 78,-206 97,-220z"/>
<glyph unicode="&#xE056;" horiz-adv-x="366" d="M116,198C116,341 150,368 184,368C219,368 250,340 250,198C250,56 219,28 184,28C150,28 116,56 116,198 z M184,402C113,402 43,343 43,198C43,53 113,-6 184,-6C255,-6 323,53 323,198C323,343 255,402 184,402z"/>
<glyph unicode="&#xE057;" horiz-adv-x="339" d="M211,45l0,352l-9,6l-131,-32l0,-34l68,6l0,-298l-74,-15l0,-30l219,0l0,30z"/>
<glyph unicode="&#xE058;" horiz-adv-x="365" d="M126,71l49,46C266,200 305,245 305,302C305,354 271,406 183,406C113,406 51,372 46,304C54,290 66,281 82,281C101,281 113,292 122,331l9,38C141,370 149,371 157,371C204,371 232,344 232,294C232,243 203,196 144,139l-92,-89l0,-50l268,0l0,71z"/>
<glyph unicode="&#xE059;" horiz-adv-x="363" d="M131,369C140,370 148,371 155,371C200,371 228,346 228,299C228,253 201,228 147,228l-26,0l0,-40l31,0C215,188 243,158 243,109C243,56 210,24 152,24C141,24 130,25 119,28l-8,37C104,102 90,112 71,112C57,112 44,106 37,86C46,26 93,-9 171,-9C246,-9 317,24 317,106C317,162 284,198 225,209C269,223 299,261 299,308C299,367 249,406 175,406C111,406 59,376 50,313C58,299 71,292 85,292C103,292 119,303 124,333z"/>
<glyph unicode="&#xE05A;" horiz-adv-x="364" d="M86,158l122,174l0,-174 z M336,158l-63,0l0,245l-48,0l-189,-256l0,-48l172,0l0,-99l65,0l0,99l63,0z"/>
<glyph unicode="&#xE05B;" horiz-adv-x="363" d="M122,325l184,0l0,71l-215,0l-14,-185l18,-13C114,202 136,205 156,205C217,205 246,174 246,119C246,60 213,24 165,24C152,24 139,26 124,30l-7,36C110,103 98,114 80,114C62,114 48,103 43,81C50,31 95,-9 172,-9C256,-9 320,39 320,123C320,208 258,250 175,250C156,250 136,248 116,244z"/>
<glyph unicode="&#xE05C;" horiz-adv-x="370" d="M196,24C149,24 122,70 122,178C145,195 168,203 192,203C233,203 261,180 261,117C261,53 235,24 196,24 z M294,409C132,399 48,275 48,161C48,61 103,-9 195,-9C271,-9 330,38 330,125C330,200 286,246 210,246C178,246 149,236 125,216C137,294 190,359 298,380z"/>
<glyph unicode="&#xE05D;" horiz-adv-x="345" d="M35,396l0,-71l211,0l-165,-319l6,-6l64,0l151,355l0,41z"/>
<glyph unicode="&#xE05E;" horiz-adv-x="370" d="M185,23C143,23 111,49 111,92C111,125 126,157 159,178C235,143 256,122 256,90C256,55 231,23 185,23 z M187,372C225,372 245,350 245,309C245,281 236,257 207,232C140,263 125,291 125,317C125,354 153,372 187,372 z M237,218C289,250 304,280 304,311C304,365 257,406 189,406C122,406 64,367 64,297C64,257 86,220 130,193C78,168 48,135 48,89C48,25 105,-9 183,-9C265,-9 322,35 322,106C322,156 293,189 237,218z"/>
<glyph unicode="&#xE05F;" horiz-adv-x="371" d="M192,198C148,198 114,221 114,284C114,347 146,371 181,371C225,371 251,333 251,240C251,231 251,223 250,215C232,203 212,198 192,198 z M91,-9C234,11 325,103 325,232C325,339 272,406 184,406C104,406 44,350 44,275C44,200 99,155 173,155C201,155 225,162 245,175C231,101 186,51 84,21z"/>
<glyph unicode="&#xE060;" horiz-adv-x="250" d="M116,172C116,258 141,334 214,435l-21,19C100,376 52,282 52,172C52,62 100,-31 193,-109l21,19C141,10 116,87 116,172z"/>
<glyph unicode="&#xE061;" horiz-adv-x="250" d="M134,172C134,87 109,10 37,-90l20,-19C151,-31 199,62 199,172C199,282 151,376 57,454l-20,-19C109,334 134,258 134,172z"/>
<glyph unicode="&#xE062;" horiz-adv-x="231" d="M116,-9C143,-9 164,14 164,42C164,69 143,93 116,93C88,93 67,69 67,42C67,14 88,-9 116,-9z"/>
<glyph unicode="&#xE063;" horiz-adv-x="219" d="M120,-23C105,-61 70,-84 35,-94l8,-28C101,-107 163,-53 163,23C163,40 160,56 155,75C140,89 127,93 115,93C86,93 70,71 70,44C70,25 78,7 97,-7z"/>
<glyph unicode="&#xE064;" horiz-adv-x="366" d="M116,452C116,595 150,622 184,622C219,622 250,594 250,452C250,310 219,282 184,282C150,282 116,310 116,452 z M184,656C113,656 43,597 43,452C43,307 113,248 184,248C255,248 323,307 323,452C323,597 255,656 184,656z"/>
<glyph unicode="&#xE065;" horiz-adv-x="339" d="M211,299l0,352l-9,6l-131,-32l0,-34l68,6l0,-298l-74,-15l0,-30l219,0l0,30z"/>
<glyph unicode="&#xE066;" horiz-adv-x="365" d="M126,325l49,46C266,454 305,499 305,556C305,608 271,660 183,660C113,660 51,626 46,558C54,544 66,535 82,535C101,535 113,546 122,585l9,38C141,624 149,625 157,625C204,625 232,598 232,548C232,497 203,450 144,393l-92,-89l0,-50l268,0l0,71z"/>
<glyph unicode="&#xE067;" horiz-adv-x="363" d="M131,623C140,624 148,625 155,625C200,625 228,600 228,553C228,507 201,482 147,482l-26,0l0,-40l31,0C215,442 243,412 243,363C243,310 210,278 152,278C141,278 130,279 119,282l-8,37C104,356 90,366 71,366C57,366 44,360 37,340C46,280 93,245 171,245C246,245 317,278 317,360C317,416 284,452 225,463C269,477 299,515 299,562C299,621 249,660 175,660C111,660 59,630 50,567C58,553 71,546 85,546C103,546 119,557 124,587z"/>
<glyph unicode="&#xE068;" horiz-adv-x="364" d="M86,412l122,174l0,-174 z M336,412l-63,0l0,245l-48,0l-189,-256l0,-48l172,0l0,-99l65,0l0,99l63,0z"/>
<glyph unicode="&#xE069;" horiz-adv-x="363" d="M122,579l184,0l0,71l-215,0l-14,-185l18,-13C114,456 136,459 156,459C217,459 246,428 246,373C246,314 213,278 165,278C152,278 139,280 124,284l-7,36C110,357 98,368 80,368C62,368 48,357 43,335C50,285 95,245 172,245C256,245 320,293 320,377C320,462 258,504 175,504C156,504 136,502 116,498z"/>
<glyph unicode="&#xE06A;" horiz-adv-x="370" d="M196,278C149,278 122,324 122,432C145,449 168,457 192,457C233,457 261,434 261,371C261,307 235,278 196,278 z M294,663C132,653 48,529 48,415C48,315 103,245 195,245C271,245 330,292 330,379C330,454 286,500 210,500C178,500 149,490 125,470C137,548 190,613 298,634z"/>
<glyph unicode="&#xE06B;" horiz-adv-x="345" d="M35,650l0,-71l211,0l-165,-319l6,-6l64,0l151,355l0,41z"/>
<glyph unicode="&#xE06C;" horiz-adv-x="370" d="M185,277C143,277 111,303 111,346C111,379 126,411 159,432C235,397 256,376 256,344C256,309 231,277 185,277 z M187,626C225,626 245,604 245,563C245,535 236,511 207,486C140,517 125,545 125,571C125,608 153,626 187,626 z M237,472C289,504 304,534 304,565C304,619 257,660 189,660C122,660 64,621 64,551C64,511 86,474 130,447C78,422 48,389 48,343C48,279 105,245 183,245C265,245 322,289 322,360C322,410 293,443 237,472z"/>
<glyph unicode="&#xE06D;" horiz-adv-x="371" d="M192,452C148,452 114,475 114,538C114,601 146,625 181,625C225,625 251,587 251,494C251,485 251,477 250,469C232,457 212,452 192,452 z M91,245C234,265 325,357 325,486C325,593 272,660 184,660C104,660 44,604 44,529C44,454 99,409 173,409C201,409 225,416 245,429C231,355 186,305 84,275z"/>
<glyph unicode="&#xE06E;" horiz-adv-x="250" d="M116,426C116,512 141,588 214,689l-21,19C100,630 52,536 52,426C52,316 100,223 193,145l21,19C141,264 116,341 116,426z"/>
<glyph unicode="&#xE06F;" horiz-adv-x="250" d="M134,426C134,341 109,264 37,164l20,-19C151,223 199,316 199,426C199,536 151,630 57,708l-20,-19C109,588 134,512 134,426z"/>
<glyph unicode="&#xE070;" horiz-adv-x="231" d="M116,245C143,245 164,268 164,296C164,323 143,347 116,347C88,347 67,323 67,296C67,268 88,245 116,245z"/>
<glyph unicode="&#xE071;" horiz-adv-x="219" d="M120,231C105,193 70,170 35,160l8,-28C101,147 163,201 163,277C163,294 160,310 155,329C140,343 127,347 115,347C86,347 70,325 70,298C70,279 78,261 97,247z"/>
<glyph unicode="&#xAA;" horiz-adv-x="352" d="M219,494C184,470 169,464 151,464C137,464 121,467 110,478C103,485 98,495 98,513C98,535 106,557 158,575C174,580 196,587 219,592 z M335,475C326,464 316,458 307,458C295,458 285,469 285,487l0,136C285,714 245,749 174,749C104,749 52,713 41,662C43,644 53,631 73,631C94,631 107,645 115,674l9,37C138,713 150,714 159,714C202,714 219,698 219,640l0,-18C193,616 166,608 145,601C50,569 31,533 31,494C31,442 72,415 121,415C160,415 189,433 222,465C230,435 253,418 288,418C315,418 334,429 350,462z"/>
<glyph unicode="&#xBA;" horiz-adv-x="378" d="M189,714C246,714 278,671 278,582C278,491 246,450 189,450C132,450 101,491 101,582C101,671 132,714 189,714 z M189,749C107,749 28,687 28,581C28,476 106,415 189,415C273,415 350,476 350,581C350,687 270,749 189,749z"/>
<glyph unicode="&#xE072;" horiz-adv-x="352" d="M219,494C184,470 169,464 151,464C137,464 121,467 110,478C103,485 98,495 98,513C98,535 106,557 158,575C174,580 196,587 219,592 z M335,475C326,464 316,458 307,458C295,458 285,469 285,487l0,136C285,714 245,749 174,749C104,749 52,713 41,662C43,644 53,631 73,631C94,631 107,645 115,674l9,37C138,713 150,714 159,714C202,714 219,698 219,640l0,-18C193,616 166,608 145,601C50,569 31,533 31,494C31,442 72,415 121,415C160,415 189,433 222,465C230,435 253,418 288,418C315,418 334,429 350,462z"/>
<glyph unicode="&#xE073;" horiz-adv-x="398" d="M136,668C167,693 194,704 222,704C265,704 298,676 298,581C298,489 262,461 217,461C188,461 163,474 136,496 z M136,893l-11,5l-109,-30l0,-28l53,-6l0,-372l-48,-9l0,-28l108,-9l4,43C161,429 192,415 228,415C304,415 367,473 367,584C367,698 306,749 238,749C199,749 166,733 136,703z"/>
<glyph unicode="&#xE074;" horiz-adv-x="333" d="M298,516C277,483 249,466 204,466C143,466 98,506 98,590C98,673 141,714 197,714C210,714 221,713 232,710l4,-28C244,643 259,629 281,629C300,629 311,639 314,659C308,710 257,749 193,749C107,749 30,686 30,581C30,477 91,415 184,415C252,415 298,449 316,505z"/>
<glyph unicode="&#xE075;" horiz-adv-x="391" d="M262,494C236,472 212,461 185,461C138,461 98,486 98,582C98,676 136,704 185,704C208,704 235,691 262,667 z M329,462l0,431l-10,5l-112,-30l0,-28l55,-6l0,-131C237,733 208,749 172,749C96,749 30,695 30,582C30,464 96,415 163,415C203,415 235,434 264,465l5,-47l111,7l0,27z"/>
<glyph unicode="&#xE076;" horiz-adv-x="352" d="M100,611C108,690 153,714 188,714C227,714 258,691 258,647C258,624 250,611 217,611 z M317,579C320,589 321,602 321,615C321,695 266,749 189,749C103,749 30,680 30,581C30,476 92,415 188,415C250,415 295,448 319,502l-17,13C278,484 251,466 206,466C145,466 102,502 99,579z"/>
<glyph unicode="&#xE077;" horiz-adv-x="231" d="M23,732l0,-37l52,0l0,-231l-51,-9l0,-30l179,0l0,30l-59,10l0,230l87,0l0,42l-88,0C142,797 149,836 167,860C173,869 180,876 191,882l10,-11C221,850 236,836 255,836C277,836 292,853 294,875C287,898 260,911 226,911C195,911 159,902 133,874C97,840 83,806 76,738z"/>
<glyph unicode="&#xE078;" horiz-adv-x="358" d="M166,564C125,564 104,593 104,641C104,690 127,719 166,719C207,719 229,690 229,641C229,593 205,564 166,564 z M217,418C268,418 283,400 283,381C283,350 244,327 169,327C119,327 85,338 85,374C85,392 92,407 105,421C115,419 126,418 139,418 z M343,742l-10,7l-82,-25C229,740 200,749 166,749C94,749 41,707 41,641C41,601 60,569 92,551C63,531 46,511 46,486C46,465 56,441 85,428C42,409 23,386 23,362C23,322 65,292 165,292C282,292 340,345 340,397C340,455 304,486 225,486l-74,0C114,486 100,495 100,514C100,524 106,532 114,541C130,536 147,533 166,533C239,533 292,576 292,641C292,661 287,678 279,693l64,0z"/>
<glyph unicode="&#xE079;" horiz-adv-x="413" d="M348,464l0,170C348,713 316,749 255,749C212,749 172,730 136,685l0,208l-10,5l-110,-30l0,-28l53,-6l0,-371l-48,-8l0,-30l162,0l0,30l-45,9l0,187C172,681 199,695 227,695C267,695 279,674 279,620l0,-157l-47,-8l0,-30l161,0l0,30z"/>
<glyph unicode="&#xE07A;" horiz-adv-x="206" d="M107,809C133,809 155,829 155,858C155,886 133,906 107,906C79,906 58,886 58,858C58,829 79,809 107,809 z M142,463l0,280l-10,6l-111,-41l0,-28l51,-6l0,-211l-48,-8l0,-30l162,0l0,30z"/>
<glyph unicode="&#xE07B;" horiz-adv-x="195" d="M107,809C133,809 155,829 155,858C155,886 133,906 107,906C79,906 58,886 58,858C58,829 79,809 107,809 z M21,708l0,-28l52,-6l0,-184C73,382 73,353 54,326C51,322 49,318 46,316l-12,12C15,348 -1,362 -20,362C-42,362 -56,346 -61,321C-60,298 -28,281 8,281C41,281 70,290 95,316C130,353 141,391 141,481l0,262l-10,6z"/>
<glyph unicode="&#xE07C;" horiz-adv-x="375" d="M320,464l-97,160l72,74l64,8l0,31l-156,0l0,-31l50,-7l-115,-123l0,317l-10,5l-112,-30l0,-28l53,-6l0,-370l-51,-9l0,-30l171,0l0,30l-51,9l0,71l39,41l95,-151l94,0l0,30z"/>
<glyph unicode="&#xE07D;" horiz-adv-x="205" d="M138,464l0,429l-10,5l-112,-30l0,-28l53,-6l0,-370l-51,-9l0,-30l171,0l0,30z"/>
<glyph unicode="&#xE07E;" horiz-adv-x="617" d="M553,464l0,169C553,712 522,749 461,749C417,749 378,729 343,683C330,728 298,749 255,749C213,749 176,729 143,684l-8,59l-11,6l-101,-41l0,-28l53,-6l0,-210l-48,-9l0,-30l161,0l0,30l-44,8l0,190C176,678 206,695 231,695C266,695 281,676 281,620l0,-156l-48,-9l0,-30l161,0l0,30l-45,9l0,169C349,640 349,646 348,652C380,677 410,695 436,695C469,695 485,676 485,620l0,-157l-47,-8l0,-30l161,0l0,30z"/>
<glyph unicode="&#xE07F;" horiz-adv-x="417" d="M352,464l0,170C352,713 320,749 259,749C215,749 178,730 143,685l-8,58l-11,6l-101,-41l0,-28l52,-6l0,-211l-47,-8l0,-30l161,0l0,30l-44,8l0,191C178,682 204,695 234,695C269,695 283,675 283,620l0,-157l-47,-8l0,-30l161,0l0,30z"/>
<glyph unicode="&#xE080;" horiz-adv-x="378" d="M189,714C246,714 278,671 278,582C278,491 246,450 189,450C132,450 101,491 101,582C101,671 132,714 189,714 z M189,749C107,749 28,687 28,581C28,476 106,415 189,415C273,415 350,476 350,581C350,687 270,749 189,749z"/>
<glyph unicode="&#xE081;" horiz-adv-x="402" d="M145,668C174,692 198,704 227,704C271,704 304,676 304,581C304,489 268,461 224,461C197,461 174,472 145,496 z M135,743l-10,6l-101,-41l0,-28l52,-6l0,-347l-52,-10l0,-30l178,0l0,30l-57,10l0,132C171,429 200,415 236,415C310,415 373,473 373,584C373,698 312,749 246,749C204,749 171,729 139,693z"/>
<glyph unicode="&#xE082;" horiz-adv-x="385" d="M262,499C233,474 208,461 179,461C136,461 98,489 98,582C98,672 136,704 180,704C209,704 235,691 262,667 z M332,327l0,416l-13,6l-56,-47C238,732 208,749 168,749C96,749 30,695 30,579C30,466 89,415 157,415C200,415 231,436 262,470l0,-143l-57,-10l0,-30l178,0l0,30z"/>
<glyph unicode="&#xE083;" horiz-adv-x="294" d="M135,743l-11,6l-101,-41l0,-28l52,-6l0,-211l-46,-8l0,-30l170,0l0,30l-54,10l0,157C157,652 174,675 198,695l5,-5C217,675 231,668 246,668C271,668 289,684 289,711C284,740 262,749 243,749C205,749 169,717 145,665z"/>
<glyph unicode="&#xE084;" horiz-adv-x="303" d="M162,621C112,638 97,652 97,674C97,701 119,714 160,714C177,714 192,710 205,704l10,-50l39,0l3,70C227,740 197,749 160,749C84,749 38,708 38,654C38,609 70,580 120,560l31,-11C197,533 216,519 216,493C216,464 192,450 145,450C121,450 105,454 85,464l-11,55l-40,0l2,-74C70,425 101,415 141,415C228,415 275,459 275,515C275,557 251,590 182,614z"/>
<glyph unicode="&#xE085;" horiz-adv-x="227" d="M208,485C191,473 177,469 164,469C141,469 126,483 126,515l0,180l90,0l0,42l-89,0l4,92l-49,0l-17,-90l-58,-7l0,-37l53,0l0,-198C60,443 97,418 140,418C179,418 209,437 226,461z"/>
<glyph unicode="&#xE086;" horiz-adv-x="402" d="M337,465l0,272l-7,6l-104,-12l0,-27l41,-8l0,-184C238,488 208,470 177,470C151,470 129,485 129,545l0,192l-7,6l-104,-11l0,-28l42,-8l0,-163C60,449 95,415 154,415C196,415 235,437 270,479l9,-61l101,7l0,30z"/>
<glyph unicode="&#xE087;" horiz-adv-x="351" d="M345,737l-132,0l0,-31l54,-7l-72,-193l-79,192l51,8l0,31l-167,0l0,-31l40,-7l123,-281l30,0l112,281l40,7z"/>
<glyph unicode="&#xE088;" horiz-adv-x="529" d="M523,737l-126,0l0,-31l47,-7l-62,-172l-72,173l45,6l0,31l-151,0l0,-31l46,-6l-70,-172l-66,173l45,5l0,31l-159,0l0,-31l41,-6l109,-282l27,0l87,224l90,-224l26,0l103,280l40,8z"/>
<glyph unicode="&#xE089;" horiz-adv-x="351" d="M296,464l-91,129l83,106l42,7l0,31l-121,0l0,-31l39,-6l-61,-82l-61,83l33,5l0,31l-149,0l0,-31l43,-6l87,-125l-84,-112l-49,-8l0,-30l132,0l0,30l-44,8l63,87l63,-88l-41,-7l0,-30l164,0l0,30z"/>
<glyph unicode="&#xE08A;" horiz-adv-x="349" d="M344,737l-132,0l0,-31l55,-7l-71,-202l-82,201l57,8l0,31l-172,0l0,-31l39,-7l124,-295C146,370 129,345 104,327l-7,8C77,352 59,356 44,356C25,356 7,348 1,327C1,299 31,281 66,281C122,281 166,325 203,425l101,274l40,7z"/>
<glyph unicode="&#xE08B;" horiz-adv-x="311" d="M257,533l-19,-76l-138,0l187,255l0,25l-261,0l-5,-98l38,-3l18,70l129,0l-189,-256l0,-25l271,0l7,108z"/>
<glyph unicode="&#xE08C;" horiz-adv-x="352" d="M207,774l19,16l-49,79C154,906 137,914 126,914C112,914 99,905 99,888C99,878 104,862 134,836 z M100,611C108,690 153,714 188,714C227,714 258,691 258,647C258,624 250,611 217,611 z M317,579C320,589 321,602 321,615C321,695 266,749 189,749C103,749 30,680 30,581C30,476 92,415 188,415C250,415 295,448 319,502l-17,13C278,484 251,466 206,466C145,466 102,502 99,579z"/>
<glyph unicode="&#xE08D;" horiz-adv-x="352" d="M237,836C267,862 273,878 273,888C273,905 259,914 246,914C235,914 218,906 195,869l-49,-79l19,-16 z M100,611C108,690 153,714 188,714C227,714 258,691 258,647C258,624 250,611 217,611 z M317,579C320,589 321,602 321,615C321,695 266,749 189,749C103,749 30,680 30,581C30,476 92,415 188,415C250,415 295,448 319,502l-17,13C278,484 251,466 206,466C145,466 102,502 99,579z"/>
<glyph unicode="&#xB0;" horiz-adv-x="330" d="M165,462C116,462 81,500 81,554C81,608 116,648 165,648C214,648 249,608 249,554C249,500 214,462 165,462 z M165,426C235,426 295,476 295,554C295,632 235,684 165,684C95,684 35,632 35,554C35,476 95,426 165,426z"/>
<glyph unicode="&#xA4;" horiz-adv-x="499" d="M250,218C191,218 142,263 142,329C142,394 191,440 250,440C309,440 357,394 357,329C357,263 309,218 250,218 z M378,224C401,251 415,287 415,329C415,371 401,407 378,434l37,22C459,482 473,496 473,515C473,535 456,551 436,551C418,551 404,538 377,493l-22,-37C326,479 289,492 250,492C211,492 174,479 145,456l-22,37C97,537 83,551 64,551C44,551 28,535 28,515C28,497 41,482 86,456l36,-21C98,407 84,371 84,329C84,287 98,251 122,223l-36,-21C42,176 28,161 28,143C28,123 44,107 64,107C82,107 97,120 123,164l22,37C174,179 211,166 250,166C289,166 326,179 355,201l22,-37C403,120 418,106 436,106C456,106 472,123 472,143C472,161 459,175 415,202z"/>
<glyph unicode="$" horiz-adv-x="499" d="M277,267C350,239 382,209 382,150C382,85 342,44 277,35 z M240,381C175,404 138,437 138,499C138,564 181,600 240,608 z M282,366l0,244C296,609 312,607 328,604l12,-55C351,496 377,482 399,482C419,482 436,492 445,514C439,593 372,649 282,658l0,91l-42,0l0,-91C132,651 57,574 57,478C57,377 119,323 225,286l11,-4l0,-249C214,34 191,36 167,42l-12,55C144,149 121,163 97,163C75,163 60,152 50,131C54,46 132,-12 236,-15l0,-100l41,0l0,102C394,-2 463,71 463,170C463,254 422,318 286,365z"/>
<glyph unicode="&#xA3;" horiz-adv-x="499" d="M133,83C179,122 205,178 205,257C205,267 205,276 204,285l159,0l0,50l-164,0C193,381 183,422 183,480C183,575 230,614 292,614C304,614 318,613 333,609l13,-60C357,498 377,482 404,482C426,482 443,492 450,514C446,599 368,659 276,659C167,659 90,580 90,476C90,415 113,378 129,335l-88,0l0,-50l103,0C146,274 147,262 147,249C147,171 107,91 35,51l0,-51l430,0l0,83z"/>
<glyph unicode="&#xA5;" horiz-adv-x="499" d="M512,606l0,38l-193,0l0,-38l74,-11l-120,-264l-117,265l76,10l0,38l-244,0l0,-38l66,-8l132,-278l-136,0l0,-50l158,0l0,-67l-158,0l0,-51l158,0C207,118 207,85 206,50l-101,-10l0,-40l292,0l0,40l-102,11C294,86 293,118 293,152l164,0l0,51l-164,0l0,67l164,0l0,50l-142,0l127,274z"/>
<glyph unicode="&#x20AC;" horiz-adv-x="499" d="M366,33C354,31 344,30 336,30C245,30 181,102 163,234l222,0l0,51l-227,0C157,297 157,309 157,322C157,332 157,342 158,352l227,0l0,50l-223,0C180,540 245,614 337,614C344,614 355,614 367,612l15,-52C396,508 416,493 440,493C461,493 483,505 489,529C477,606 416,659 321,659C188,659 92,561 69,402l-58,0l0,-50l53,0C63,342 63,332 63,322C63,309 63,297 64,285l-53,0l0,-51l59,0C94,79 184,-15 313,-15C408,-15 474,39 485,116C481,139 463,150 441,150C417,150 392,137 379,83z"/>
<glyph unicode="&#xA2;" horiz-adv-x="499" d="M248,131C178,147 132,214 132,323C132,435 180,504 248,520 z M431,204C401,156 347,129 289,127l0,396C304,522 319,519 334,515l9,-39C355,422 374,400 406,400C433,400 448,412 454,438C443,510 374,563 289,568l0,92l-41,0l0,-94C138,552 44,458 44,314C44,167 124,71 248,63l0,-108l41,0l0,108C375,70 431,116 456,192z"/>
<glyph unicode="&#x192;" horiz-adv-x="499" d="M102,396l0,-51l113,0l-12,-128C192,96 193,29 164,-18C155,-33 143,-46 126,-57l-23,23C80,-9 57,-1 34,-1C1,-1 -19,-19 -24,-46C-13,-77 25,-100 80,-100C122,-100 169,-86 207,-45C257,9 273,86 287,233l10,112l129,0l0,51l-125,0C308,486 312,536 336,577C345,592 358,606 376,616l21,-23C420,568 443,560 466,560C499,560 519,579 523,605C513,636 475,659 420,659C378,659 331,645 292,604C251,560 232,499 220,396z"/>
<glyph unicode="&#x20B9;" horiz-adv-x="499" d="M360,48l-48,137C288,258 263,292 212,307C320,328 358,401 359,477l81,0l0,50l-88,0C344,554 329,576 308,594l132,0l0,50l-393,0l0,-50l90,0C202,594 242,570 257,527l-210,0l0,-50l218,0C264,395 221,340 128,340l-81,0l0,-51l39,0C163,289 193,276 217,202l47,-151C278,5 309,-10 371,-10C402,-10 424,-6 444,0l0,39z"/>
<glyph unicode="&#x20BA;" horiz-adv-x="499" d="M389,96C346,54 292,30 227,30C218,30 209,31 200,32l0,248l141,80l0,58l-141,-80l0,69l141,80l0,59l-141,-81C200,508 201,552 202,595l88,10l0,39l-265,0l0,-39l88,-10C114,543 115,488 115,422l-90,-51l0,-57l90,51l0,-71l-90,-51l0,-57l90,51C115,136 114,68 112,0C144,-12 181,-15 213,-15C356,-15 475,68 475,211C468,231 454,241 433,241C408,241 381,229 381,179C381,169 382,159 384,140z"/>
<glyph unicode="&#x2044;" horiz-adv-x="140" d="M-147,-25l465,669l-31,25l-465,-668z"/>
<glyph unicode="&#x2215;" horiz-adv-x="140" d="M-147,-25l465,669l-31,25l-465,-668z"/>
<glyph unicode="&#xE08E;" horiz-adv-x="140" d="M-147,-25l465,669l-31,25l-465,-668z"/>
<glyph unicode="&#xA0;" horiz-adv-x="233"/>
<glyph unicode="&#x2007;" horiz-adv-x="499"/>
<glyph unicode="&#xE08F;" horiz-adv-x="133"/>
<glyph unicode="&#xE090;" horiz-adv-x="133"/>
<glyph unicode="%" horiz-adv-x="862" d="M142,452C142,595 176,622 210,622C245,622 276,594 276,452C276,310 245,282 210,282C176,282 142,310 142,452 z M210,656C139,656 69,597 69,452C69,307 139,248 210,248C281,248 349,307 349,452C349,597 281,656 210,656 z M585,198C585,341 619,368 653,368C688,368 719,340 719,198C719,56 688,28 653,28C619,28 585,56 585,198 z M653,402C582,402 512,343 512,198C512,53 582,-6 653,-6C724,-6 792,53 792,198C792,343 724,402 653,402 z M221,-25l465,669l-31,25l-465,-668z"/>
<glyph unicode="&#x2030;" horiz-adv-x="1197" d="M931,198C931,341 965,368 999,368C1034,368 1065,340 1065,198C1065,56 1034,28 999,28C965,28 931,56 931,198 z M999,402C928,402 858,343 858,198C858,53 928,-6 999,-6C1070,-6 1138,53 1138,198C1138,343 1070,402 999,402 z M142,452C142,595 176,622 210,622C245,622 276,594 276,452C276,310 245,282 210,282C176,282 142,310 142,452 z M210,656C139,656 69,597 69,452C69,307 139,248 210,248C281,248 349,307 349,452C349,597 281,656 210,656 z M585,198C585,341 619,368 653,368C688,368 719,340 719,198C719,56 688,28 653,28C619,28 585,56 585,198 z M653,402C582,402 512,343 512,198C512,53 582,-6 653,-6C724,-6 792,53 792,198C792,343 724,402 653,402 z M221,-25l465,669l-31,25l-465,-668z"/>
<glyph unicode="&#xBC;" horiz-adv-x="862" d="M302,254l0,30l-73,15l0,352l-9,6l-131,-32l0,-34l68,6l0,-298l-74,-15l0,-30 z M672,669l-465,-668l31,-26l465,669 z M530,158l122,174l0,-174 z M780,158l-63,0l0,245l-48,0l-189,-256l0,-48l172,0l0,-99l65,0l0,99l63,0z"/>
<glyph unicode="&#xBD;" horiz-adv-x="862" d="M293,254l0,30l-73,15l0,352l-9,6l-131,-32l0,-34l68,6l0,-298l-74,-15l0,-30 z M640,669l-465,-668l31,-26l465,669 z M594,71l49,46C734,200 773,245 773,302C773,354 739,406 651,406C581,406 519,372 514,304C522,290 534,281 550,281C569,281 581,292 590,331l9,38C609,370 617,371 625,371C672,371 700,344 700,294C700,243 671,196 612,139l-92,-89l0,-50l268,0l0,71z"/>
<glyph unicode="&#xBE;" horiz-adv-x="862" d="M172,623C181,624 189,625 196,625C241,625 269,600 269,553C269,507 242,482 188,482l-26,0l0,-40l31,0C256,442 284,412 284,363C284,310 251,278 193,278C182,278 171,279 160,282l-8,37C145,356 131,366 112,366C98,366 85,360 78,340C87,280 134,245 212,245C287,245 358,278 358,360C358,416 325,452 266,463C310,477 340,515 340,562C340,621 290,660 216,660C152,660 100,630 91,567C99,553 112,546 126,546C144,546 160,557 165,587 z M681,668l-465,-668l31,-26l465,669 z M539,158l122,174l0,-174 z M789,158l-63,0l0,245l-48,0l-189,-256l0,-48l172,0l0,-99l65,0l0,99l63,0z"/>
<glyph unicode="&#x2153;" horiz-adv-x="862" d="M299,254l0,30l-73,15l0,352l-9,6l-131,-32l0,-34l68,6l0,-298l-74,-15l0,-30 z M647,669l-465,-668l31,-26l465,669 z M597,369C606,370 614,371 621,371C666,371 694,346 694,299C694,253 667,228 613,228l-26,0l0,-40l31,0C681,188 709,158 709,109C709,56 676,24 618,24C607,24 596,25 585,28l-8,37C570,102 556,112 537,112C523,112 510,106 503,86C512,26 559,-9 637,-9C712,-9 783,24 783,106C783,162 750,198 691,209C735,223 765,261 765,308C765,367 715,406 641,406C577,406 525,376 516,313C524,299 537,292 551,292C569,292 585,303 590,333z"/>
<glyph unicode="&#x2154;" horiz-adv-x="862" d="M67,304l0,-50l268,0l0,71l-194,0l49,46C281,454 320,499 320,556C320,608 286,660 198,660C128,660 66,626 61,558C69,544 81,535 97,535C116,535 128,546 137,585l9,38C156,624 164,625 172,625C219,625 247,598 247,548C247,497 218,450 159,393 z M664,669l-465,-668l31,-26l465,669 z M615,369C624,370 632,371 639,371C684,371 712,346 712,299C712,253 685,228 631,228l-26,0l0,-40l31,0C699,188 727,158 727,109C727,56 694,24 636,24C625,24 614,25 603,28l-8,37C588,102 574,112 555,112C541,112 528,106 521,86C530,26 577,-9 655,-9C730,-9 801,24 801,106C801,162 768,198 709,209C753,223 783,261 783,308C783,367 733,406 659,406C595,406 543,376 534,313C542,299 555,292 569,292C587,292 603,303 608,333z"/>
<glyph unicode="&#x215B;" horiz-adv-x="862" d="M299,254l0,30l-73,15l0,352l-9,6l-131,-32l0,-34l68,6l0,-298l-74,-15l0,-30 z M646,669l-465,-668l31,-26l465,669 z M646,23C604,23 572,49 572,92C572,125 587,157 620,178C696,143 717,122 717,90C717,55 692,23 646,23 z M648,372C686,372 706,350 706,309C706,281 697,257 668,232C601,263 586,291 586,317C586,354 614,372 648,372 z M698,218C750,250 765,280 765,311C765,365 718,406 650,406C583,406 525,367 525,297C525,257 547,220 591,193C539,168 509,135 509,89C509,25 566,-9 644,-9C726,-9 783,35 783,106C783,156 754,189 698,218z"/>
<glyph unicode="&#x215C;" horiz-adv-x="862" d="M153,623C162,624 170,625 177,625C222,625 250,600 250,553C250,507 223,482 169,482l-26,0l0,-40l31,0C237,442 265,412 265,363C265,310 232,278 174,278C163,278 152,279 141,282l-8,37C126,356 112,366 93,366C79,366 66,360 59,340C68,280 115,245 193,245C268,245 339,278 339,360C339,416 306,452 247,463C291,477 321,515 321,562C321,621 271,660 197,660C133,660 81,630 72,567C80,553 93,546 107,546C125,546 141,557 146,587 z M665,669l-465,-668l31,-26l465,669 z M666,23C624,23 592,49 592,92C592,125 607,157 640,178C716,143 737,122 737,90C737,55 712,23 666,23 z M668,372C706,372 726,350 726,309C726,281 717,257 688,232C621,263 606,291 606,317C606,354 634,372 668,372 z M718,218C770,250 785,280 785,311C785,365 738,406 670,406C603,406 545,367 545,297C545,257 567,220 611,193C559,168 529,135 529,89C529,25 586,-9 664,-9C746,-9 803,35 803,106C803,156 774,189 718,218z"/>
<glyph unicode="&#x215D;" horiz-adv-x="862" d="M142,579l184,0l0,71l-215,0l-14,-185l18,-13C134,456 156,459 176,459C237,459 266,428 266,373C266,314 233,278 185,278C172,278 159,280 144,284l-7,36C130,357 118,368 100,368C82,368 68,357 63,335C70,285 115,245 192,245C276,245 340,293 340,377C340,462 278,504 195,504C176,504 156,502 136,498 z M660,669l-465,-668l31,-26l465,669 z M663,23C621,23 589,49 589,92C589,125 604,157 637,178C713,143 734,122 734,90C734,55 709,23 663,23 z M665,372C703,372 723,350 723,309C723,281 714,257 685,232C618,263 603,291 603,317C603,354 631,372 665,372 z M715,218C767,250 782,280 782,311C782,365 735,406 667,406C600,406 542,367 542,297C542,257 564,220 608,193C556,168 526,135 526,89C526,25 583,-9 661,-9C743,-9 800,35 800,106C800,156 771,189 715,218z"/>
<glyph unicode="&#x215E;" horiz-adv-x="862" d="M350,609l0,41l-267,0l0,-71l211,0l-165,-319l6,-6l64,0 z M621,669l-465,-668l31,-26l465,669 z M641,23C599,23 567,49 567,92C567,125 582,157 615,178C691,143 712,122 712,90C712,55 687,23 641,23 z M643,372C681,372 701,350 701,309C701,281 692,257 663,232C596,263 581,291 581,317C581,354 609,372 643,372 z M693,218C745,250 760,280 760,311C760,365 713,406 645,406C578,406 520,367 520,297C520,257 542,220 586,193C534,168 504,135 504,89C504,25 561,-9 639,-9C721,-9 778,35 778,106C778,156 749,189 693,218z"/>
<glyph unicode="+" horiz-adv-x="530" d="M501,359l-205,0l0,219l-62,0l0,-219l-205,0l0,-58l205,0l0,-224l62,0l0,224l205,0z"/>
<glyph unicode="&#x2212;" horiz-adv-x="530" d="M501,301l0,58l-472,0l0,-58z"/>
<glyph unicode="&#xD7;" horiz-adv-x="530" d="M488,511l-42,41l-181,-181l-181,181l-42,-41l182,-181l-182,-182l42,-41l181,181l181,-181l42,41l-181,182z"/>
<glyph unicode="&#xF7;" horiz-adv-x="530" d="M265,67C302,67 333,95 333,134C333,174 302,200 265,200C228,200 197,174 197,134C197,95 228,67 265,67 z M265,460C302,460 333,487 333,526C333,566 302,593 265,593C228,593 197,566 197,526C197,487 228,460 265,460 z M501,301l0,58l-472,0l0,-58z"/>
<glyph unicode="&#x2219;" horiz-adv-x="300" d="M150,258C190,258 221,290 221,329C221,369 190,401 150,401C110,401 79,369 79,329C79,290 110,258 150,258z"/>
<glyph unicode="=" horiz-adv-x="530" d="M501,201l0,58l-472,0l0,-58 z M501,401l0,58l-472,0l0,-58z"/>
<glyph unicode="&lt;" horiz-adv-x="530" d="M471,524l-30,54l-385,-225l0,-47l385,-225l30,54l-345,195z"/>
<glyph unicode="&gt;" horiz-adv-x="530" d="M89,578l-30,-54l345,-194l-345,-195l30,-54l385,225l0,47z"/>
<glyph unicode="&#x2264;" horiz-adv-x="530" d="M472,156l-351,176l351,175l-31,54l-396,-206l0,-48l396,-205 z M29,58l0,-58l472,0l0,58z"/>
<glyph unicode="&#x2265;" horiz-adv-x="530" d="M89,102l396,205l0,48l-396,206l-31,-54l351,-175l-351,-176 z M29,58l0,-58l472,0l0,58z"/>
<glyph unicode="&#xB1;" horiz-adv-x="530" d="M29,0l472,0l0,58l-472,0 z M296,362l0,197l-62,0l0,-197l-205,0l0,-58l205,0l0,-203l62,0l0,203l205,0l0,58z"/>
<glyph unicode="^" horiz-adv-x="530" d="M445,242l-146,239l-65,0l-146,-239l45,-34l134,214l133,-214z"/>
<glyph unicode="&#x2260;" horiz-adv-x="530" d="M501,401l0,58l-146,0l71,126l-34,17l-81,-143l-282,0l0,-58l250,0l-80,-142l-170,0l0,-58l137,0l-72,-128l33,-16l82,144l292,0l0,58l-260,0l81,142z"/>
<glyph unicode="~" horiz-adv-x="530" d="M284,367C245,402 211,422 168,422C95,422 55,374 49,281l51,-8C109,344 135,364 163,364C190,364 214,353 247,323C286,288 320,268 363,268C436,268 476,316 482,409l-51,8C422,346 395,326 368,326C341,326 317,337 284,367z"/>
<glyph unicode="&#x2248;" horiz-adv-x="530" d="M284,232C245,267 211,287 168,287C95,287 55,239 49,146l51,-8C109,209 135,229 163,229C190,229 214,218 247,188C286,153 320,133 363,133C436,133 476,181 482,274l-51,8C422,211 395,191 368,191C341,191 317,202 284,232 z M284,472C245,507 211,527 168,527C95,527 55,479 49,386l51,-8C109,449 135,469 163,469C190,469 214,458 247,428C286,393 320,373 363,373C436,373 476,421 482,514l-51,8C422,451 395,431 368,431C341,431 317,442 284,472z"/>
<glyph unicode="&#xAC;" horiz-adv-x="530" d="M24,400l0,-58l410,0l0,-183l62,0l0,241z"/>
<glyph unicode="&#x3C0;" horiz-adv-x="626" d="M587,473l-395,0C124,473 66,452 39,431l0,-43l142,9l-45,-255C129,107 117,75 117,37C117,0 137,-15 162,-15C186,-15 200,-8 210,1l22,398l155,0C384,194 380,133 380,94C380,30 407,-10 475,-10C506,-10 532,-1 560,25l-19,52l-6,-3C524,69 507,65 490,65C462,65 443,82 443,126l0,273C514,401 564,411 587,430z"/>
<glyph unicode="&#x221E;" horiz-adv-x="787" d="M595,231C536,231 484,288 433,353C482,412 518,439 583,439C647,439 697,394 697,329C697,272 659,231 595,231 z M204,218C141,218 90,263 90,329C90,385 128,426 192,426C252,426 303,369 354,304C306,245 269,218 204,218 z M592,504C528,504 466,470 409,384C357,447 296,504 208,504C107,504 39,426 39,324C39,224 106,153 195,153C260,153 322,187 379,274C431,211 491,153 579,153C680,153 748,232 748,334C748,432 681,504 592,504z"/>
<glyph unicode="&#xB5;" horiz-adv-x="584" d="M548,77l-7,-3C532,69 515,65 502,65C478,65 460,83 460,124l0,268l7,89l-19,10l-54,-20l6,-210l0,-119C353,99 305,78 254,78C193,78 154,109 154,207l0,185l7,89l-18,10l-55,-18l6,-212l0,-190l-29,-162C58,-126 46,-159 46,-196C46,-233 66,-248 91,-248C115,-248 129,-241 139,-233l6,286C162,7 195,-15 246,-15C302,-15 351,18 400,89C401,30 424,-10 485,-10C514,-10 539,-2 567,25z"/>
<glyph unicode="&#x2202;" horiz-adv-x="531" d="M244,31C182,31 134,86 134,177C134,296 199,360 280,360C319,360 359,346 404,299C390,120 320,31 244,31 z M157,563C189,594 231,614 276,614C364,614 407,535 407,372l0,-21C365,388 319,406 269,406C151,406 41,321 41,174C41,55 121,-15 231,-15C390,-15 501,141 501,380C501,556 428,659 290,659C230,659 178,637 134,592z"/>
<glyph unicode="&#x222B;" horiz-adv-x="364" d="M51,-125C26,-100 4,-91 -19,-91C-53,-91 -72,-110 -77,-137C-67,-168 -29,-190 23,-190C68,-190 117,-178 157,-135C198,-92 232,-18 232,90C233,110 234,148 224,294C213,453 215,499 215,523C217,596 233,652 252,685C262,701 275,714 292,725l22,-21C338,680 360,670 384,670C417,670 437,689 441,716C431,746 392,769 341,769C293,769 247,757 208,715C167,671 132,597 132,489C131,469 130,429 140,283C151,124 150,80 150,56C148,-17 131,-73 112,-106C102,-122 90,-136 72,-146z"/>
<glyph unicode="&#x221A;" horiz-adv-x="559" d="M471,782l-151,-759l-122,333l-155,0l0,-53l88,0l155,-403l51,0l213,882z"/>
<glyph unicode="&#x2206;" horiz-adv-x="554" d="M72,47l176,511l187,-511 z M301,669l-59,0l-222,-633l0,-36l514,0l0,36z"/>
<glyph unicode="&#x2126;" horiz-adv-x="778" d="M713,200l-29,-118l-157,0l0,3C617,154 694,268 694,405C694,591 549,684 389,684C228,684 83,590 83,404C83,268 162,154 250,85l0,-3l-156,0l-30,118l-61,0l20,-200l317,0l0,67C248,138 187,279 187,412C187,548 263,633 389,633C514,633 591,548 591,411C591,279 529,138 437,67l0,-67l318,0l20,200z"/>
<glyph unicode="&#x2211;" horiz-adv-x="561" d="M479,82l-27,-128l-348,0l251,333l-209,331l285,0l27,-128l61,0l-8,179l-485,0l0,-46l237,-367l-242,-322l0,-63l512,0l8,211z"/>
<glyph unicode="&#x220F;" horiz-adv-x="779" d="M739,628l0,41l-698,0l0,-41l92,-11C135,531 135,445 135,359l0,-178C135,94 135,7 133,-77l-92,-11l0,-41l282,0l0,41l-92,11C229,9 229,95 229,181l0,178C229,446 229,532 231,617l317,0C550,531 550,445 550,359l0,-178C550,94 550,7 548,-77l-92,-11l0,-41l283,0l0,41l-92,11C645,9 645,95 645,181l0,178C645,446 645,533 647,617z"/>
<glyph unicode="&#x2113;" horiz-adv-x="470" d="M166,377C166,642 221,704 273,704C313,704 338,669 338,581C338,461 282,360 172,254C168,290 166,330 166,377 z M441,101C409,74 371,46 317,46C258,46 208,84 183,191C331,316 422,439 422,574C422,687 364,749 278,749C178,749 81,663 81,366C81,297 87,238 99,189C72,166 42,143 10,119l25,-41C63,98 89,117 114,136C153,32 221,-15 303,-15C376,-15 428,23 466,63z"/>
<glyph unicode="&#x212E;" horiz-adv-x="800" d="M176,312C176,314 178,316 180,316l574,0l0,8C754,510 596,660 400,660C204,660 46,510 46,324C46,138 204,-12 400,-12C514,-12 616,40 682,120l-52,0C574,52 492,8 402,8C316,8 238,46 184,108C180,114 176,120 176,128 z M180,334C178,334 176,336 176,340l0,180C176,528 180,536 184,542C240,602 316,640 402,640C484,640 560,604 616,546C622,540 626,532 626,524l0,-184C626,336 624,334 620,334z"/>
<glyph unicode="&#x2190;" horiz-adv-x="665" d="M611,323l-492,-17l239,248l-27,26l-307,-282l0,-22l307,-282l27,26l-239,248l492,-17l30,0l0,72z"/>
<glyph unicode="&#x2196;" horiz-adv-x="665" d="M545,115l-359,336l344,7l0,37l-417,18l-15,-16l18,-417l37,0l6,344l336,-359l21,-22l51,51z"/>
<glyph unicode="&#x2191;" horiz-adv-x="665" d="M626,292l-282,308l-23,0l-282,-308l27,-26l247,238l-16,-491l0,-31l71,0l0,31l-17,492l248,-239z"/>
<glyph unicode="&#x2197;" horiz-adv-x="665" d="M552,513l-418,-18l0,-37l345,-7l-359,-336l-22,-21l51,-51l20,22l337,360l6,-345l37,0l18,417z"/>
<glyph unicode="&#x2192;" horiz-adv-x="665" d="M334,580l-27,-26l239,-248l-492,17l-30,0l0,-72l30,0l492,17l-239,-248l27,-26l307,282l0,22z"/>
<glyph unicode="&#x2198;" horiz-adv-x="665" d="M549,476l-37,0l-6,-344l-336,359l-21,22l-51,-51l22,-21l359,-336l-344,-7l0,-37l417,-18l15,16z"/>
<glyph unicode="&#x2193;" horiz-adv-x="665" d="M599,316l-247,-238l16,491l0,31l-71,0l0,-31l17,-492l-248,239l-27,-26l282,-308l23,0l282,308z"/>
<glyph unicode="&#x2199;" horiz-adv-x="665" d="M567,462l-51,51l-20,-22l-337,-360l-6,345l-37,0l-18,-417l15,-16l418,18l0,37l-345,7l359,336z"/>
<glyph unicode="&#x25A0;" horiz-adv-x="720" d="M55,-1l610,0l0,600l-610,0z"/>
<glyph unicode="&#x25C6;" horiz-adv-x="748" d="M728,300l-354,354l-354,-354l354,-354z"/>
<glyph unicode="&#x25C9;" horiz-adv-x="447" d="M224,136C333,136 422,223 422,330C422,437 333,524 224,524C115,524 26,437 26,330C26,223 115,136 224,136 z M224,177C140,177 71,246 71,330C71,414 140,482 224,482C308,482 376,414 376,330C376,246 308,177 224,177 z M224,252C267,252 301,286 301,330C301,373 267,407 224,407C180,407 146,373 146,330C146,286 180,252 224,252z"/>
<glyph unicode="&#x2752;" horiz-adv-x="885" d="M97,0l0,600l610,0l0,-600 z M55,-42l673,0l102,164l0,600l-610,0l-165,-101z"/>
<glyph unicode="&#x25B2;" horiz-adv-x="582" d="M26,55l7,-12l516,0l6,12l-257,446l-14,0z"/>
<glyph unicode="&#x25B3;" horiz-adv-x="582" d="M26,55l7,-12l516,0l6,12l-257,446l-14,0 z M291,418l189,-327l-379,0z"/>
<glyph unicode="&#x25B6;" horiz-adv-x="582" d="M94,528l-12,-7l0,-516l12,-7l446,258l0,14z"/>
<glyph unicode="&#x25B7;" horiz-adv-x="582" d="M94,528l-12,-7l0,-516l12,-7l446,258l0,14 z M457,263l-327,-189l0,379z"/>
<glyph unicode="&#x25BC;" horiz-adv-x="582" d="M555,490l-6,11l-516,0l-7,-11l258,-447l14,0z"/>
<glyph unicode="&#x25BD;" horiz-adv-x="582" d="M555,490l-6,11l-516,0l-7,-11l258,-447l14,0 z M291,127l-190,327l379,0z"/>
<glyph unicode="&#x25C0;" horiz-adv-x="582" d="M489,-2l11,7l0,516l-11,7l-447,-258l0,-14z"/>
<glyph unicode="&#x25C1;" horiz-adv-x="582" d="M489,-2l11,7l0,516l-11,7l-447,-258l0,-14 z M125,263l328,190l0,-379z"/>
<glyph unicode="&#x2610;" horiz-adv-x="800" d="M102,7l0,586l596,0l0,-586 z M55,-37l690,0l0,674l-690,0z"/>
<glyph unicode="&#x2611;" horiz-adv-x="800" d="M698,7l-596,0l0,586l460,0C502,462 447,330 397,196C362,287 321,374 274,461l-66,-40C271,308 327,190 376,71l45,0C479,247 543,422 614,593l84,0 z M633,637C664,710 697,782 731,854l-35,18C657,794 619,716 582,637l-527,0l0,-674l690,0l0,674z"/>
<glyph unicode="&#x2713;" horiz-adv-x="606" d="M549,801C438,579 335,356 250,125C215,216 174,303 127,390l-66,-40C124,237 180,119 229,0l45,0C361,267 463,529 584,783z"/>
<glyph unicode="&#x266A;" horiz-adv-x="505" d="M234,749l0,-596C216,160 195,163 172,163C90,163 34,118 34,58C34,8 73,-15 128,-15C222,-15 276,52 276,163l0,402C304,543 328,525 349,505C398,461 411,417 411,369C411,328 402,290 388,258l21,-9C435,285 471,355 471,426C471,488 445,543 390,588C299,662 277,691 266,749z"/>
<glyph unicode="&#x25CA;" horiz-adv-x="582" d="M443,325l-152,-298l-152,298l152,294 z M500,325l-202,376l-14,0l-202,-376l202,-381l14,0z"/>
<glyph unicode="&#x2032;" horiz-adv-x="250" d="M65,430l37,0l26,70C156,577 180,646 180,684C180,714 166,738 135,738C118,738 99,732 81,718z"/>
<glyph unicode="&#x2033;" horiz-adv-x="432" d="M247,430l37,0l26,70C338,577 362,646 362,684C362,714 348,738 317,738C300,738 281,732 263,718 z M65,430l37,0l26,70C156,577 180,646 180,684C180,714 166,738 135,738C118,738 99,732 81,718z"/>
<glyph unicode="&#x2BB;" horiz-adv-x="212" d="M96,602C118,655 145,684 193,722l-19,27C100,701 37,621 37,534C37,509 43,485 51,463C67,449 85,443 105,443C141,443 164,462 164,502C164,527 155,550 124,576z"/>
<glyph unicode="&#x2BC;" horiz-adv-x="212" d="M116,590C94,537 67,508 19,470l19,-27C112,491 175,571 175,658C175,683 169,707 161,729C145,743 127,749 107,749C71,749 48,730 48,690C48,665 57,642 88,616z"/>
<glyph unicode="`" horiz-adv-x="400" d="M267,576l-86,137C160,746 142,757 124,757C104,757 86,745 86,720C86,706 92,689 121,663l120,-107z"/>
<glyph unicode="&#xB4;" horiz-adv-x="400" d="M129,576l26,-20l120,107C304,689 310,706 310,720C310,745 292,757 272,757C254,757 236,746 216,713z"/>
<glyph unicode="&#x2C6;" horiz-adv-x="400" d="M349,577l-132,176l-34,0l-132,-176l24,-21l125,106l125,-106z"/>
<glyph unicode="&#x2C7;" horiz-adv-x="400" d="M314,739l-114,-105l-114,105l-25,-20l102,-148l74,0l102,148z"/>
<glyph unicode="&#x2C9;" horiz-adv-x="400" d="M69,603l262,0l0,63l-262,0z"/>
<glyph unicode="&#x2CA;" horiz-adv-x="400" d="M130,576l26,-20l120,107C305,689 311,706 311,720C311,745 293,757 273,757C255,757 237,746 217,713z"/>
<glyph unicode="&#x2CB;" horiz-adv-x="400" d="M268,576l-86,137C161,746 143,757 125,757C105,757 87,745 87,720C87,706 93,689 122,663l120,-107z"/>
<glyph unicode="&#x2DC;" horiz-adv-x="400" d="M271,573C324,573 367,614 367,683C367,693 366,700 365,706l-34,0C331,656 310,635 284,635C263,635 245,649 219,675C190,702 164,718 133,718C80,718 37,676 37,608C37,600 38,591 39,584l34,0C73,635 94,655 121,655C142,655 158,642 185,616C214,588 240,573 271,573z"/>
<glyph unicode="&#xA8;" horiz-adv-x="400" d="M301,587C333,587 358,610 358,641C358,673 333,696 301,696C270,696 243,673 243,641C243,610 270,587 301,587 z M99,587C130,587 157,610 157,641C157,673 130,696 99,696C67,696 42,673 42,641C42,610 67,587 99,587z"/>
<glyph unicode="&#xAF;" horiz-adv-x="400" d="M69,603l262,0l0,63l-262,0z"/>
<glyph unicode="&#x2D8;" horiz-adv-x="400" d="M200,575C292,575 342,647 351,723l-30,12C302,685 262,645 200,645C138,645 98,685 79,735l-30,-12C58,647 108,575 200,575z"/>
<glyph unicode="&#x2DA;" horiz-adv-x="400" d="M200,579C163,579 143,610 143,641C143,672 164,702 200,702C237,702 257,672 257,641C257,610 236,579 200,579 z M200,539C254,539 305,577 305,641C305,706 254,742 200,742C146,742 95,703 95,641C95,575 146,539 200,539z"/>
<glyph unicode="&#x2DD;" horiz-adv-x="400" d="M58,567l28,-16l93,117C199,692 202,708 202,719C202,741 186,755 167,755C149,755 127,744 114,709 z M200,567l28,-16l93,117C341,692 344,708 344,719C344,741 328,755 309,755C291,755 269,744 256,709z"/>
<glyph unicode="&#x2D9;" horiz-adv-x="400" d="M200,598C238,598 267,625 267,663C267,701 238,727 200,727C162,727 133,701 133,663C133,625 162,598 200,598z"/>
<glyph unicode="&#xB8;" horiz-adv-x="400" d="M196,3l-36,0l-13,-90C195,-93 218,-107 218,-138C218,-166 199,-184 161,-184C142,-184 128,-183 112,-181l-7,-31C118,-216 140,-221 168,-221C241,-221 280,-187 280,-140C280,-92 240,-66 189,-58z"/>
<glyph unicode="&#xE091;" horiz-adv-x="25" d="M32,740C17,740 2,736 -14,727l-3,-209l32,0l20,56C51,621 68,674 68,703C68,725 58,740 32,740z"/>
<glyph unicode="&#xE092;" horiz-adv-x="0" d="M72,772C1,748 -62,708 -62,637C-62,624 -60,612 -53,591C-39,577 -23,571 -9,571C17,571 39,590 39,617C39,643 19,665 -8,677C14,710 42,728 82,743z"/>
<glyph unicode="&#x2DB;" horiz-adv-x="400" d="M97,-132C97,-187 136,-221 192,-221C227,-221 271,-207 294,-175l-13,25C261,-161 242,-164 228,-164C190,-164 161,-139 161,-96C161,-56 186,-13 228,14l-29,0C145,-14 97,-70 97,-132z"/>
<glyph unicode="&#x300;" horiz-adv-x="0" d="M67,576l-86,137C-40,746 -58,757 -76,757C-96,757 -114,745 -114,720C-114,706 -108,689 -79,663l120,-107z"/>
<glyph unicode="&#xE093;" horiz-adv-x="0" d="M79,745l-94,94C-43,867 -60,877 -78,877C-98,877 -115,863 -115,843C-115,825 -103,808 -65,788l126,-68z"/>
<glyph unicode="&#x301;" horiz-adv-x="0" d="M-71,576l26,-20l120,107C104,689 110,706 110,720C110,745 92,757 72,757C54,757 36,746 16,713z"/>
<glyph unicode="&#xE094;" horiz-adv-x="0" d="M-79,745l18,-25l126,68C103,808 116,825 116,843C116,863 98,877 78,877C60,877 43,867 15,839z"/>
<glyph unicode="&#x302;" horiz-adv-x="0" d="M149,577l-132,176l-34,0l-132,-176l24,-21l125,106l125,-106z"/>
<glyph unicode="&#xE095;" horiz-adv-x="0" d="M138,752l-121,115l-34,0l-121,-115l19,-25l119,72l119,-72z"/>
<glyph unicode="&#x303;" horiz-adv-x="0" d="M69,573C122,573 165,614 165,683C165,693 164,700 163,706l-34,0C129,656 108,635 82,635C61,635 43,649 17,675C-12,702 -38,718 -69,718C-122,718 -165,676 -165,608C-165,600 -164,591 -163,584l34,0C-129,635 -108,655 -81,655C-60,655 -44,642 -17,616C12,588 38,573 69,573z"/>
<glyph unicode="&#xE096;" horiz-adv-x="0" d="M70,722C128,722 163,759 163,822C163,830 162,836 161,842l-34,0C127,797 106,779 79,779C58,779 41,790 15,813C-14,840 -41,852 -76,852C-133,852 -167,818 -167,756C-167,746 -166,738 -165,732l34,0C-131,778 -109,796 -83,796C-62,796 -46,785 -19,762C11,736 35,722 70,722z"/>
<glyph unicode="&#x304;" horiz-adv-x="0" d="M-131,603l262,0l0,63l-262,0z"/>
<glyph unicode="&#xE097;" horiz-adv-x="0" d="M-151,749l301,0l0,62l-301,0z"/>
<glyph unicode="&#x306;" horiz-adv-x="0" d="M0,575C92,575 142,647 151,723l-30,12C102,685 62,645 0,645C-62,645 -102,685 -121,735l-30,-12C-142,647 -92,575 0,575z"/>
<glyph unicode="&#xE098;" horiz-adv-x="0" d="M0,731C92,731 135,800 144,859l-30,10C99,824 60,791 0,791C-60,791 -96,824 -113,870l-31,-11C-135,800 -92,731 0,731z"/>
<glyph unicode="&#x307;" horiz-adv-x="0" d="M0,598C38,598 67,625 67,663C67,701 38,727 0,727C-38,727 -67,701 -67,663C-67,625 -38,598 0,598z"/>
<glyph unicode="&#xE099;" horiz-adv-x="0" d="M0,736C38,736 67,763 67,800C67,838 38,864 0,864C-38,864 -67,838 -67,800C-67,763 -38,736 0,736z"/>
<glyph unicode="&#x308;" horiz-adv-x="0" d="M101,587C133,587 158,610 158,641C158,673 133,696 101,696C70,696 43,673 43,641C43,610 70,587 101,587 z M-101,587C-70,587 -43,610 -43,641C-43,673 -70,696 -101,696C-133,696 -158,673 -158,641C-158,610 -133,587 -101,587z"/>
<glyph unicode="&#xE09A;" horiz-adv-x="0" d="M-112,737C-80,737 -55,761 -55,792C-55,824 -80,847 -112,847C-143,847 -170,824 -170,792C-170,761 -143,737 -112,737 z M111,737C142,737 169,761 169,792C169,824 142,847 111,847C79,847 54,824 54,792C54,761 79,737 111,737z"/>
<glyph unicode="&#x30A;" horiz-adv-x="0" d="M0,579C-37,579 -57,610 -57,641C-57,672 -36,702 0,702C37,702 57,672 57,641C57,610 36,579 0,579 z M0,539C54,539 105,577 105,641C105,706 54,742 0,742C-54,742 -105,703 -105,641C-105,575 -54,539 0,539z"/>
<glyph unicode="&#xE09B;" horiz-adv-x="0" d="M0,721C49,721 97,757 97,814C97,875 49,908 0,908C-49,908 -97,873 -97,814C-97,755 -49,721 0,721 z M0,757C-34,757 -52,786 -52,814C-52,843 -33,870 0,870C34,870 52,843 52,814C52,786 33,757 0,757z"/>
<glyph unicode="&#x30B;" horiz-adv-x="0" d="M-125,567l28,-16l93,117C16,692 19,708 19,719C19,741 3,755 -16,755C-34,755 -56,744 -69,709 z M17,567l28,-16l93,117C158,692 161,708 161,719C161,741 145,755 126,755C108,755 86,744 73,709z"/>
<glyph unicode="&#xE09C;" horiz-adv-x="0" d="M-117,729l26,-18l96,99C22,827 28,842 28,854C28,874 11,887 -8,887C-24,887 -45,877 -60,846 z M36,729l26,-18l96,99C174,827 180,842 180,854C180,874 164,887 144,887C128,887 107,877 92,846z"/>
<glyph unicode="&#x30C;" horiz-adv-x="0" d="M114,739l-114,-105l-114,105l-25,-20l102,-148l74,0l102,148z"/>
<glyph unicode="&#xE09D;" horiz-adv-x="0" d="M114,867l-114,-85l-114,85l-24,-21l101,-118l74,0l101,118z"/>
<glyph unicode="&#x326;" horiz-adv-x="0" d="M-73,-252C-2,-228 61,-188 61,-117C61,-104 59,-92 52,-71C38,-57 22,-51 8,-51C-18,-51 -40,-70 -40,-97C-40,-123 -20,-145 7,-157C-15,-190 -43,-208 -83,-223z"/>
<glyph unicode="&#x327;" horiz-adv-x="0" d="M24,3l-36,0l-13,-90C23,-93 46,-107 46,-138C46,-166 27,-184 -11,-184C-30,-184 -44,-183 -60,-181l-7,-31C-54,-216 -32,-221 -4,-221C69,-221 108,-187 108,-140C108,-92 68,-66 17,-58z"/>
<glyph unicode="&#x328;" horiz-adv-x="0" d="M-97,-132C-97,-187 -58,-221 -2,-221C33,-221 77,-207 100,-175l-13,25C67,-161 48,-164 34,-164C-4,-164 -33,-139 -33,-96C-33,-56 -8,-13 34,14l-29,0C-49,-14 -97,-70 -97,-132z"/>
</font>
</svg>
